SplineFontDB: 3.2
FontName: mono5by7asciiSideways
FullName: mono5by7asciiSideways
FamilyName: mono5by7asciiSideways
Weight: Book
Copyright: Copyright (c) 2013 by Peter Wiegel. All rights reserved.
Version: 1.0
ItalicAngle: 0
UnderlinePosition: -100
UnderlineWidth: 50
Ascent: 850
Descent: 150
InvalidEm: 0
sfntRevision: 0x00010000
LayerCount: 2
Layer: 0 1 "Back" 1
Layer: 1 1 "Fore" 0
XUID: [1021 362 -792500644 12663]
StyleMap: 0x0040
FSType: 0
OS2Version: 3
OS2_WeightWidthSlopeOnly: 0
OS2_UseTypoMetrics: 0
CreationTime: 1364308095
ModificationTime: 1584928568
PfmFamily: 81
TTFWeight: 400
TTFWidth: 5
LineGap: 0
VLineGap: 0
Panose: 0 0 0 0 0 0 0 0 0 0
OS2TypoAscent: 700
OS2TypoAOffset: 0
OS2TypoDescent: 0
OS2TypoDOffset: 0
OS2TypoLinegap: 50
OS2WinAscent: 750
OS2WinAOffset: 0
OS2WinDescent: 250
OS2WinDOffset: 0
HheadAscent: 700
HheadAOffset: 0
HheadDescent: 0
HheadDOffset: 0
OS2SubXSize: 700
OS2SubYSize: 650
OS2SubXOff: 0
OS2SubYOff: 140
OS2SupXSize: 700
OS2SupYSize: 650
OS2SupXOff: 0
OS2SupYOff: 477
OS2StrikeYSize: 50
OS2StrikeYPos: 250
OS2CapHeight: 700
OS2XHeight: 500
OS2Vendor: 'pyrs'
OS2CodePages: 0000000d.00000000
OS2UnicodeRanges: a00002af.4000104a.00000000.00000000
MarkAttachClasses: 1
DEI: 91125
TtTable: prep
PUSHW_1
 10
CALL
PUSHW_1
 0
CALL
EndTTInstrs
TtTable: fpgm
PUSHW_1
 0
FDEF
MPPEM
PUSHW_1
 9
LT
IF
PUSHB_2
 1
 1
INSTCTRL
EIF
PUSHW_1
 511
SCANCTRL
PUSHW_1
 68
SCVTCI
PUSHW_2
 9
 3
SDS
SDB
ENDF
PUSHW_1
 1
FDEF
DUP
DUP
RCVT
ROUND[Black]
WCVTP
PUSHB_1
 1
ADD
ENDF
PUSHW_1
 2
FDEF
PUSHW_1
 1
LOOPCALL
POP
ENDF
PUSHW_1
 3
FDEF
DUP
GC[cur]
PUSHB_1
 3
CINDEX
GC[cur]
GT
IF
SWAP
EIF
DUP
ROLL
DUP
ROLL
MD[grid]
ABS
ROLL
DUP
GC[cur]
DUP
ROUND[Grey]
SUB
ABS
PUSHB_1
 4
CINDEX
GC[cur]
DUP
ROUND[Grey]
SUB
ABS
GT
IF
SWAP
NEG
ROLL
EIF
MDAP[rnd]
DUP
PUSHB_1
 0
GTEQ
IF
ROUND[Black]
DUP
PUSHB_1
 0
EQ
IF
POP
PUSHB_1
 64
EIF
ELSE
ROUND[Black]
DUP
PUSHB_1
 0
EQ
IF
POP
PUSHB_1
 64
NEG
EIF
EIF
MSIRP[no-rp0]
ENDF
PUSHW_1
 4
FDEF
DUP
GC[cur]
PUSHB_1
 4
CINDEX
GC[cur]
GT
IF
SWAP
ROLL

StartChar: zero
Encoding: 48 48 16
Width: 675
VWidth: 1222
Flags: W
LayerCount: 2
Fore
SplineSet
337 151 m 256,0,1
 354 151 354 151 366 134 c 0,2,3
 377 118 377 118 380 89 c 1,4,5
 382 115 382 115 392 132 c 128,-1,6
 402 149 402 149 418 151 c 1,7,8
 401 155 401 155 390.5 174 c 128,-1,9
 380 193 380 193 380 220 c 0,10,11
 380 250 380 250 392 270 c 128,-1,12
 404 290 404 290 422 290 c 256,13,14
 440 290 440 290 452 269.5 c 128,-1,15
 464 249 464 249 464 220 c 0,16,17
 464 193 464 193 454 174 c 0,18,19
 443 156 443 156 426 151 c 1,20,21
 440 148 440 148 451 132 c 128,-1,22
 462 116 462 116 464 89 c 1,23,24
 466 116 466 116 477.5 133.5 c 128,-1,25
 489 151 489 151 507 151 c 128,-1,26
 525 151 525 151 537 131.5 c 128,-1,27
 549 112 549 112 549 83 c 256,28,29
 549 53 549 53 537 33.5 c 128,-1,30
 525 14 525 14 507 14 c 0,31,32
 490 14 490 14 478 31.5 c 128,-1,33
 466 49 466 49 464 76 c 1,34,35
 462 50 462 50 451 31 c 0,36,37
 440 14 440 14 424 14 c 0,38,39
 423 14 423 14 422 14 c 0,40,41
 405 14 405 14 393.5 31.5 c 128,-1,42
 382 49 382 49 380 76 c 1,43,44
 378 50 378 50 366 31 c 0,45,46
 355 14 355 14 339 14 c 0,47,48
 338 14 338 14 337 14 c 0,49,50
 320 14 320 14 308.5 31.5 c 128,-1,51
 297 49 297 49 295 76 c 1,52,53
 293 50 293 50 282 31 c 0,54,55
 271 14 271 14 255 14 c 0,56,57
 254 14 254 14 253 14 c 0,58,59
 236 14 236 14 224 31.5 c 128,-1,60
 212 49 212 49 211 76 c 1,61,62
 209 50 209 50 197 31 c 0,63,64
 186 14 186 14 170 14 c 0,65,66
 169 14 169 14 168 14 c 0,67,68
 150 14 150 14 137.5 33.5 c 128,-1,69
 125 53 125 53 125 83 c 256,70,71
 125 113 125 113 137.5 132 c 128,-1,72
 150 151 150 151 168 151 c 0,73,74
 185 151 185 151 197 134 c 0,75,76
 208 118 208 118 211 89 c 1,77,78
 213 116 213 116 224 133.5 c 128,-1,79
 235 151 235 151 253 151 c 0,80,81
 270 151 270 151 282 134 c 0,82,83
 293 118 293 118 295 89 c 1,84,85
 297 116 297 116 309 134 c 0,86,87
 320 151 320 151 337 151 c 256,0,1
253 703 m 256,88,89
 270 703 270 703 282 684 c 0,90,91
 293 668 293 668 295 641 c 1,92,93
 297 668 297 668 309 684 c 0,94,95
 321 702 321 702 337 703 c 0,96,97
 354 703 354 703 366 684 c 0,98,99
 377 668 377 668 380 641 c 1,100,101
 382 668 382 668 393 684 c 0,102,103
 405 702 405 702 422 703 c 0,104,105
 439 703 439 703 451 684 c 0,106,107
 462 668 462 668 464 641 c 1,108,109
 466 668 466 668 478 684 c 0,110,111
 490 702 490 702 507 703 c 0,112,113
 525 703 525 703 537 683 c 128,-1,114
 549 663 549 663 549 634 c 0,115,116
 549 604 549 604 537 584 c 128,-1,117
 525 564 525 564 507 564 c 0,118,119
 490 564 490 564 478 582.5 c 128,-1,120
 466 601 466 601 464 626 c 1,121,122
 462 600 462 600 451 583 c 0,123,124
 439 565 439 565 422 564 c 0,125,126
 405 564 405 564 393.5 582.5 c 128,-1,127
 382 601 382 601 380 626 c 1,128,129
 378 600 378 600 366 583 c 128,-1,130
 354 566 354 566 337 564 c 0,131,132
 320 564 320 564 308.5 582.5 c 128,-1,133
 297 601 297 601 295 626 c 1,134,135
 293 603 293 603 283 586 c 0,136,137
 272 568 272 568 256 564 c 1,138,139
 273 561 273 561 284 542.5 c 128,-1,140
 295 524 295 524 295 496 c 0,141,142
 295 466 295 466 283 446.5 c 128,-1,143
 271 427 271 427 253 427 c 256,144,145
 235 427 235 427 223 447.5 c 128,-1,146
 211 468 211 468 211 496 c 0,147,148
 211 523 211 523 221 543 c 0,149,150
 231 562 231 562 249 564 c 1,151,152
 233 568 233 568 222.5 585.5 c 128,-1,153
 212 603 212 603 211 626 c 1,154,155
 209 600 209 600 197 583 c 128,-1,156
 185 566 185 566 168 564 c 0,157,158
 150 564 150 564 137.5 584.5 c 128,-1,159
 125 605 125 605 125 634 c 256,160,161
 125 664 125 664 137.5 683.5 c 128,-1,162
 150 703 150 703 168 703 c 0,163,164
 185 703 185 703 197 684 c 0,165,166
 208 668 208 668 211 641 c 1,167,168
 213 668 213 668 224 684 c 0,169,170
 236 703 236 703 253 703 c 256,88,89
83 564 m 256,171,172
 101 564 101 564 113 544.5 c 128,-1,173
 125 525 125 525 125 496 c 0,174,175
 125 469 125 469 114.5 449.5 c 128,-1,176
 104 430 104 430 87 427 c 1,177,178
 104 424 104 424 114 404 c 128,-1,179
 124 384 124 384 125 358 c 0,180,181
 125 328 125 328 113 310 c 0,182,183
 102 292 102 292 87 290 c 1,184,185
 102 289 102 289 113 270 c 0,186,187
 125 250 125 250 125 220 c 256,188,189
 125 190 125 190 113.5 170.5 c 128,-1,190
 102 151 102 151 83 151 c 256,191,192
 65 151 65 151 53 171.5 c 128,-1,193
 41 192 41 192 41 220 c 0,194,195
 41 247 41 247 52 267 c 0,196,197
 62 286 62 286 79 290 c 1,198,199
 62 294 62 294 52 311 c 0,200,201
 41 330 41 330 41 358 c 0,202,203
 41 385 41 385 52 406 c 0,204,205
 62 425 62 425 79 427 c 1,206,207
 62 431 62 431 52 449 c 0,208,209
 41 468 41 468 41 496 c 0,210,211
 41 526 41 526 53 545 c 128,-1,212
 65 564 65 564 83 564 c 256,171,172
592 564 m 256,213,214
 610 564 610 564 622 544.5 c 128,-1,215
 634 525 634 525 634 496 c 0,216,217
 634 469 634 469 622.5 449.5 c 128,-1,218
 611 430 611 430 595 427 c 1,219,220
 612 424 612 424 623 404 c 128,-1,221
 634 384 634 384 634 358 c 0,222,223
 634 328 634 328 621.5 309 c 128,-1,224
 609 290 609 290 592 290 c 1,225,226
 610 290 610 290 622 269.5 c 128,-1,227
 634 249 634 249 634 220 c 256,228,229
 634 190 634 190 621.5 170.5 c 128,-1,230
 609 151 609 151 592 151 c 0,231,232
 574 151 574 151 561.5 171.5 c 128,-1,233
 549 192 549 192 549 220 c 0,234,235
 549 247 549 247 560 267 c 0,236,237
 570 286 570 286 587 290 c 1,238,239
 570 294 570 294 560 311 c 0,240,241
 549 330 549 330 549 358 c 0,242,243
 549 385 549 385 560 406 c 0,244,245
 570 425 570 425 587 427 c 1,246,247
 570 431 570 431 560 449 c 0,248,249
 549 468 549 468 549 496 c 0,250,251
 549 526 549 526 561.5 545 c 128,-1,252
 574 564 574 564 592 564 c 256,213,214
337 427 m 256,253,254
 356 427 356 427 368 407 c 0,255,256
 380 386 380 386 380 358 c 0,257,258
 380 328 380 328 367.5 309 c 128,-1,259
 355 290 355 290 337 290 c 256,260,261
 319 290 319 290 307 310 c 0,262,263
 295 328 295 328 295 358 c 256,264,265
 295 388 295 388 307 407.5 c 128,-1,266
 319 427 319 427 337 427 c 256,253,254
EndSplineSet
Validated: 1
EndChar

StartChar: one
Encoding: 49 49 17
Width: 675
VWidth: 1222
Flags: W
LayerCount: 2
Fore
SplineSet
507 564 m 256,0,1
 525 564 525 564 537 544 c 128,-1,2
 549 524 549 524 549 497 c 0,3,4
 549 467 549 467 537 447 c 128,-1,5
 525 427 525 427 507 427 c 1,6,7
 524 427 524 427 535 408 c 0,8,9
 546 392 546 392 549 365 c 1,10,11
 551 392 551 392 563 408 c 0,12,13
 575 427 575 427 592 427 c 0,14,15
 610 427 610 427 622 407 c 128,-1,16
 634 387 634 387 634 357 c 256,17,18
 634 327 634 327 621.5 308.5 c 128,-1,19
 609 290 609 290 592 290 c 0,20,21
 575 290 575 290 562.5 307.5 c 128,-1,22
 550 325 550 325 549 352 c 1,23,24
 547 325 547 325 535 306 c 0,25,26
 523 290 523 290 507 290 c 0,27,28
 490 290 490 290 478 307.5 c 128,-1,29
 466 325 466 325 464 352 c 1,30,31
 462 325 462 325 451 306 c 0,32,33
 439 290 439 290 422 290 c 0,34,35
 405 290 405 290 393.5 307.5 c 128,-1,36
 382 325 382 325 380 352 c 1,37,38
 378 325 378 325 366 306 c 0,39,40
 354 290 354 290 337 290 c 0,41,42
 320 290 320 290 308.5 307.5 c 128,-1,43
 297 325 297 325 295 352 c 1,44,45
 293 325 293 325 282 306 c 0,46,47
 270 290 270 290 253 290 c 0,48,49
 236 290 236 290 224 307.5 c 128,-1,50
 212 325 212 325 211 352 c 1,51,52
 209 325 209 325 197 306 c 0,53,54
 185 290 185 290 168 290 c 256,55,56
 151 290 151 290 139 307.5 c 128,-1,57
 127 325 127 325 125 352 c 1,58,59
 123 325 123 325 112 306 c 0,60,61
 100 290 100 290 83 290 c 1,62,63
 101 290 101 290 113 269.5 c 128,-1,64
 125 249 125 249 125 219.5 c 128,-1,65
 125 190 125 190 113.5 171.5 c 128,-1,66
 102 153 102 153 83 153 c 256,67,68
 65 153 65 153 53 171.5 c 128,-1,69
 41 190 41 190 41 220 c 0,70,71
 41 247 41 247 52 268 c 0,72,73
 62 287 62 287 79 290 c 1,74,75
 62 295 62 295 52 311 c 0,76,77
 41 330 41 330 41 357 c 128,-1,78
 41 384 41 384 52 406 c 0,79,80
 62 425 62 425 79 427 c 1,81,82
 62 431 62 431 51.5 449.5 c 128,-1,83
 41 468 41 468 41 497.5 c 128,-1,84
 41 527 41 527 53.5 545.5 c 128,-1,85
 66 564 66 564 83 564 c 0,86,87
 101 564 101 564 113 544 c 128,-1,88
 125 524 125 524 125 497 c 128,-1,89
 125 470 125 470 115 449 c 0,90,91
 104 433 104 433 87 427 c 1,92,93
 101 424 101 424 112 408 c 128,-1,94
 123 392 123 392 125 365 c 1,95,96
 127 392 127 392 140 408 c 0,97,98
 152 427 152 427 168 427 c 0,99,100
 185 427 185 427 197 408 c 0,101,102
 208 392 208 392 211 365 c 1,103,104
 213 392 213 392 224 409.5 c 128,-1,105
 235 427 235 427 253 427 c 0,106,107
 270 427 270 427 282 408 c 0,108,109
 293 392 293 392 295 365 c 1,110,111
 297 392 297 392 309 408 c 0,112,113
 321 427 321 427 337 427 c 256,114,115
 354 427 354 427 366 408 c 0,116,117
 377 392 377 392 380 365 c 1,118,119
 382 392 382 392 393.5 409.5 c 128,-1,120
 405 427 405 427 422 427 c 0,121,122
 439 427 439 427 451 408 c 0,123,124
 462 392 462 392 464 365 c 1,125,126
 466 391 466 391 476.5 407.5 c 128,-1,127
 487 424 487 424 502 427 c 1,128,129
 485 431 485 431 474.5 449.5 c 128,-1,130
 464 468 464 468 464 497.5 c 128,-1,131
 464 527 464 527 476.5 545.5 c 128,-1,132
 489 564 489 564 507 564 c 256,0,1
EndSplineSet
Validated: 1
EndChar

StartChar: two
Encoding: 50 50 18
Width: 675
VWidth: 1222
Flags: W
LayerCount: 2
Fore
SplineSet
168 564 m 0,0,1
 186 564 186 564 198.5 544.5 c 128,-1,2
 211 525 211 525 211 496 c 256,3,4
 211 466 211 466 198.5 446.5 c 128,-1,5
 186 427 186 427 168 427 c 0,6,7
 151 427 151 427 139 445.5 c 128,-1,8
 127 464 127 464 125 489 c 1,9,10
 123 466 123 466 113 447 c 0,11,12
 102 429 102 429 87 427 c 1,13,14
 104 424 104 424 114 404 c 128,-1,15
 124 384 124 384 125 358 c 0,16,17
 125 328 125 328 113 310 c 0,18,19
 102 292 102 292 87 290 c 1,20,21
 102 289 102 289 113 270 c 0,22,23
 125 250 125 250 125 220 c 0,24,25
 125 193 125 193 115 174 c 0,26,27
 104 156 104 156 87 151 c 1,28,29
 103 148 103 148 114 128.5 c 128,-1,30
 125 109 125 109 125 83 c 0,31,32
 125 53 125 53 113.5 33.5 c 128,-1,33
 102 14 102 14 83 14 c 256,34,35
 65 14 65 14 53 33.5 c 128,-1,36
 41 53 41 53 41 83 c 0,37,38
 41 110 41 110 52 130 c 0,39,40
 62 149 62 149 79 151 c 1,41,42
 62 155 62 155 51.5 174 c 128,-1,43
 41 193 41 193 41 220 c 256,44,45
 41 247 41 247 52 267 c 0,46,47
 62 286 62 286 79 290 c 1,48,49
 62 294 62 294 52 311 c 0,50,51
 41 330 41 330 41 358 c 0,52,53
 41 385 41 385 52 406 c 0,54,55
 62 425 62 425 79 427 c 1,56,57
 62 431 62 431 52 449 c 0,58,59
 41 468 41 468 41 496 c 0,60,61
 41 523 41 523 52 543 c 0,62,63
 62 562 62 562 79 564 c 1,64,65
 62 568 62 568 51.5 587 c 128,-1,66
 41 606 41 606 41 634 c 0,67,68
 41 664 41 664 53.5 683.5 c 128,-1,69
 66 703 66 703 83 703 c 0,70,71
 101 703 101 703 113 683 c 128,-1,72
 125 663 125 663 125 634 c 0,73,74
 125 607 125 607 114.5 587 c 128,-1,75
 104 567 104 567 87 564 c 1,76,77
 102 561 102 561 113 546 c 0,78,79
 123 530 123 530 125 503 c 1,80,81
 127 530 127 530 139 547 c 128,-1,82
 151 564 151 564 168 564 c 0,0,1
592 564 m 256,83,84
 610 564 610 564 622 544.5 c 128,-1,85
 634 525 634 525 634 496 c 256,86,87
 634 466 634 466 621.5 446.5 c 128,-1,88
 609 427 609 427 592 427 c 1,89,90
 610 427 610 427 622 407 c 0,91,92
 634 386 634 386 634 358 c 0,93,94
 634 328 634 328 621 310 c 0,95,96
 610 292 610 292 595 290 c 1,97,98
 610 289 610 289 621 270 c 0,99,100
 633 250 633 250 634 220 c 0,101,102
 634 190 634 190 621.5 170.5 c 128,-1,103
 609 151 609 151 592 151 c 0,104,105
 574 151 574 151 561.5 171.5 c 128,-1,106
 549 192 549 192 549 220 c 0,107,108
 549 247 549 247 560 267 c 0,109,110
 570 286 570 286 587 290 c 1,111,112
 570 294 570 294 560 311 c 0,113,114
 549 330 549 330 549 358 c 0,115,116
 549 385 549 385 560 406 c 0,117,118
 570 425 570 425 587 427 c 1,119,120
 570 431 570 431 560 449 c 0,121,122
 549 468 549 468 549 496 c 0,123,124
 549 526 549 526 561.5 545 c 128,-1,125
 574 564 574 564 592 564 c 256,83,84
507 151 m 0,126,127
 525 151 525 151 537 131.5 c 128,-1,128
 549 112 549 112 549 83 c 256,129,130
 549 53 549 53 537 33.5 c 128,-1,131
 525 14 525 14 507 14 c 0,132,133
 490 14 490 14 478 31.5 c 128,-1,134
 466 49 466 49 464 76 c 1,135,136
 462 50 462 50 451 31 c 0,137,138
 440 14 440 14 424 14 c 0,139,140
 423 14 423 14 422 14 c 0,141,142
 404 14 404 14 392 33.5 c 128,-1,143
 380 53 380 53 380 83 c 256,144,145
 380 113 380 113 392 132 c 128,-1,146
 404 151 404 151 422 151 c 0,147,148
 439 151 439 151 451 134 c 0,149,150
 462 118 462 118 464 89 c 1,151,152
 466 116 466 116 478 134 c 0,153,154
 490 151 490 151 507 151 c 0,126,127
507 703 m 256,155,156
 525 703 525 703 537 683 c 128,-1,157
 549 663 549 663 549 634 c 0,158,159
 549 604 549 604 537 584 c 128,-1,160
 525 564 525 564 507 564 c 256,161,162
 489 564 489 564 476.5 584.5 c 128,-1,163
 464 605 464 605 464 634 c 256,164,165
 464 664 464 664 476.5 683.5 c 128,-1,166
 489 703 489 703 507 703 c 256,155,156
337 290 m 256,167,168
 355 290 355 290 367.5 269.5 c 128,-1,169
 380 249 380 249 380 220 c 256,170,171
 380 190 380 190 367.5 170.5 c 128,-1,172
 355 151 355 151 337 151 c 256,173,174
 319 151 319 151 307 171.5 c 128,-1,175
 295 192 295 192 295 220 c 0,176,177
 295 250 295 250 307 270 c 128,-1,178
 319 290 319 290 337 290 c 256,167,168
253 427 m 256,179,180
 271 427 271 427 283 407 c 0,181,182
 295 386 295 386 295 358 c 0,183,184
 295 328 295 328 283 309 c 128,-1,185
 271 290 271 290 253 290 c 256,186,187
 235 290 235 290 223 310 c 0,188,189
 211 328 211 328 211 358 c 256,190,191
 211 388 211 388 223 407.5 c 128,-1,192
 235 427 235 427 253 427 c 256,179,180
EndSplineSet
Validated: 1
EndChar

StartChar: three
Encoding: 51 51 19
Width: 675
VWidth: 1222
Flags: W
LayerCount: 2
Fore
SplineSet
507 290 m 0,0,1
 524 290 524 290 535 271 c 0,2,3
 546 255 546 255 549 228 c 1,4,5
 551 254 551 254 561 270.5 c 128,-1,6
 571 287 571 287 587 290 c 1,7,8
 570 294 570 294 560 311 c 0,9,10
 549 330 549 330 549 358 c 0,11,12
 549 385 549 385 560 406 c 0,13,14
 570 425 570 425 587 427 c 1,15,16
 570 431 570 431 560 449 c 0,17,18
 549 468 549 468 549 496 c 0,19,20
 549 523 549 523 560 543 c 0,21,22
 570 562 570 562 587 564 c 1,23,24
 570 568 570 568 560 587 c 0,25,26
 549 606 549 606 549 634 c 0,27,28
 549 664 549 664 561 683.5 c 128,-1,29
 573 703 573 703 592 703 c 256,30,31
 610 703 610 703 622 683 c 128,-1,32
 634 663 634 663 634 634 c 0,33,34
 634 604 634 604 621.5 584 c 128,-1,35
 609 564 609 564 592 564 c 1,36,37
 610 564 610 564 622 544.5 c 128,-1,38
 634 525 634 525 634 496 c 256,39,40
 634 466 634 466 621.5 446.5 c 128,-1,41
 609 427 609 427 592 427 c 1,42,43
 610 427 610 427 622 407 c 0,44,45
 634 386 634 386 634 358 c 0,46,47
 634 331 634 331 622.5 312 c 128,-1,48
 611 293 611 293 595 290 c 1,49,50
 612 287 612 287 623 267.5 c 128,-1,51
 634 248 634 248 634 220 c 0,52,53
 634 193 634 193 622 174 c 0,54,55
 611 156 611 156 596 151 c 1,56,57
 612 148 612 148 623 128.5 c 128,-1,58
 634 109 634 109 634 83 c 0,59,60
 634 53 634 53 621.5 33.5 c 128,-1,61
 609 14 609 14 592 14 c 0,62,63
 574 14 574 14 561.5 33.5 c 128,-1,64
 549 53 549 53 549 83 c 0,65,66
 549 110 549 110 560 130 c 0,67,68
 570 149 570 149 587 151 c 1,69,70
 571 155 571 155 560.5 172.5 c 128,-1,71
 550 190 550 190 549 213 c 1,72,73
 547 187 547 187 535 170 c 0,74,75
 523 152 523 152 507 151 c 0,76,77
 489 151 489 151 476.5 171.5 c 128,-1,78
 464 192 464 192 464 220 c 0,79,80
 464 250 464 250 476.5 270 c 128,-1,81
 489 290 489 290 507 290 c 0,0,1
83 564 m 256,82,83
 101 564 101 564 113 544.5 c 128,-1,84
 125 525 125 525 125 496 c 0,85,86
 125 469 125 469 115 449 c 0,87,88
 104 431 104 431 87 427 c 1,89,90
 103 424 103 424 114 404 c 128,-1,91
 125 384 125 384 125 358 c 256,92,93
 125 331 125 331 114.5 312 c 128,-1,94
 104 293 104 293 87 290 c 1,95,96
 104 287 104 287 114.5 267.5 c 128,-1,97
 125 248 125 248 125 220 c 0,98,99
 125 190 125 190 113.5 170.5 c 128,-1,100
 102 151 102 151 83 151 c 256,101,102
 65 151 65 151 53 171.5 c 128,-1,103
 41 192 41 192 41 220 c 0,104,105
 41 247 41 247 52 267 c 0,106,107
 62 286 62 286 79 290 c 1,108,109
 62 294 62 294 52 311 c 0,110,111
 41 330 41 330 41 358 c 0,112,113
 41 385 41 385 52 406 c 0,114,115
 62 425 62 425 79 427 c 1,116,117
 62 431 62 431 52 449 c 0,118,119
 41 468 41 468 41 496 c 0,120,121
 41 526 41 526 53 545 c 128,-1,122
 65 564 65 564 83 564 c 256,82,83
168 151 m 0,123,124
 185 151 185 151 197 134 c 0,125,126
 208 118 208 118 211 89 c 1,127,128
 213 116 213 116 224 133.5 c 128,-1,129
 235 151 235 151 253 151 c 128,-1,130
 271 151 271 151 283 131.5 c 128,-1,131
 295 112 295 112 295 83 c 256,132,133
 295 53 295 53 283 33.5 c 128,-1,134
 271 14 271 14 253 14 c 0,135,136
 236 14 236 14 224 31.5 c 128,-1,137
 212 49 212 49 211 76 c 1,138,139
 209 50 209 50 197 31 c 0,140,141
 186 14 186 14 170 14 c 0,142,143
 169 14 169 14 168 14 c 0,144,145
 150 14 150 14 137.5 33.5 c 128,-1,146
 125 53 125 53 125 83 c 256,147,148
 125 113 125 113 137.5 132 c 128,-1,149
 150 151 150 151 168 151 c 0,123,124
168 703 m 256,150,151
 186 703 186 703 198.5 683 c 128,-1,152
 211 663 211 663 211 634 c 0,153,154
 211 604 211 604 198.5 584 c 128,-1,155
 186 564 186 564 168 564 c 128,-1,156
 150 564 150 564 137.5 584.5 c 128,-1,157
 125 605 125 605 125 634 c 256,158,159
 125 664 125 664 137.5 683.5 c 128,-1,160
 150 703 150 703 168 703 c 256,150,151
337 290 m 256,161,162
 355 290 355 290 367.5 269.5 c 128,-1,163
 380 249 380 249 380 220 c 256,164,165
 380 190 380 190 367.5 170.5 c 128,-1,166
 355 151 355 151 337 151 c 256,167,168
 319 151 319 151 307 171.5 c 128,-1,169
 295 192 295 192 295 220 c 0,170,171
 295 250 295 250 307 270 c 128,-1,172
 319 290 319 290 337 290 c 256,161,162
422 427 m 256,173,174
 440 427 440 427 452 407 c 0,175,176
 464 386 464 386 464 358 c 0,177,178
 464 328 464 328 452 309 c 128,-1,179
 440 290 440 290 422 290 c 128,-1,180
 404 290 404 290 392 310 c 0,181,182
 380 328 380 328 380 358 c 256,183,184
 380 388 380 388 392 407.5 c 128,-1,185
 404 427 404 427 422 427 c 256,173,174
EndSplineSet
Validated: 1
EndChar

StartChar: four
Encoding: 52 52 20
Width: 675
VWidth: 1222
Flags: W
LayerCount: 2
Fore
SplineSet
168 290 m 256,0,1
 185 290 185 290 197 271 c 0,2,3
 208 255 208 255 211 228 c 1,4,5
 213 254 213 254 222.5 270.5 c 128,-1,6
 232 287 232 287 249 290 c 1,7,8
 232 294 232 294 221 311 c 0,9,10
 211 328 211 328 211 353 c 0,11,12
 211 384 211 384 221 406 c 0,13,14
 231 425 231 425 249 427 c 1,15,16
 232 431 232 431 221 449 c 0,17,18
 211 466 211 466 211 491 c 0,19,20
 211 522 211 522 221 543 c 0,21,22
 231 562 231 562 249 564 c 1,23,24
 232 568 232 568 221.5 587 c 128,-1,25
 211 606 211 606 211 634 c 0,26,27
 211 664 211 664 223 683.5 c 128,-1,28
 235 703 235 703 253 703 c 0,29,30
 270 703 270 703 282 684 c 0,31,32
 293 668 293 668 295 641 c 1,33,34
 297 668 297 668 309 684 c 0,35,36
 321 702 321 702 337 703 c 0,37,38
 355 703 355 703 367.5 683 c 128,-1,39
 380 663 380 663 380 634 c 0,40,41
 380 604 380 604 367.5 584 c 128,-1,42
 355 564 355 564 337 564 c 0,43,44
 320 564 320 564 308.5 582.5 c 128,-1,45
 297 601 297 601 295 626 c 1,46,47
 293 603 293 603 283 586 c 0,48,49
 272 568 272 568 256 564 c 1,50,51
 273 561 273 561 284 542.5 c 128,-1,52
 295 524 295 524 295 496 c 0,53,54
 295 466 295 466 283 446.5 c 128,-1,55
 271 427 271 427 253 427 c 1,56,57
 271 427 271 427 283 407 c 0,58,59
 295 386 295 386 295 358 c 0,60,61
 295 328 295 328 283 310 c 0,62,63
 272 292 272 292 256 290 c 1,64,65
 270 289 270 289 282 271 c 0,66,67
 293 255 293 255 295 228 c 1,68,69
 297 255 297 255 309 271 c 0,70,71
 321 289 321 289 337 290 c 0,72,73
 354 290 354 290 366 271 c 0,74,75
 377 255 377 255 380 228 c 1,76,77
 382 255 382 255 393 271 c 0,78,79
 405 289 405 289 422 290 c 0,80,81
 439 290 439 290 451 271 c 0,82,83
 462 255 462 255 464 228 c 1,84,85
 466 254 466 254 476.5 270.5 c 128,-1,86
 487 287 487 287 502 290 c 1,87,88
 485 294 485 294 475 311 c 0,89,90
 464 330 464 330 464 358 c 0,91,92
 464 388 464 388 476.5 407.5 c 128,-1,93
 489 427 489 427 507 427 c 128,-1,94
 525 427 525 427 537 407 c 0,95,96
 549 386 549 386 549 358 c 0,97,98
 549 331 549 331 538 312 c 128,-1,99
 527 293 527 293 510 290 c 1,100,101
 525 287 525 287 536 270 c 0,102,103
 546 254 546 254 549 228 c 1,104,105
 551 255 551 255 563 271 c 0,106,107
 575 289 575 289 592 290 c 0,108,109
 610 290 610 290 622 269.5 c 128,-1,110
 634 249 634 249 634 220 c 256,111,112
 634 190 634 190 621.5 170.5 c 128,-1,113
 609 151 609 151 592 151 c 128,-1,114
 575 151 575 151 562.5 169.5 c 128,-1,115
 550 188 550 188 549 213 c 1,116,117
 547 187 547 187 535 170 c 0,118,119
 523 152 523 152 507 151 c 0,120,121
 490 151 490 151 478 169.5 c 128,-1,122
 466 188 466 188 464 213 c 1,123,124
 462 187 462 187 451 170 c 0,125,126
 439 152 439 152 422 151 c 0,127,128
 405 151 405 151 393.5 169.5 c 128,-1,129
 382 188 382 188 380 213 c 1,130,131
 378 187 378 187 366 170 c 128,-1,132
 354 153 354 153 337 151 c 0,133,134
 320 151 320 151 308.5 169.5 c 128,-1,135
 297 188 297 188 295 213 c 1,136,137
 293 190 293 190 282.5 172.5 c 128,-1,138
 272 155 272 155 257 151 c 1,139,140
 273 148 273 148 284 128.5 c 128,-1,141
 295 109 295 109 295 83 c 0,142,143
 295 53 295 53 283 33.5 c 128,-1,144
 271 14 271 14 253 14 c 256,145,146
 235 14 235 14 223 33.5 c 128,-1,147
 211 53 211 53 211 83 c 0,148,149
 211 110 211 110 221 130 c 0,150,151
 231 149 231 149 249 151 c 1,152,153
 233 155 233 155 222.5 172.5 c 128,-1,154
 212 190 212 190 211 213 c 1,155,156
 209 187 209 187 197 170 c 128,-1,157
 185 153 185 153 168 151 c 0,158,159
 151 151 151 151 139 169.5 c 128,-1,160
 127 188 127 188 125 213 c 1,161,162
 123 187 123 187 112 170 c 0,163,164
 100 152 100 152 83 151 c 0,165,166
 65 151 65 151 53 171.5 c 128,-1,167
 41 192 41 192 41 220 c 0,168,169
 41 250 41 250 53.5 270 c 128,-1,170
 66 290 66 290 83 290 c 128,-1,171
 100 290 100 290 112 271 c 0,172,173
 123 255 123 255 125 228 c 1,174,175
 127 255 127 255 140 271 c 0,176,177
 151 290 151 290 168 290 c 256,0,1
422 564 m 256,178,179
 440 564 440 564 452 544.5 c 128,-1,180
 464 525 464 525 464 496 c 256,181,182
 464 466 464 466 452 446.5 c 128,-1,183
 440 427 440 427 422 427 c 128,-1,184
 404 427 404 427 392 447.5 c 128,-1,185
 380 468 380 468 380 496 c 0,186,187
 380 526 380 526 392 545 c 128,-1,188
 404 564 404 564 422 564 c 256,178,179
EndSplineSet
Validated: 1
EndChar

StartChar: five
Encoding: 53 53 21
Width: 675
VWidth: 1222
Flags: W
LayerCount: 2
Fore
SplineSet
592 703 m 0,0,1
 610 703 610 703 622 683 c 128,-1,2
 634 663 634 663 634 634 c 0,3,4
 634 607 634 607 622.5 587 c 128,-1,5
 611 567 611 567 595 564 c 1,6,7
 612 561 612 561 623 542.5 c 128,-1,8
 634 524 634 524 634 496 c 0,9,10
 634 466 634 466 621.5 446.5 c 128,-1,11
 609 427 609 427 592 427 c 1,12,13
 610 427 610 427 622 407 c 0,14,15
 634 386 634 386 634 358 c 0,16,17
 634 331 634 331 622 311 c 0,18,19
 611 293 611 293 596 290 c 1,20,21
 612 287 612 287 623 267.5 c 128,-1,22
 634 248 634 248 634 220 c 0,23,24
 634 190 634 190 621.5 170.5 c 128,-1,25
 609 151 609 151 592 151 c 1,26,27
 610 151 610 151 622 131.5 c 128,-1,28
 634 112 634 112 634 83 c 256,29,30
 634 53 634 53 621.5 33.5 c 128,-1,31
 609 14 609 14 592 14 c 0,32,33
 574 14 574 14 561.5 33.5 c 128,-1,34
 549 53 549 53 549 83 c 0,35,36
 549 110 549 110 560 130 c 0,37,38
 570 149 570 149 587 151 c 1,39,40
 570 155 570 155 560 174 c 0,41,42
 549 193 549 193 549 220 c 128,-1,43
 549 247 549 247 560 267 c 0,44,45
 570 286 570 286 587 290 c 1,46,47
 570 294 570 294 560 311 c 0,48,49
 549 330 549 330 549 358 c 0,50,51
 549 385 549 385 560 406 c 0,52,53
 570 425 570 425 587 427 c 1,54,55
 570 431 570 431 560 449 c 0,56,57
 549 468 549 468 549 496 c 0,58,59
 549 523 549 523 560 543 c 0,60,61
 570 562 570 562 587 564 c 1,62,63
 571 568 571 568 560.5 585.5 c 128,-1,64
 550 603 550 603 549 626 c 1,65,66
 547 600 547 600 535 583 c 0,67,68
 523 565 523 565 507 564 c 0,69,70
 490 564 490 564 478 582.5 c 128,-1,71
 466 601 466 601 464 626 c 1,72,73
 462 603 462 603 451 585.5 c 128,-1,74
 440 568 440 568 426 564 c 1,75,76
 442 561 442 561 453 542.5 c 128,-1,77
 464 524 464 524 464 496 c 0,78,79
 464 466 464 466 452 447 c 0,80,81
 441 429 441 429 426 427 c 1,82,83
 441 426 441 426 452 408 c 0,84,85
 464 388 464 388 464 358 c 256,86,87
 464 328 464 328 452 309 c 128,-1,88
 440 290 440 290 422 290 c 1,89,90
 440 290 440 290 452 269.5 c 128,-1,91
 464 249 464 249 464 220 c 256,92,93
 464 190 464 190 452 170.5 c 128,-1,94
 440 151 440 151 422 151 c 128,-1,95
 404 151 404 151 392 171.5 c 128,-1,96
 380 192 380 192 380 220 c 0,97,98
 380 247 380 247 391 267 c 0,99,100
 401 286 401 286 418 290 c 1,101,102
 401 294 401 294 391 311 c 0,103,104
 380 330 380 330 380 358 c 0,105,106
 380 385 380 385 391 406 c 0,107,108
 401 425 401 425 418 427 c 1,109,110
 401 431 401 431 391 449 c 0,111,112
 380 468 380 468 380 496 c 0,113,114
 380 523 380 523 391 543 c 0,115,116
 401 562 401 562 418 564 c 1,117,118
 401 568 401 568 390.5 587 c 128,-1,119
 380 606 380 606 380 634 c 0,120,121
 380 664 380 664 392 683.5 c 128,-1,122
 404 703 404 703 422 703 c 0,123,124
 439 703 439 703 451 684 c 0,125,126
 462 668 462 668 464 641 c 1,127,128
 466 668 466 668 478 684 c 0,129,130
 490 702 490 702 507 703 c 0,131,132
 524 703 524 703 535 684 c 0,133,134
 546 668 546 668 549 641 c 1,135,136
 551 668 551 668 563 684 c 0,137,138
 575 703 575 703 592 703 c 0,0,1
83 564 m 256,139,140
 101 564 101 564 113 544.5 c 128,-1,141
 125 525 125 525 125 496 c 0,142,143
 125 469 125 469 115 449 c 0,144,145
 104 431 104 431 87 427 c 1,146,147
 103 424 103 424 114 404 c 128,-1,148
 125 384 125 384 125 358 c 256,149,150
 125 331 125 331 114.5 312 c 128,-1,151
 104 293 104 293 87 290 c 1,152,153
 104 287 104 287 114.5 267.5 c 128,-1,154
 125 248 125 248 125 220 c 0,155,156
 125 190 125 190 113.5 170.5 c 128,-1,157
 102 151 102 151 83 151 c 256,158,159
 65 151 65 151 53 171.5 c 128,-1,160
 41 192 41 192 41 220 c 0,161,162
 41 247 41 247 52 267 c 0,163,164
 62 286 62 286 79 290 c 1,165,166
 62 294 62 294 52 311 c 0,167,168
 41 330 41 330 41 358 c 0,169,170
 41 385 41 385 52 406 c 0,171,172
 62 425 62 425 79 427 c 1,173,174
 62 431 62 431 52 449 c 0,175,176
 41 468 41 468 41 496 c 0,177,178
 41 526 41 526 53 545 c 128,-1,179
 65 564 65 564 83 564 c 256,139,140
253 151 m 256,180,181
 270 151 270 151 282 134 c 0,182,183
 293 118 293 118 295 89 c 1,184,185
 297 116 297 116 309 134 c 0,186,187
 320 151 320 151 335 151 c 0,188,189
 336 151 336 151 337 151 c 0,190,191
 355 151 355 151 367.5 131.5 c 128,-1,192
 380 112 380 112 380 83 c 256,193,194
 380 53 380 53 367.5 33.5 c 128,-1,195
 355 14 355 14 337 14 c 0,196,197
 320 14 320 14 308.5 31.5 c 128,-1,198
 297 49 297 49 295 76 c 1,199,200
 293 50 293 50 282 31 c 0,201,202
 271 14 271 14 255 14 c 0,203,204
 254 14 254 14 253 14 c 0,205,206
 236 14 236 14 224 31.5 c 128,-1,207
 212 49 212 49 211 76 c 1,208,209
 209 50 209 50 197 31 c 0,210,211
 186 14 186 14 170 14 c 0,212,213
 169 14 169 14 168 14 c 0,214,215
 150 14 150 14 137.5 33.5 c 128,-1,216
 125 53 125 53 125 83 c 256,217,218
 125 113 125 113 137.5 132 c 128,-1,219
 150 151 150 151 168 151 c 0,220,221
 185 151 185 151 197 134 c 0,222,223
 208 118 208 118 211 89 c 1,224,225
 213 116 213 116 224 134 c 0,226,227
 236 151 236 151 253 151 c 256,180,181
168 703 m 256,228,229
 186 703 186 703 198.5 683 c 128,-1,230
 211 663 211 663 211 634 c 0,231,232
 211 604 211 604 198.5 584 c 128,-1,233
 186 564 186 564 168 564 c 128,-1,234
 150 564 150 564 137.5 584.5 c 128,-1,235
 125 605 125 605 125 634 c 256,236,237
 125 664 125 664 137.5 683.5 c 128,-1,238
 150 703 150 703 168 703 c 256,228,229
EndSplineSet
Validated: 1
EndChar

StartChar: six
Encoding: 54 54 22
Width: 675
VWidth: 1222
Flags: W
LayerCount: 2
Fore
SplineSet
422 703 m 0,0,1
 440 703 440 703 452 683 c 128,-1,2
 464 663 464 663 464 634 c 0,3,4
 464 604 464 604 452 584 c 128,-1,5
 440 564 440 564 422 564 c 0,6,7
 405 564 405 564 393.5 582.5 c 128,-1,8
 382 601 382 601 380 626 c 1,9,10
 378 600 378 600 366 583 c 128,-1,11
 354 566 354 566 337 564 c 1,12,13
 355 564 355 564 367.5 544.5 c 128,-1,14
 380 525 380 525 380 496 c 0,15,16
 380 469 380 469 368 449 c 0,17,18
 357 431 357 431 342 427 c 1,19,20
 358 424 358 424 369 404 c 128,-1,21
 380 384 380 384 380 358 c 0,22,23
 380 328 380 328 367 310 c 0,24,25
 356 292 356 292 340 290 c 1,26,27
 355 289 355 289 367 270 c 0,28,29
 379 250 379 250 380 220 c 0,30,31
 380 190 380 190 367.5 170.5 c 128,-1,32
 355 151 355 151 337 151 c 256,33,34
 319 151 319 151 307 171.5 c 128,-1,35
 295 192 295 192 295 220 c 0,36,37
 295 247 295 247 307 267 c 0,38,39
 317 286 317 286 333 290 c 1,40,41
 316 294 316 294 307 311 c 0,42,43
 296 330 296 330 295 358 c 0,44,45
 295 385 295 385 307 406 c 0,46,47
 317 425 317 425 333 427 c 1,48,49
 316 431 316 431 307 449 c 0,50,51
 296 468 296 468 295 496 c 0,52,53
 295 523 295 523 307 543 c 0,54,55
 317 562 317 562 333 564 c 1,56,57
 317 568 317 568 307 585.5 c 128,-1,58
 297 603 297 603 295 626 c 1,59,60
 293 600 293 600 282 583 c 0,61,62
 270 565 270 565 253 564 c 0,63,64
 236 564 236 564 224 582.5 c 128,-1,65
 212 601 212 601 211 626 c 1,66,67
 209 600 209 600 197 583 c 128,-1,68
 185 566 185 566 168 564 c 0,69,70
 150 564 150 564 137.5 584.5 c 128,-1,71
 125 605 125 605 125 634 c 256,72,73
 125 664 125 664 137.5 683.5 c 128,-1,74
 150 703 150 703 168 703 c 0,75,76
 185 703 185 703 197 684 c 0,77,78
 208 668 208 668 211 641 c 1,79,80
 213 668 213 668 224 684 c 0,81,82
 236 702 236 702 253 703 c 0,83,84
 270 703 270 703 282 684 c 0,85,86
 293 668 293 668 295 641 c 1,87,88
 297 668 297 668 309 684 c 0,89,90
 321 702 321 702 337 703 c 0,91,92
 354 703 354 703 366 684 c 0,93,94
 377 668 377 668 380 641 c 1,95,96
 382 668 382 668 393 684 c 0,97,98
 405 703 405 703 422 703 c 0,0,1
83 564 m 256,99,100
 101 564 101 564 113 544.5 c 128,-1,101
 125 525 125 525 125 496 c 0,102,103
 125 469 125 469 115 449 c 0,104,105
 104 431 104 431 87 427 c 1,106,107
 103 424 103 424 114 404 c 128,-1,108
 125 384 125 384 125 358 c 256,109,110
 125 331 125 331 115 311 c 0,111,112
 104 293 104 293 87 290 c 1,113,114
 103 287 103 287 114 267.5 c 128,-1,115
 125 248 125 248 125 220 c 0,116,117
 125 190 125 190 113.5 170.5 c 128,-1,118
 102 151 102 151 83 151 c 256,119,120
 65 151 65 151 53 171.5 c 128,-1,121
 41 192 41 192 41 220 c 0,122,123
 41 247 41 247 52 267 c 0,124,125
 62 286 62 286 79 290 c 1,126,127
 62 294 62 294 52 311 c 0,128,129
 41 330 41 330 41 358 c 0,130,131
 41 385 41 385 52 406 c 0,132,133
 62 425 62 425 79 427 c 1,134,135
 62 431 62 431 52 449 c 0,136,137
 41 468 41 468 41 496 c 0,138,139
 41 526 41 526 53 545 c 128,-1,140
 65 564 65 564 83 564 c 256,99,100
592 427 m 256,141,142
 610 427 610 427 622 407 c 0,143,144
 634 386 634 386 634 358 c 0,145,146
 634 331 634 331 622 311 c 0,147,148
 611 293 611 293 596 290 c 1,149,150
 612 287 612 287 623 267.5 c 128,-1,151
 634 248 634 248 634 220 c 0,152,153
 634 190 634 190 621.5 170.5 c 128,-1,154
 609 151 609 151 592 151 c 0,155,156
 574 151 574 151 561.5 171.5 c 128,-1,157
 549 192 549 192 549 220 c 0,158,159
 549 247 549 247 560 267 c 0,160,161
 570 286 570 286 587 290 c 1,162,163
 570 294 570 294 560 311 c 0,164,165
 549 330 549 330 549 358 c 0,166,167
 549 388 549 388 561.5 407.5 c 128,-1,168
 574 427 574 427 592 427 c 256,141,142
168 151 m 0,169,170
 185 151 185 151 197 134 c 0,171,172
 208 118 208 118 211 89 c 1,173,174
 213 116 213 116 224 133.5 c 128,-1,175
 235 151 235 151 253 151 c 128,-1,176
 271 151 271 151 283 131.5 c 128,-1,177
 295 112 295 112 295 83 c 256,178,179
 295 53 295 53 283 33.5 c 128,-1,180
 271 14 271 14 253 14 c 0,181,182
 236 14 236 14 224 31.5 c 128,-1,183
 212 49 212 49 211 76 c 1,184,185
 209 50 209 50 197 31 c 0,186,187
 186 14 186 14 170 14 c 0,188,189
 169 14 169 14 168 14 c 0,190,191
 150 14 150 14 137.5 33.5 c 128,-1,192
 125 53 125 53 125 83 c 256,193,194
 125 113 125 113 137.5 132 c 128,-1,195
 150 151 150 151 168 151 c 0,169,170
507 564 m 256,196,197
 525 564 525 564 537 544.5 c 128,-1,198
 549 525 549 525 549 496 c 256,199,200
 549 466 549 466 537 446.5 c 128,-1,201
 525 427 525 427 507 427 c 256,202,203
 489 427 489 427 476.5 447.5 c 128,-1,204
 464 468 464 468 464 496 c 0,205,206
 464 526 464 526 476.5 545 c 128,-1,207
 489 564 489 564 507 564 c 256,196,197
EndSplineSet
Validated: 1
EndChar

StartChar: seven
Encoding: 55 55 23
Width: 675
VWidth: 1222
Flags: W
LayerCount: 2
Fore
SplineSet
507 151 m 0,0,1
 524 151 524 151 535 134 c 0,2,3
 546 118 546 118 549 89 c 1,4,5
 551 115 551 115 561 132 c 128,-1,6
 571 149 571 149 587 151 c 1,7,8
 570 155 570 155 560 174 c 0,9,10
 549 193 549 193 549 220 c 128,-1,11
 549 247 549 247 560 267 c 0,12,13
 570 286 570 286 587 290 c 1,14,15
 570 294 570 294 560 311 c 0,16,17
 549 330 549 330 549 358 c 0,18,19
 549 385 549 385 560 406 c 0,20,21
 570 425 570 425 587 427 c 1,22,23
 570 431 570 431 560 449 c 0,24,25
 549 468 549 468 549 496 c 0,26,27
 549 523 549 523 560 543 c 0,28,29
 570 562 570 562 587 564 c 1,30,31
 570 568 570 568 560 587 c 0,32,33
 549 606 549 606 549 634 c 0,34,35
 549 664 549 664 561 683.5 c 128,-1,36
 573 703 573 703 592 703 c 256,37,38
 610 703 610 703 622 683 c 128,-1,39
 634 663 634 663 634 634 c 0,40,41
 634 607 634 607 622.5 587 c 128,-1,42
 611 567 611 567 595 564 c 1,43,44
 612 561 612 561 623 542.5 c 128,-1,45
 634 524 634 524 634 496 c 0,46,47
 634 469 634 469 622 449 c 0,48,49
 611 431 611 431 596 427 c 1,50,51
 612 424 612 424 623 404 c 128,-1,52
 634 384 634 384 634 358 c 256,53,54
 634 331 634 331 622.5 312 c 128,-1,55
 611 293 611 293 595 290 c 1,56,57
 612 287 612 287 623 267.5 c 128,-1,58
 634 248 634 248 634 220 c 0,59,60
 634 190 634 190 621.5 170.5 c 128,-1,61
 609 151 609 151 592 151 c 1,62,63
 610 151 610 151 622 131.5 c 128,-1,64
 634 112 634 112 634 83 c 256,65,66
 634 53 634 53 621.5 33.5 c 128,-1,67
 609 14 609 14 592 14 c 128,-1,68
 575 14 575 14 562.5 31.5 c 128,-1,69
 550 49 550 49 549 76 c 1,70,71
 547 50 547 50 535 31 c 0,72,73
 524 14 524 14 509 14 c 0,74,75
 508 14 508 14 507 14 c 0,76,77
 489 14 489 14 476.5 33.5 c 128,-1,78
 464 53 464 53 464 83 c 256,79,80
 464 113 464 113 476.5 132 c 128,-1,81
 489 151 489 151 507 151 c 0,0,1
253 427 m 256,82,83
 270 427 270 427 282 410 c 0,84,85
 293 394 293 394 295 365 c 1,86,87
 297 392 297 392 309 410 c 0,88,89
 320 427 320 427 335 427 c 0,90,91
 336 427 336 427 337 427 c 0,92,93
 356 427 356 427 368 407 c 0,94,95
 380 386 380 386 380 358 c 0,96,97
 380 328 380 328 367.5 309 c 128,-1,98
 355 290 355 290 337 290 c 0,99,100
 320 290 320 290 308.5 307.5 c 128,-1,101
 297 325 297 325 295 352 c 1,102,103
 293 326 293 326 282 307 c 0,104,105
 271 290 271 290 255 290 c 0,106,107
 254 290 254 290 253 290 c 0,108,109
 236 290 236 290 224 307.5 c 128,-1,110
 212 325 212 325 211 352 c 1,111,112
 209 326 209 326 197 307 c 0,113,114
 186 290 186 290 170 290 c 0,115,116
 169 290 169 290 168 290 c 256,117,118
 151 290 151 290 139 307.5 c 128,-1,119
 127 325 127 325 125 352 c 1,120,121
 123 326 123 326 112 307 c 0,122,123
 101 290 101 290 85 290 c 0,124,125
 84 290 84 290 83 290 c 0,126,127
 65 290 65 290 53 310 c 0,128,129
 41 328 41 328 41 358 c 256,130,131
 41 388 41 388 53.5 407.5 c 128,-1,132
 66 427 66 427 83 427 c 128,-1,133
 100 427 100 427 112 410 c 0,134,135
 123 394 123 394 125 365 c 1,136,137
 127 392 127 392 140 410 c 0,138,139
 151 427 151 427 166 427 c 0,140,141
 167 427 167 427 168 427 c 0,142,143
 185 427 185 427 197 410 c 0,144,145
 208 394 208 394 211 365 c 1,146,147
 213 392 213 392 224 410 c 0,148,149
 236 427 236 427 253 427 c 256,82,83
422 290 m 256,150,151
 440 290 440 290 452 269.5 c 128,-1,152
 464 249 464 249 464 220 c 256,153,154
 464 190 464 190 452 170.5 c 128,-1,155
 440 151 440 151 422 151 c 128,-1,156
 404 151 404 151 392 171.5 c 128,-1,157
 380 192 380 192 380 220 c 0,158,159
 380 250 380 250 392 270 c 128,-1,160
 404 290 404 290 422 290 c 256,150,151
EndSplineSet
Validated: 1
EndChar

StartChar: eight
Encoding: 56 56 24
Width: 675
VWidth: 1222
Flags: W
LayerCount: 2
Fore
SplineSet
592 564 m 256,0,1
 610 564 610 564 622 544.5 c 128,-1,2
 634 525 634 525 634 496 c 256,3,4
 634 466 634 466 621 447 c 0,5,6
 610 429 610 429 595 427 c 1,7,8
 610 426 610 426 621 408 c 0,9,10
 633 388 633 388 634 358 c 0,11,12
 634 328 634 328 621.5 309 c 128,-1,13
 609 290 609 290 592 290 c 1,14,15
 610 290 610 290 622 269.5 c 128,-1,16
 634 249 634 249 634 220 c 256,17,18
 634 190 634 190 621.5 170.5 c 128,-1,19
 609 151 609 151 592 151 c 0,20,21
 574 151 574 151 561.5 171.5 c 128,-1,22
 549 192 549 192 549 220 c 0,23,24
 549 247 549 247 560 267 c 0,25,26
 570 286 570 286 587 290 c 1,27,28
 570 294 570 294 560 311 c 0,29,30
 549 330 549 330 549 358 c 0,31,32
 549 385 549 385 560 406 c 0,33,34
 570 425 570 425 587 427 c 1,35,36
 570 431 570 431 560 449 c 0,37,38
 549 468 549 468 549 496 c 0,39,40
 549 526 549 526 561.5 545 c 128,-1,41
 574 564 574 564 592 564 c 256,0,1
337 564 m 256,42,43
 355 564 355 564 367.5 544.5 c 128,-1,44
 380 525 380 525 380 496 c 256,45,46
 380 466 380 466 367.5 446.5 c 128,-1,47
 355 427 355 427 337 427 c 1,48,49
 356 427 356 427 368 407 c 0,50,51
 380 386 380 386 380 358 c 0,52,53
 380 328 380 328 367 310 c 0,54,55
 356 292 356 292 340 290 c 1,56,57
 355 289 355 289 367 270 c 0,58,59
 379 250 379 250 380 220 c 0,60,61
 380 190 380 190 367.5 170.5 c 128,-1,62
 355 151 355 151 337 151 c 256,63,64
 319 151 319 151 307 171.5 c 128,-1,65
 295 192 295 192 295 220 c 0,66,67
 295 247 295 247 307 267 c 0,68,69
 317 286 317 286 333 290 c 1,70,71
 316 294 316 294 307 311 c 0,72,73
 296 330 296 330 295 358 c 0,74,75
 295 385 295 385 307 406 c 0,76,77
 317 425 317 425 333 427 c 1,78,79
 316 431 316 431 307 449 c 0,80,81
 296 468 296 468 295 496 c 0,82,83
 295 526 295 526 307 545 c 128,-1,84
 319 564 319 564 337 564 c 256,42,43
83 564 m 256,85,86
 101 564 101 564 113 544.5 c 128,-1,87
 125 525 125 525 125 496 c 0,88,89
 125 469 125 469 114.5 449.5 c 128,-1,90
 104 430 104 430 87 427 c 1,91,92
 104 424 104 424 114 404 c 128,-1,93
 124 384 124 384 125 358 c 0,94,95
 125 328 125 328 113.5 309 c 128,-1,96
 102 290 102 290 83 290 c 1,97,98
 101 290 101 290 113 269.5 c 128,-1,99
 125 249 125 249 125 220 c 256,100,101
 125 190 125 190 113.5 170.5 c 128,-1,102
 102 151 102 151 83 151 c 256,103,104
 65 151 65 151 53 171.5 c 128,-1,105
 41 192 41 192 41 220 c 0,106,107
 41 247 41 247 52 267 c 0,108,109
 62 286 62 286 79 290 c 1,110,111
 62 294 62 294 52 311 c 0,112,113
 41 330 41 330 41 358 c 0,114,115
 41 385 41 385 52 406 c 0,116,117
 62 425 62 425 79 427 c 1,118,119
 62 431 62 431 52 449 c 0,120,121
 41 468 41 468 41 496 c 0,122,123
 41 526 41 526 53 545 c 128,-1,124
 65 564 65 564 83 564 c 256,85,86
507 703 m 0,125,126
 525 703 525 703 537 683 c 128,-1,127
 549 663 549 663 549 634 c 0,128,129
 549 604 549 604 537 584 c 128,-1,130
 525 564 525 564 507 564 c 0,131,132
 490 564 490 564 478 582.5 c 128,-1,133
 466 601 466 601 464 626 c 1,134,135
 462 600 462 600 451 583 c 0,136,137
 439 565 439 565 422 564 c 0,138,139
 404 564 404 564 392 584.5 c 128,-1,140
 380 605 380 605 380 634 c 256,141,142
 380 664 380 664 392 683.5 c 128,-1,143
 404 703 404 703 422 703 c 0,144,145
 439 703 439 703 451 684 c 0,146,147
 462 668 462 668 464 641 c 1,148,149
 466 668 466 668 478 684 c 0,150,151
 490 703 490 703 507 703 c 0,125,126
168 703 m 0,152,153
 185 703 185 703 197 684 c 0,154,155
 208 668 208 668 211 641 c 1,156,157
 213 668 213 668 224 684 c 0,158,159
 236 702 236 702 253 703 c 0,160,161
 271 703 271 703 283 683 c 128,-1,162
 295 663 295 663 295 634 c 0,163,164
 295 604 295 604 283 584 c 128,-1,165
 271 564 271 564 253 564 c 0,166,167
 236 564 236 564 224 582.5 c 128,-1,168
 212 601 212 601 211 626 c 1,169,170
 209 600 209 600 197 583 c 128,-1,171
 185 566 185 566 168 564 c 0,172,173
 150 564 150 564 137.5 584.5 c 128,-1,174
 125 605 125 605 125 634 c 256,175,176
 125 664 125 664 137.5 683.5 c 128,-1,177
 150 703 150 703 168 703 c 0,152,153
507 151 m 0,178,179
 525 151 525 151 537 131.5 c 128,-1,180
 549 112 549 112 549 83 c 256,181,182
 549 53 549 53 537 33.5 c 128,-1,183
 525 14 525 14 507 14 c 0,184,185
 490 14 490 14 478 31.5 c 128,-1,186
 466 49 466 49 464 76 c 1,187,188
 462 50 462 50 451 31 c 0,189,190
 440 14 440 14 424 14 c 0,191,192
 423 14 423 14 422 14 c 0,193,194
 404 14 404 14 392 33.5 c 128,-1,195
 380 53 380 53 380 83 c 256,196,197
 380 113 380 113 392 132 c 128,-1,198
 404 151 404 151 422 151 c 0,199,200
 439 151 439 151 451 134 c 0,201,202
 462 118 462 118 464 89 c 1,203,204
 466 116 466 116 478 134 c 0,205,206
 490 151 490 151 507 151 c 0,178,179
168 151 m 0,207,208
 185 151 185 151 197 134 c 0,209,210
 208 118 208 118 211 89 c 1,211,212
 213 116 213 116 224 133.5 c 128,-1,213
 235 151 235 151 253 151 c 128,-1,214
 271 151 271 151 283 131.5 c 128,-1,215
 295 112 295 112 295 83 c 256,216,217
 295 53 295 53 283 33.5 c 128,-1,218
 271 14 271 14 253 14 c 0,219,220
 236 14 236 14 224 31.5 c 128,-1,221
 212 49 212 49 211 76 c 1,222,223
 209 50 209 50 197 31 c 0,224,225
 186 14 186 14 170 14 c 0,226,227
 169 14 169 14 168 14 c 0,228,229
 150 14 150 14 137.5 33.5 c 128,-1,230
 125 53 125 53 125 83 c 256,231,232
 125 113 125 113 137.5 132 c 128,-1,233
 150 151 150 151 168 151 c 0,207,208
EndSplineSet
Validated: 1
EndChar

StartChar: nine
Encoding: 57 57 25
Width: 675
VWidth: 1222
Flags: W
LayerCount: 2
Fore
SplineSet
253 151 m 0,0,1
 270 151 270 151 282 134 c 0,2,3
 293 118 293 118 295 89 c 1,4,5
 297 115 297 115 307 132 c 128,-1,6
 317 149 317 149 333 151 c 1,7,8
 316 155 316 155 307 174 c 0,9,10
 296 193 296 193 295 220 c 0,11,12
 295 247 295 247 307 267 c 0,13,14
 317 286 317 286 333 290 c 1,15,16
 316 294 316 294 307 311 c 0,17,18
 296 330 296 330 295 358 c 0,19,20
 295 385 295 385 307 406 c 0,21,22
 317 425 317 425 333 427 c 1,23,24
 316 431 316 431 307 449 c 0,25,26
 296 468 296 468 295 496 c 0,27,28
 295 526 295 526 307.5 545 c 128,-1,29
 320 564 320 564 337 564 c 0,30,31
 355 564 355 564 367.5 544.5 c 128,-1,32
 380 525 380 525 380 496 c 256,33,34
 380 466 380 466 367 447 c 0,35,36
 356 429 356 429 340 427 c 1,37,38
 355 426 355 426 367 408 c 0,39,40
 379 388 379 388 380 358 c 0,41,42
 380 328 380 328 367.5 309 c 128,-1,43
 355 290 355 290 337 290 c 1,44,45
 355 290 355 290 367.5 269.5 c 128,-1,46
 380 249 380 249 380 220 c 256,47,48
 380 190 380 190 367 173 c 0,49,50
 356 155 356 155 340 151 c 1,51,52
 354 150 354 150 366 134 c 0,53,54
 377 118 377 118 380 89 c 1,55,56
 382 116 382 116 393.5 133.5 c 128,-1,57
 405 151 405 151 422 151 c 128,-1,58
 439 151 439 151 451 134 c 0,59,60
 462 118 462 118 464 89 c 1,61,62
 466 116 466 116 477.5 133.5 c 128,-1,63
 489 151 489 151 507 151 c 128,-1,64
 525 151 525 151 537 131.5 c 128,-1,65
 549 112 549 112 549 83 c 256,66,67
 549 53 549 53 537 33.5 c 128,-1,68
 525 14 525 14 507 14 c 0,69,70
 490 14 490 14 478 31.5 c 128,-1,71
 466 49 466 49 464 76 c 1,72,73
 462 50 462 50 451 31 c 0,74,75
 440 14 440 14 424 14 c 0,76,77
 423 14 423 14 422 14 c 0,78,79
 405 14 405 14 393.5 31.5 c 128,-1,80
 382 49 382 49 380 76 c 1,81,82
 378 50 378 50 366 31 c 0,83,84
 355 14 355 14 339 14 c 0,85,86
 338 14 338 14 337 14 c 0,87,88
 320 14 320 14 308.5 31.5 c 128,-1,89
 297 49 297 49 295 76 c 1,90,91
 293 50 293 50 282 31 c 0,92,93
 271 14 271 14 255 14 c 0,94,95
 254 14 254 14 253 14 c 0,96,97
 235 14 235 14 223 33.5 c 128,-1,98
 211 53 211 53 211 83 c 256,99,100
 211 113 211 113 223 132 c 128,-1,101
 235 151 235 151 253 151 c 0,0,1
592 564 m 256,102,103
 610 564 610 564 622 544.5 c 128,-1,104
 634 525 634 525 634 496 c 0,105,106
 634 469 634 469 622 449 c 0,107,108
 611 431 611 431 596 427 c 1,109,110
 612 424 612 424 623 404 c 128,-1,111
 634 384 634 384 634 358 c 0,112,113
 634 328 634 328 621.5 309 c 128,-1,114
 609 290 609 290 592 290 c 1,115,116
 610 290 610 290 622 269.5 c 128,-1,117
 634 249 634 249 634 220 c 256,118,119
 634 190 634 190 621.5 170.5 c 128,-1,120
 609 151 609 151 592 151 c 0,121,122
 574 151 574 151 561.5 171.5 c 128,-1,123
 549 192 549 192 549 220 c 0,124,125
 549 247 549 247 560 267 c 0,126,127
 570 286 570 286 587 290 c 1,128,129
 570 294 570 294 560 311 c 0,130,131
 549 330 549 330 549 358 c 0,132,133
 549 385 549 385 560 406 c 0,134,135
 570 425 570 425 587 427 c 1,136,137
 570 431 570 431 560 449 c 0,138,139
 549 468 549 468 549 496 c 0,140,141
 549 526 549 526 561.5 545 c 128,-1,142
 574 564 574 564 592 564 c 256,102,103
83 564 m 256,143,144
 101 564 101 564 113 544.5 c 128,-1,145
 125 525 125 525 125 496 c 0,146,147
 125 469 125 469 115 449 c 0,148,149
 104 431 104 431 87 427 c 1,150,151
 103 424 103 424 114 404 c 128,-1,152
 125 384 125 384 125 358 c 0,153,154
 125 328 125 328 113.5 309 c 128,-1,155
 102 290 102 290 83 290 c 256,156,157
 65 290 65 290 53 310 c 0,158,159
 41 328 41 328 41 358 c 0,160,161
 41 385 41 385 52 406 c 0,162,163
 62 425 62 425 79 427 c 1,164,165
 62 431 62 431 52 449 c 0,166,167
 41 468 41 468 41 496 c 0,168,169
 41 526 41 526 53 545 c 128,-1,170
 65 564 65 564 83 564 c 256,143,144
507 703 m 0,171,172
 525 703 525 703 537 683 c 128,-1,173
 549 663 549 663 549 634 c 0,174,175
 549 604 549 604 537 584 c 128,-1,176
 525 564 525 564 507 564 c 0,177,178
 490 564 490 564 478 582.5 c 128,-1,179
 466 601 466 601 464 626 c 1,180,181
 462 600 462 600 451 583 c 0,182,183
 439 565 439 565 422 564 c 0,184,185
 404 564 404 564 392 584.5 c 128,-1,186
 380 605 380 605 380 634 c 256,187,188
 380 664 380 664 392 683.5 c 128,-1,189
 404 703 404 703 422 703 c 0,190,191
 439 703 439 703 451 684 c 0,192,193
 462 668 462 668 464 641 c 1,194,195
 466 668 466 668 478 684 c 0,196,197
 490 703 490 703 507 703 c 0,171,172
168 290 m 256,198,199
 186 290 186 290 198.5 269.5 c 128,-1,200
 211 249 211 249 211 220 c 256,201,202
 211 190 211 190 198.5 170.5 c 128,-1,203
 186 151 186 151 168 151 c 128,-1,204
 150 151 150 151 137.5 171.5 c 128,-1,205
 125 192 125 192 125 220 c 0,206,207
 125 250 125 250 137.5 270 c 128,-1,208
 150 290 150 290 168 290 c 256,198,199
EndSplineSet
Validated: 1
EndChar

StartChar: colon
Encoding: 58 58 26
Width: 675
VWidth: 1222
Flags: W
LayerCount: 2
Fore
SplineSet
507 497 m 0,0,1
 525 497 525 497 537 476.5 c 128,-1,2
 549 456 549 456 549 427 c 0,3,4
 549 400 549 400 538 381 c 0,5,6
 527 365 527 365 511 359 c 1,7,8
 527 356 527 356 538 336 c 128,-1,9
 549 316 549 316 549 289 c 0,10,11
 549 259 549 259 537 239 c 128,-1,12
 525 219 525 219 507 219 c 0,13,14
 490 219 490 219 478 238 c 128,-1,15
 466 257 466 257 465 281 c 1,16,17
 463 254 463 254 452 238 c 0,18,19
 440 219 440 219 423 219 c 0,20,21
 405 219 405 219 392.5 239.5 c 128,-1,22
 380 260 380 260 380 289 c 0,23,24
 380 316 380 316 391 335 c 0,25,26
 400 354 400 354 418 359 c 1,27,28
 401 364 401 364 391 381 c 0,29,30
 380 400 380 400 380 427 c 0,31,32
 380 457 380 457 392 477 c 128,-1,33
 404 497 404 497 423 497 c 0,34,35
 440 497 440 497 452 478 c 0,36,37
 463 462 463 462 465 435 c 1,38,39
 467 462 467 462 478 478 c 0,40,41
 490 497 490 497 507 497 c 0,0,1
253 497 m 0,42,43
 271 497 271 497 283 476.5 c 128,-1,44
 295 456 295 456 295 427 c 0,45,46
 295 400 295 400 284.5 381 c 128,-1,47
 274 362 274 362 256 359 c 1,48,49
 273 356 273 356 284 336 c 128,-1,50
 295 316 295 316 295 289 c 0,51,52
 295 259 295 259 283 239 c 128,-1,53
 271 219 271 219 253 219 c 0,54,55
 236 219 236 219 224.5 238 c 128,-1,56
 213 257 213 257 211 281 c 1,57,58
 209 255 209 255 197 238.5 c 128,-1,59
 185 222 185 222 169 219 c 0,60,61
 151 219 151 219 138.5 239.5 c 128,-1,62
 126 260 126 260 126 289 c 0,63,64
 126 316 126 316 137 335 c 0,65,66
 147 354 147 354 164 359 c 1,67,68
 147 364 147 364 137 381 c 0,69,70
 126 400 126 400 126 427 c 0,71,72
 126 457 126 457 138.5 477 c 128,-1,73
 151 497 151 497 169 497 c 0,74,75
 186 497 186 497 197 478 c 0,76,77
 208 462 208 462 211 435 c 1,78,79
 213 462 213 462 224 478 c 0,80,81
 236 497 236 497 253 497 c 0,42,43
197 340 m 256,82,83
 208 324 208 324 211 297 c 1,84,85
 213 323 213 323 223 340 c 128,-1,86
 233 357 233 357 249 359 c 1,87,88
 233 363 233 363 223 380 c 128,-1,89
 213 397 213 397 211 421 c 1,90,91
 209 394 209 394 197 376 c 0,92,93
 186 363 186 363 172 359 c 1,94,95
 186 356 186 356 197 340 c 256,82,83
452 340 m 256,96,97
 463 324 463 324 465 297 c 1,98,99
 467 323 467 323 477 340 c 128,-1,100
 487 357 487 357 503 359 c 1,101,102
 487 363 487 363 476.5 380 c 128,-1,103
 466 397 466 397 465 421 c 1,104,105
 463 394 463 394 452 376 c 0,106,107
 441 363 441 363 426 359 c 1,108,109
 441 356 441 356 452 340 c 256,96,97
EndSplineSet
Validated: 1
EndChar

StartChar: semicolon
Encoding: 59 59 27
Width: 675
VWidth: 1239
Flags: W
LayerCount: 2
Fore
SplineSet
295 446 m 0,0,1
 313 446 313 446 325.5 425.5 c 128,-1,2
 338 405 338 405 338 376 c 256,3,4
 338 346 338 346 326 327 c 128,-1,5
 314 308 314 308 295 308 c 1,6,7
 313 308 313 308 325.5 288 c 128,-1,8
 338 268 338 268 338 238.5 c 128,-1,9
 338 209 338 209 326 188.5 c 128,-1,10
 314 168 314 168 295 168 c 0,11,12
 278 168 278 168 266.5 187 c 128,-1,13
 255 206 255 206 253 230 c 1,14,15
 251 204 251 204 239.5 187.5 c 128,-1,16
 228 171 228 171 211 168 c 0,17,18
 193 168 193 168 180.5 188.5 c 128,-1,19
 168 209 168 209 168 238 c 0,20,21
 168 265 168 265 180 284 c 0,22,23
 190 303 190 303 206 308 c 1,24,25
 190 312 190 312 180 329 c 128,-1,26
 170 346 170 346 168 370 c 1,27,28
 166 342 166 342 155 324 c 0,29,30
 143 308 143 308 126 308 c 0,31,32
 108 308 108 308 96 327 c 128,-1,33
 84 346 84 346 84 376 c 256,34,35
 84 406 84 406 96.5 426 c 128,-1,36
 109 446 109 446 126 446 c 128,-1,37
 143 446 143 446 155 427 c 0,38,39
 166 411 166 411 168 384 c 1,40,41
 170 411 170 411 182 427 c 0,42,43
 194 446 194 446 211 446 c 128,-1,44
 228 446 228 446 239 427 c 0,45,46
 250 411 250 411 253 384 c 1,47,48
 255 411 255 411 266 427 c 0,49,50
 278 446 278 446 295 446 c 0,0,1
549 446 m 0,51,52
 567 446 567 446 579 425.5 c 128,-1,53
 591 405 591 405 591 376 c 256,54,55
 591 346 591 346 579 327 c 128,-1,56
 567 308 567 308 549 308 c 1,57,58
 567 308 567 308 579 288 c 128,-1,59
 591 268 591 268 591 238.5 c 128,-1,60
 591 209 591 209 579 188.5 c 128,-1,61
 567 168 567 168 549 168 c 0,62,63
 532 168 532 168 520.5 187 c 128,-1,64
 509 206 509 206 507 230 c 1,65,66
 505 203 505 203 494 187 c 0,67,68
 482 168 482 168 465 168 c 0,69,70
 447 168 447 168 435 188.5 c 128,-1,71
 423 209 423 209 423 238 c 0,72,73
 423 265 423 265 433 284 c 128,-1,74
 443 303 443 303 461 308 c 1,75,76
 444 313 444 313 433 330 c 0,77,78
 423 347 423 347 423 372 c 0,79,80
 423 406 423 406 435 426 c 128,-1,81
 447 446 447 446 465 446 c 0,82,83
 482 446 482 446 494 427 c 0,84,85
 505 411 505 411 507 384 c 1,86,87
 509 411 509 411 520 427 c 0,88,89
 532 446 532 446 549 446 c 0,51,52
495 287 m 0,90,91
 505 271 505 271 507 246 c 1,92,93
 509 272 509 272 519 289 c 128,-1,94
 529 306 529 306 545 308 c 1,95,96
 529 312 529 312 519 329 c 128,-1,97
 509 346 509 346 507 370 c 1,98,99
 505 347 505 347 494 329 c 128,-1,100
 483 311 483 311 469 308 c 1,101,102
 484 303 484 303 495 287 c 0,90,91
239 290 m 256,103,104
 250 274 250 274 253 246 c 1,105,106
 255 272 255 272 265 289 c 128,-1,107
 275 306 275 306 291 308 c 1,108,109
 275 312 275 312 265 329 c 128,-1,110
 255 346 255 346 253 370 c 1,111,112
 251 342 251 342 239 324 c 0,113,114
 228 311 228 311 214 308 c 1,115,116
 228 306 228 306 239 290 c 256,103,104
EndSplineSet
Validated: 1
EndChar

StartChar: less
Encoding: 60 60 28
Width: 675
VWidth: 1257
Flags: W
LayerCount: 2
Fore
SplineSet
422 325 m 256,0,1
 440 325 440 325 452.5 304.5 c 128,-1,2
 465 284 465 284 465 257 c 0,3,4
 465 227 465 227 452.5 207 c 128,-1,5
 440 187 440 187 422 187 c 256,6,7
 404 187 404 187 392 207.5 c 128,-1,8
 380 228 380 228 380 257 c 256,9,10
 380 287 380 287 392 306 c 128,-1,11
 404 325 404 325 422 325 c 256,0,1
253 325 m 256,12,13
 271 325 271 325 283 304.5 c 128,-1,14
 295 284 295 284 295 257 c 0,15,16
 295 227 295 227 283 207 c 128,-1,17
 271 187 271 187 253 187 c 0,18,19
 235 187 235 187 222.5 207.5 c 128,-1,20
 210 228 210 228 210 257 c 256,21,22
 210 287 210 287 222.5 306 c 128,-1,23
 235 325 235 325 253 325 c 256,12,13
507 187 m 256,24,25
 525 187 525 187 537 167 c 128,-1,26
 549 147 549 147 549 117 c 256,27,28
 549 87 549 87 536.5 68.5 c 128,-1,29
 524 50 524 50 507 50 c 0,30,31
 489 50 489 50 477 70 c 128,-1,32
 465 90 465 90 465 117 c 0,33,34
 465 147 465 147 477 167 c 128,-1,35
 489 187 489 187 507 187 c 256,24,25
168 187 m 256,36,37
 186 187 186 187 198 167 c 128,-1,38
 210 147 210 147 210 117 c 256,39,40
 210 87 210 87 198 68.5 c 128,-1,41
 186 50 186 50 168 50 c 256,42,43
 150 50 150 50 138 70 c 128,-1,44
 126 90 126 90 126 117 c 0,45,46
 126 147 126 147 138 167 c 128,-1,47
 150 187 150 187 168 187 c 256,36,37
338 462 m 256,48,49
 356 462 356 462 368 443 c 128,-1,50
 380 424 380 424 380 395 c 256,51,52
 380 365 380 365 368 345 c 128,-1,53
 356 325 356 325 338 325 c 256,54,55
 320 325 320 325 307.5 345 c 128,-1,56
 295 365 295 365 295 394.5 c 128,-1,57
 295 424 295 424 307.5 443 c 128,-1,58
 320 462 320 462 338 462 c 256,48,49
EndSplineSet
Validated: 1
EndChar

StartChar: equal
Encoding: 61 61 29
Width: 675
VWidth: 1222
Flags: W
LayerCount: 2
Fore
SplineSet
422 703 m 256,0,1
 440 703 440 703 452 683 c 128,-1,2
 464 663 464 663 464 634 c 0,3,4
 464 607 464 607 454 587 c 0,5,6
 443 569 443 569 426 564 c 1,7,8
 442 561 442 561 453 542.5 c 128,-1,9
 464 524 464 524 464 496 c 0,10,11
 464 466 464 466 452 446.5 c 128,-1,12
 440 427 440 427 422 427 c 1,13,14
 440 427 440 427 452 407 c 0,15,16
 464 386 464 386 464 358 c 0,17,18
 464 328 464 328 452 310 c 0,19,20
 441 292 441 292 426 290 c 1,21,22
 441 289 441 289 452 270 c 0,23,24
 464 250 464 250 464 220 c 0,25,26
 464 193 464 193 454 174 c 0,27,28
 443 156 443 156 426 151 c 1,29,30
 442 148 442 148 453 128.5 c 128,-1,31
 464 109 464 109 464 83 c 0,32,33
 464 53 464 53 452 33.5 c 128,-1,34
 440 14 440 14 422 14 c 128,-1,35
 404 14 404 14 392 33.5 c 128,-1,36
 380 53 380 53 380 83 c 0,37,38
 380 110 380 110 391 130 c 0,39,40
 401 149 401 149 418 151 c 1,41,42
 401 155 401 155 390.5 174 c 128,-1,43
 380 193 380 193 380 220 c 256,44,45
 380 247 380 247 391 267 c 0,46,47
 401 286 401 286 418 290 c 1,48,49
 401 294 401 294 391 311 c 0,50,51
 380 330 380 330 380 358 c 0,52,53
 380 385 380 385 391 406 c 0,54,55
 401 425 401 425 418 427 c 1,56,57
 401 431 401 431 391 449 c 0,58,59
 380 468 380 468 380 496 c 0,60,61
 380 523 380 523 391 543 c 0,62,63
 401 562 401 562 418 564 c 1,64,65
 401 568 401 568 390.5 587 c 128,-1,66
 380 606 380 606 380 634 c 0,67,68
 380 664 380 664 392 683.5 c 128,-1,69
 404 703 404 703 422 703 c 256,0,1
253 703 m 256,70,71
 271 703 271 703 283 683 c 128,-1,72
 295 663 295 663 295 634 c 0,73,74
 295 607 295 607 284 587 c 128,-1,75
 273 567 273 567 256 564 c 1,76,77
 273 561 273 561 284 542.5 c 128,-1,78
 295 524 295 524 295 496 c 0,79,80
 295 466 295 466 283 447 c 0,81,82
 272 429 272 429 256 427 c 1,83,84
 271 426 271 426 283 408 c 0,85,86
 295 388 295 388 295 358 c 256,87,88
 295 328 295 328 283 310 c 0,89,90
 272 292 272 292 256 290 c 1,91,92
 271 289 271 289 283 270 c 0,93,94
 295 250 295 250 295 220 c 0,95,96
 295 193 295 193 284 174 c 0,97,98
 273 156 273 156 257 151 c 1,99,100
 273 148 273 148 284 128.5 c 128,-1,101
 295 109 295 109 295 83 c 0,102,103
 295 53 295 53 283 33.5 c 128,-1,104
 271 14 271 14 253 14 c 256,105,106
 235 14 235 14 223 33.5 c 128,-1,107
 211 53 211 53 211 83 c 0,108,109
 211 110 211 110 221 130 c 0,110,111
 231 149 231 149 249 151 c 1,112,113
 232 155 232 155 221.5 174 c 128,-1,114
 211 193 211 193 211 220 c 256,115,116
 211 247 211 247 221 267 c 0,117,118
 231 286 231 286 249 290 c 1,119,120
 232 294 232 294 221 311 c 0,121,122
 211 328 211 328 211 353 c 0,123,124
 211 384 211 384 221 406 c 0,125,126
 231 425 231 425 249 427 c 1,127,128
 232 431 232 431 221 449 c 0,129,130
 211 466 211 466 211 491 c 0,131,132
 211 522 211 522 221 543 c 0,133,134
 231 562 231 562 249 564 c 1,135,136
 232 568 232 568 221.5 587 c 128,-1,137
 211 606 211 606 211 634 c 0,138,139
 211 664 211 664 223 683.5 c 128,-1,140
 235 703 235 703 253 703 c 256,70,71
EndSplineSet
Validated: 1
EndChar

StartChar: greater
Encoding: 62 62 30
Width: 675
VWidth: 1257
Flags: W
LayerCount: 2
Fore
SplineSet
422 324 m 256,0,1
 440 324 440 324 452.5 303.5 c 128,-1,2
 465 283 465 283 465 256 c 0,3,4
 465 226 465 226 452.5 206 c 128,-1,5
 440 186 440 186 422 186 c 256,6,7
 404 186 404 186 392 206.5 c 128,-1,8
 380 227 380 227 380 256 c 256,9,10
 380 286 380 286 392 305 c 128,-1,11
 404 324 404 324 422 324 c 256,0,1
253 324 m 0,12,13
 271 324 271 324 283 303.5 c 128,-1,14
 295 283 295 283 295 256 c 0,15,16
 295 226 295 226 283 206 c 128,-1,17
 271 186 271 186 253 186 c 0,18,19
 232 186 232 186 221.5 207.5 c 128,-1,20
 211 229 211 229 211 255 c 128,-1,21
 211 281 211 281 221.5 302.5 c 128,-1,22
 232 324 232 324 253 324 c 0,12,13
338 186 m 256,23,24
 356 186 356 186 368 166 c 128,-1,25
 380 146 380 146 380 116 c 256,26,27
 380 86 380 86 368 68 c 128,-1,28
 356 50 356 50 338 50 c 0,29,30
 337 49 l 0,31,32
 320 49 320 49 308 69 c 0,33,34
 296 89 296 89 295 116 c 0,35,36
 295 146 295 146 307.5 166 c 128,-1,37
 320 186 320 186 338 186 c 256,23,24
168 461 m 256,38,39
 186 461 186 461 198 442 c 128,-1,40
 210 423 210 423 210 394 c 256,41,42
 210 364 210 364 198 344 c 128,-1,43
 186 324 186 324 168 324 c 256,44,45
 150 324 150 324 138 344 c 128,-1,46
 126 364 126 364 126 393.5 c 128,-1,47
 126 423 126 423 138 442 c 128,-1,48
 150 461 150 461 168 461 c 256,38,39
507 461 m 256,49,50
 525 461 525 461 537 442 c 128,-1,51
 549 423 549 423 549 394 c 256,52,53
 549 364 549 364 536.5 344 c 128,-1,54
 524 324 524 324 507 324 c 0,55,56
 489 324 489 324 477 344 c 128,-1,57
 465 364 465 364 465 393.5 c 128,-1,58
 465 423 465 423 477 442 c 128,-1,59
 489 461 489 461 507 461 c 256,49,50
EndSplineSet
Validated: 1
EndChar

StartChar: question
Encoding: 63 63 31
Width: 675
VWidth: 1222
Flags: W
LayerCount: 2
Fore
SplineSet
592 564 m 256,0,1
 610 564 610 564 622 544.5 c 128,-1,2
 634 525 634 525 634 496 c 256,3,4
 634 466 634 466 621.5 446.5 c 128,-1,5
 609 427 609 427 592 427 c 1,6,7
 610 427 610 427 622 407 c 0,8,9
 634 386 634 386 634 358 c 0,10,11
 634 331 634 331 622 311 c 0,12,13
 611 293 611 293 596 290 c 1,14,15
 612 287 612 287 623 267.5 c 128,-1,16
 634 248 634 248 634 220 c 0,17,18
 634 190 634 190 621.5 170.5 c 128,-1,19
 609 151 609 151 592 151 c 0,20,21
 574 151 574 151 561.5 171.5 c 128,-1,22
 549 192 549 192 549 220 c 0,23,24
 549 247 549 247 560 267 c 0,25,26
 570 286 570 286 587 290 c 1,27,28
 570 294 570 294 560 311 c 0,29,30
 549 330 549 330 549 358 c 0,31,32
 549 385 549 385 560 406 c 0,33,34
 570 425 570 425 587 427 c 1,35,36
 570 431 570 431 560 449 c 0,37,38
 549 468 549 468 549 496 c 0,39,40
 549 526 549 526 561.5 545 c 128,-1,41
 574 564 574 564 592 564 c 256,0,1
422 151 m 0,42,43
 439 151 439 151 451 134 c 0,44,45
 462 118 462 118 464 89 c 1,46,47
 466 116 466 116 477.5 133.5 c 128,-1,48
 489 151 489 151 507 151 c 128,-1,49
 525 151 525 151 537 131.5 c 128,-1,50
 549 112 549 112 549 83 c 256,51,52
 549 53 549 53 537 33.5 c 128,-1,53
 525 14 525 14 507 14 c 0,54,55
 490 14 490 14 478 31.5 c 128,-1,56
 466 49 466 49 464 76 c 1,57,58
 462 50 462 50 451 31 c 0,59,60
 440 14 440 14 424 14 c 0,61,62
 423 14 423 14 422 14 c 0,63,64
 404 14 404 14 392 33.5 c 128,-1,65
 380 53 380 53 380 83 c 256,66,67
 380 113 380 113 392 132 c 128,-1,68
 404 151 404 151 422 151 c 0,42,43
83 427 m 256,69,70
 101 427 101 427 113 407 c 0,71,72
 125 386 125 386 125 358 c 0,73,74
 125 328 125 328 113.5 309 c 128,-1,75
 102 290 102 290 83 290 c 256,76,77
 65 290 65 290 53 310 c 0,78,79
 41 328 41 328 41 358 c 256,80,81
 41 388 41 388 53 407.5 c 128,-1,82
 65 427 65 427 83 427 c 256,69,70
507 703 m 256,83,84
 525 703 525 703 537 683 c 128,-1,85
 549 663 549 663 549 634 c 0,86,87
 549 604 549 604 537 584 c 128,-1,88
 525 564 525 564 507 564 c 256,89,90
 489 564 489 564 476.5 584.5 c 128,-1,91
 464 605 464 605 464 634 c 256,92,93
 464 664 464 664 476.5 683.5 c 128,-1,94
 489 703 489 703 507 703 c 256,83,84
253 427 m 256,95,96
 271 427 271 427 283 407 c 0,97,98
 295 386 295 386 295 358 c 0,99,100
 295 328 295 328 283 309 c 128,-1,101
 271 290 271 290 253 290 c 256,102,103
 235 290 235 290 223 310 c 0,104,105
 211 328 211 328 211 358 c 256,106,107
 211 388 211 388 223 407.5 c 128,-1,108
 235 427 235 427 253 427 c 256,95,96
337 290 m 256,109,110
 355 290 355 290 367.5 269.5 c 128,-1,111
 380 249 380 249 380 220 c 256,112,113
 380 190 380 190 367.5 170.5 c 128,-1,114
 355 151 355 151 337 151 c 256,115,116
 319 151 319 151 307 171.5 c 128,-1,117
 295 192 295 192 295 220 c 0,118,119
 295 250 295 250 307 270 c 128,-1,120
 319 290 319 290 337 290 c 256,109,110
EndSplineSet
Validated: 1
EndChar

StartChar: at
Encoding: 64 64 32
Width: 675
VWidth: 1222
Flags: W
LayerCount: 2
Fore
SplineSet
253 427 m 0,0,1
 270 427 270 427 282 410 c 0,2,3
 293 394 293 394 295 365 c 1,4,5
 297 392 297 392 309 410 c 0,6,7
 320 427 320 427 335 427 c 0,8,9
 336 427 336 427 337 427 c 256,10,11
 354 427 354 427 366 410 c 0,12,13
 377 394 377 394 380 365 c 1,14,15
 382 392 382 392 393.5 409.5 c 128,-1,16
 405 427 405 427 422 427 c 0,17,18
 440 427 440 427 452 407 c 0,19,20
 464 386 464 386 464 358 c 0,21,22
 464 331 464 331 454 311 c 0,23,24
 443 293 443 293 426 290 c 1,25,26
 442 287 442 287 453 267.5 c 128,-1,27
 464 248 464 248 464 220 c 0,28,29
 464 193 464 193 453 173.5 c 128,-1,30
 442 154 442 154 426 151 c 1,31,32
 441 148 441 148 452 132 c 0,33,34
 462 116 462 116 464 89 c 1,35,36
 466 116 466 116 477.5 133.5 c 128,-1,37
 489 151 489 151 507 151 c 128,-1,38
 525 151 525 151 537 131.5 c 128,-1,39
 549 112 549 112 549 83 c 256,40,41
 549 53 549 53 537 33.5 c 128,-1,42
 525 14 525 14 507 14 c 0,43,44
 490 14 490 14 478 31.5 c 128,-1,45
 466 49 466 49 464 76 c 1,46,47
 462 50 462 50 451 31 c 0,48,49
 440 14 440 14 424 14 c 0,50,51
 423 14 423 14 422 14 c 0,52,53
 405 14 405 14 393.5 31.5 c 128,-1,54
 382 49 382 49 380 76 c 1,55,56
 378 50 378 50 366 31 c 0,57,58
 355 14 355 14 339 14 c 0,59,60
 338 14 338 14 337 14 c 0,61,62
 320 14 320 14 308.5 31.5 c 128,-1,63
 297 49 297 49 295 76 c 1,64,65
 293 50 293 50 282 31 c 0,66,67
 271 14 271 14 255 14 c 0,68,69
 254 14 254 14 253 14 c 0,70,71
 235 14 235 14 223 33.5 c 128,-1,72
 211 53 211 53 211 83 c 0,73,74
 211 110 211 110 221 130 c 0,75,76
 231 149 231 149 249 151 c 1,77,78
 232 155 232 155 221.5 174 c 128,-1,79
 211 193 211 193 211 220 c 256,80,81
 211 247 211 247 221 267 c 0,82,83
 231 286 231 286 249 290 c 1,84,85
 232 294 232 294 221 311 c 0,86,87
 211 328 211 328 211 353 c 0,88,89
 211 387 211 387 223 407 c 128,-1,90
 235 427 235 427 253 427 c 0,0,1
253 703 m 256,91,92
 270 703 270 703 282 684 c 0,93,94
 293 668 293 668 295 641 c 1,95,96
 297 668 297 668 309 684 c 0,97,98
 321 702 321 702 337 703 c 0,99,100
 354 703 354 703 366 684 c 0,101,102
 377 668 377 668 380 641 c 1,103,104
 382 668 382 668 393 684 c 0,105,106
 405 702 405 702 422 703 c 0,107,108
 439 703 439 703 451 684 c 0,109,110
 462 668 462 668 464 641 c 1,111,112
 466 668 466 668 478 684 c 0,113,114
 490 702 490 702 507 703 c 0,115,116
 525 703 525 703 537 683 c 128,-1,117
 549 663 549 663 549 634 c 0,118,119
 549 604 549 604 537 584 c 128,-1,120
 525 564 525 564 507 564 c 0,121,122
 490 564 490 564 478 582.5 c 128,-1,123
 466 601 466 601 464 626 c 1,124,125
 462 600 462 600 451 583 c 0,126,127
 439 565 439 565 422 564 c 0,128,129
 405 564 405 564 393.5 582.5 c 128,-1,130
 382 601 382 601 380 626 c 1,131,132
 378 600 378 600 366 583 c 128,-1,133
 354 566 354 566 337 564 c 0,134,135
 320 564 320 564 308.5 582.5 c 128,-1,136
 297 601 297 601 295 626 c 1,137,138
 293 600 293 600 282 583 c 0,139,140
 270 565 270 565 253 564 c 0,141,142
 236 564 236 564 224 582.5 c 128,-1,143
 212 601 212 601 211 626 c 1,144,145
 209 600 209 600 197 583 c 128,-1,146
 185 566 185 566 168 564 c 0,147,148
 150 564 150 564 137.5 584.5 c 128,-1,149
 125 605 125 605 125 634 c 256,150,151
 125 664 125 664 137.5 683.5 c 128,-1,152
 150 703 150 703 168 703 c 0,153,154
 185 703 185 703 197 684 c 0,155,156
 208 668 208 668 211 641 c 1,157,158
 213 668 213 668 224 684 c 0,159,160
 236 703 236 703 253 703 c 256,91,92
83 564 m 256,161,162
 101 564 101 564 113 544.5 c 128,-1,163
 125 525 125 525 125 496 c 256,164,165
 125 466 125 466 113 447 c 0,166,167
 102 429 102 429 87 427 c 1,168,169
 102 426 102 426 113 408 c 0,170,171
 125 388 125 388 125 358 c 256,172,173
 125 328 125 328 113 310 c 0,174,175
 102 292 102 292 87 290 c 1,176,177
 102 289 102 289 113 270 c 0,178,179
 125 250 125 250 125 220 c 256,180,181
 125 190 125 190 113 173 c 0,182,183
 102 155 102 155 87 151 c 1,184,185
 102 150 102 150 113 132 c 0,186,187
 125 112 125 112 125 83 c 256,188,189
 125 53 125 53 113.5 33.5 c 128,-1,190
 102 14 102 14 83 14 c 256,191,192
 65 14 65 14 53 33.5 c 128,-1,193
 41 53 41 53 41 83 c 0,194,195
 41 110 41 110 52 130 c 0,196,197
 62 149 62 149 79 151 c 1,198,199
 62 155 62 155 51.5 174 c 128,-1,200
 41 193 41 193 41 220 c 256,201,202
 41 247 41 247 52 267 c 0,203,204
 62 286 62 286 79 290 c 1,205,206
 62 294 62 294 52 311 c 0,207,208
 41 330 41 330 41 358 c 0,209,210
 41 385 41 385 52 406 c 0,211,212
 62 425 62 425 79 427 c 1,213,214
 62 431 62 431 52 449 c 0,215,216
 41 468 41 468 41 496 c 0,217,218
 41 526 41 526 53 545 c 128,-1,219
 65 564 65 564 83 564 c 256,161,162
592 564 m 256,220,221
 610 564 610 564 622 544.5 c 128,-1,222
 634 525 634 525 634 496 c 0,223,224
 634 469 634 469 622.5 449.5 c 128,-1,225
 611 430 611 430 595 427 c 1,226,227
 612 424 612 424 623 404 c 128,-1,228
 634 384 634 384 634 358 c 0,229,230
 634 328 634 328 621 310 c 0,231,232
 610 292 610 292 595 290 c 1,233,234
 610 289 610 289 621 270 c 0,235,236
 633 250 633 250 634 220 c 0,237,238
 634 190 634 190 621.5 170.5 c 128,-1,239
 609 151 609 151 592 151 c 0,240,241
 574 151 574 151 561.5 171.5 c 128,-1,242
 549 192 549 192 549 220 c 0,243,244
 549 247 549 247 560 267 c 0,245,246
 570 286 570 286 587 290 c 1,247,248
 570 294 570 294 560 311 c 0,249,250
 549 330 549 330 549 358 c 0,251,252
 549 385 549 385 560 406 c 0,253,254
 570 425 570 425 587 427 c 1,255,256
 570 431 570 431 560 449 c 0,257,258
 549 468 549 468 549 496 c 0,259,260
 549 526 549 526 561.5 545 c 128,-1,261
 574 564 574 564 592 564 c 256,220,221
337 151 m 256,262,263
 354 151 354 151 366 134 c 0,264,265
 377 118 377 118 380 89 c 1,266,267
 382 115 382 115 392 132 c 128,-1,268
 402 149 402 149 418 151 c 1,269,270
 401 155 401 155 390.5 174 c 128,-1,271
 380 193 380 193 380 220 c 256,272,273
 380 247 380 247 391 267 c 0,274,275
 401 286 401 286 418 290 c 1,276,277
 402 294 402 294 392 311 c 128,-1,278
 382 328 382 328 380 352 c 1,279,280
 378 326 378 326 366 307 c 0,281,282
 355 290 355 290 339 290 c 0,283,284
 338 290 338 290 337 290 c 0,285,286
 320 290 320 290 308.5 307.5 c 128,-1,287
 297 325 297 325 295 352 c 1,288,289
 293 326 293 326 282 307 c 0,290,291
 271 292 271 292 256 290 c 1,292,293
 271 289 271 289 283 270 c 0,294,295
 295 250 295 250 295 220 c 256,296,297
 295 190 295 190 283 170.5 c 128,-1,298
 271 151 271 151 253 151 c 1,299,300
 270 151 270 151 282 134 c 0,301,302
 293 118 293 118 295 89 c 1,303,304
 297 116 297 116 309 134 c 0,305,306
 320 151 320 151 337 151 c 256,262,263
EndSplineSet
Validated: 1
EndChar

StartChar: A
Encoding: 65 65 33
Width: 675
VWidth: 1222
Flags: W
LayerCount: 2
Fore
SplineSet
168 151 m 256,0,1
 185 151 185 151 197 134 c 0,2,3
 208 118 208 118 211 89 c 1,4,5
 213 115 213 115 222.5 132 c 128,-1,6
 232 149 232 149 249 151 c 1,7,8
 232 155 232 155 221.5 174 c 128,-1,9
 211 193 211 193 211 220 c 256,10,11
 211 247 211 247 221 267 c 0,12,13
 231 286 231 286 249 290 c 1,14,15
 232 294 232 294 221 311 c 0,16,17
 211 328 211 328 211 353 c 0,18,19
 211 384 211 384 221 406 c 0,20,21
 231 425 231 425 249 427 c 1,22,23
 232 431 232 431 221 449 c 0,24,25
 211 466 211 466 211 491 c 0,26,27
 211 522 211 522 221 543 c 0,28,29
 231 562 231 562 249 564 c 1,30,31
 233 568 233 568 222.5 585.5 c 128,-1,32
 212 603 212 603 211 626 c 1,33,34
 209 600 209 600 197 583 c 128,-1,35
 185 566 185 566 168 564 c 0,36,37
 151 564 151 564 139 582.5 c 128,-1,38
 127 601 127 601 125 626 c 1,39,40
 123 600 123 600 112 583 c 0,41,42
 100 565 100 565 83 564 c 0,43,44
 65 564 65 564 53 584.5 c 128,-1,45
 41 605 41 605 41 634 c 256,46,47
 41 664 41 664 53.5 683.5 c 128,-1,48
 66 703 66 703 83 703 c 128,-1,49
 100 703 100 703 112 684 c 0,50,51
 123 668 123 668 125 641 c 1,52,53
 127 668 127 668 140 684 c 0,54,55
 152 702 152 702 168 703 c 0,56,57
 185 703 185 703 197 684 c 0,58,59
 208 668 208 668 211 641 c 1,60,61
 213 668 213 668 224 684 c 0,62,63
 236 702 236 702 253 703 c 0,64,65
 270 703 270 703 282 684 c 0,66,67
 293 668 293 668 295 641 c 1,68,69
 297 668 297 668 309 684 c 0,70,71
 321 702 321 702 337 703 c 0,72,73
 354 703 354 703 366 684 c 0,74,75
 377 668 377 668 380 641 c 1,76,77
 382 668 382 668 393 684 c 0,78,79
 405 702 405 702 422 703 c 0,80,81
 439 703 439 703 451 684 c 0,82,83
 462 668 462 668 464 641 c 1,84,85
 466 668 466 668 478 684 c 0,86,87
 490 702 490 702 507 703 c 0,88,89
 525 703 525 703 537 683 c 128,-1,90
 549 663 549 663 549 634 c 0,91,92
 549 604 549 604 537 584 c 128,-1,93
 525 564 525 564 507 564 c 0,94,95
 490 564 490 564 478 582.5 c 128,-1,96
 466 601 466 601 464 626 c 1,97,98
 462 600 462 600 451 583 c 0,99,100
 439 565 439 565 422 564 c 0,101,102
 405 564 405 564 393.5 582.5 c 128,-1,103
 382 601 382 601 380 626 c 1,104,105
 378 600 378 600 366 583 c 128,-1,106
 354 566 354 566 337 564 c 0,107,108
 320 564 320 564 308.5 582.5 c 128,-1,109
 297 601 297 601 295 626 c 1,110,111
 293 603 293 603 283 586 c 0,112,113
 272 568 272 568 256 564 c 1,114,115
 273 561 273 561 284 542.5 c 128,-1,116
 295 524 295 524 295 496 c 0,117,118
 295 466 295 466 283 447 c 0,119,120
 272 429 272 429 256 427 c 1,121,122
 271 426 271 426 283 408 c 0,123,124
 295 388 295 388 295 358 c 256,125,126
 295 328 295 328 283 309 c 128,-1,127
 271 290 271 290 253 290 c 1,128,129
 271 290 271 290 283 269.5 c 128,-1,130
 295 249 295 249 295 220 c 256,131,132
 295 190 295 190 283 170.5 c 128,-1,133
 271 151 271 151 253 151 c 1,134,135
 270 151 270 151 282 134 c 0,136,137
 293 118 293 118 295 89 c 1,138,139
 297 116 297 116 309 134 c 0,140,141
 320 151 320 151 335 151 c 0,142,143
 336 151 336 151 337 151 c 256,144,145
 354 151 354 151 366 134 c 0,146,147
 377 118 377 118 380 89 c 1,148,149
 382 116 382 116 393.5 133.5 c 128,-1,150
 405 151 405 151 422 151 c 128,-1,151
 439 151 439 151 451 134 c 0,152,153
 462 118 462 118 464 89 c 1,154,155
 466 116 466 116 477.5 133.5 c 128,-1,156
 489 151 489 151 507 151 c 128,-1,157
 525 151 525 151 537 131.5 c 128,-1,158
 549 112 549 112 549 83 c 256,159,160
 549 53 549 53 537 33.5 c 128,-1,161
 525 14 525 14 507 14 c 0,162,163
 490 14 490 14 478 31.5 c 128,-1,164
 466 49 466 49 464 76 c 1,165,166
 462 50 462 50 451 31 c 0,167,168
 440 14 440 14 424 14 c 0,169,170
 423 14 423 14 422 14 c 0,171,172
 405 14 405 14 393.5 31.5 c 128,-1,173
 382 49 382 49 380 76 c 1,174,175
 378 50 378 50 366 31 c 0,176,177
 355 14 355 14 339 14 c 0,178,179
 338 14 338 14 337 14 c 0,180,181
 320 14 320 14 308.5 31.5 c 128,-1,182
 297 49 297 49 295 76 c 1,183,184
 293 50 293 50 282 31 c 0,185,186
 271 14 271 14 255 14 c 0,187,188
 254 14 254 14 253 14 c 0,189,190
 236 14 236 14 224 31.5 c 128,-1,191
 212 49 212 49 211 76 c 1,192,193
 209 50 209 50 197 31 c 0,194,195
 186 14 186 14 170 14 c 0,196,197
 169 14 169 14 168 14 c 256,198,199
 151 14 151 14 139 31.5 c 128,-1,200
 127 49 127 49 125 76 c 1,201,202
 123 50 123 50 112 31 c 0,203,204
 101 14 101 14 85 14 c 0,205,206
 84 14 84 14 83 14 c 0,207,208
 65 14 65 14 53 33.5 c 128,-1,209
 41 53 41 53 41 83 c 256,210,211
 41 113 41 113 53.5 132 c 128,-1,212
 66 151 66 151 83 151 c 128,-1,213
 100 151 100 151 112 134 c 0,214,215
 123 118 123 118 125 89 c 1,216,217
 127 116 127 116 139 133.5 c 128,-1,218
 151 151 151 151 168 151 c 256,0,1
592 564 m 256,219,220
 610 564 610 564 622 544.5 c 128,-1,221
 634 525 634 525 634 496 c 0,222,223
 634 469 634 469 622 449 c 0,224,225
 611 431 611 431 596 427 c 1,226,227
 612 424 612 424 623 404 c 128,-1,228
 634 384 634 384 634 358 c 0,229,230
 634 328 634 328 621 310 c 0,231,232
 610 292 610 292 595 290 c 1,233,234
 610 289 610 289 621 270 c 0,235,236
 633 250 633 250 634 220 c 0,237,238
 634 190 634 190 621.5 170.5 c 128,-1,239
 609 151 609 151 592 151 c 0,240,241
 574 151 574 151 561.5 171.5 c 128,-1,242
 549 192 549 192 549 220 c 0,243,244
 549 247 549 247 560 267 c 0,245,246
 570 286 570 286 587 290 c 1,247,248
 570 294 570 294 560 311 c 0,249,250
 549 330 549 330 549 358 c 0,251,252
 549 385 549 385 560 406 c 0,253,254
 570 425 570 425 587 427 c 1,255,256
 570 431 570 431 560 449 c 0,257,258
 549 468 549 468 549 496 c 0,259,260
 549 526 549 526 561.5 545 c 128,-1,261
 574 564 574 564 592 564 c 256,219,220
EndSplineSet
Validated: 1
EndChar

StartChar: B
Encoding: 66 66 34
Width: 675
VWidth: 1222
Flags: W
LayerCount: 2
Fore
SplineSet
592 703 m 0,0,1
 610 703 610 703 622 683 c 128,-1,2
 634 663 634 663 634 634 c 0,3,4
 634 607 634 607 622.5 587 c 128,-1,5
 611 567 611 567 595 564 c 1,6,7
 612 561 612 561 623 542.5 c 128,-1,8
 634 524 634 524 634 496 c 0,9,10
 634 466 634 466 621.5 446.5 c 128,-1,11
 609 427 609 427 592 427 c 1,12,13
 610 427 610 427 622 407 c 0,14,15
 634 386 634 386 634 358 c 0,16,17
 634 331 634 331 622.5 312 c 128,-1,18
 611 293 611 293 595 290 c 1,19,20
 612 287 612 287 623 267.5 c 128,-1,21
 634 248 634 248 634 220 c 0,22,23
 634 190 634 190 621.5 170.5 c 128,-1,24
 609 151 609 151 592 151 c 0,25,26
 574 151 574 151 561.5 171.5 c 128,-1,27
 549 192 549 192 549 220 c 0,28,29
 549 247 549 247 560 267 c 0,30,31
 570 286 570 286 587 290 c 1,32,33
 570 294 570 294 560 311 c 0,34,35
 549 330 549 330 549 358 c 0,36,37
 549 385 549 385 560 406 c 0,38,39
 570 425 570 425 587 427 c 1,40,41
 570 431 570 431 560 449 c 0,42,43
 549 468 549 468 549 496 c 0,44,45
 549 523 549 523 560 543 c 0,46,47
 570 562 570 562 587 564 c 1,48,49
 571 568 571 568 560.5 585.5 c 128,-1,50
 550 603 550 603 549 626 c 1,51,52
 547 600 547 600 535 583 c 0,53,54
 523 565 523 565 507 564 c 0,55,56
 490 564 490 564 478 582.5 c 128,-1,57
 466 601 466 601 464 626 c 1,58,59
 462 600 462 600 451 583 c 0,60,61
 439 565 439 565 422 564 c 0,62,63
 405 564 405 564 393.5 582.5 c 128,-1,64
 382 601 382 601 380 626 c 1,65,66
 378 603 378 603 367 585.5 c 128,-1,67
 356 568 356 568 340 564 c 1,68,69
 357 561 357 561 368.5 542.5 c 128,-1,70
 380 524 380 524 380 496 c 0,71,72
 380 466 380 466 367.5 446.5 c 128,-1,73
 355 427 355 427 337 427 c 1,74,75
 356 427 356 427 368 407 c 0,76,77
 380 386 380 386 380 358 c 0,78,79
 380 331 380 331 368 311 c 0,80,81
 357 293 357 293 342 290 c 1,82,83
 358 287 358 287 369 267.5 c 128,-1,84
 380 248 380 248 380 220 c 0,85,86
 380 190 380 190 367.5 170.5 c 128,-1,87
 355 151 355 151 337 151 c 256,88,89
 319 151 319 151 307 171.5 c 128,-1,90
 295 192 295 192 295 220 c 0,91,92
 295 247 295 247 307 267 c 0,93,94
 317 286 317 286 333 290 c 1,95,96
 316 294 316 294 307 311 c 0,97,98
 296 330 296 330 295 358 c 0,99,100
 295 385 295 385 307 406 c 0,101,102
 317 425 317 425 333 427 c 1,103,104
 316 431 316 431 307 449 c 0,105,106
 296 468 296 468 295 496 c 0,107,108
 295 523 295 523 307 543 c 0,109,110
 317 562 317 562 333 564 c 1,111,112
 317 568 317 568 307 585.5 c 128,-1,113
 297 603 297 603 295 626 c 1,114,115
 293 600 293 600 282 583 c 0,116,117
 270 565 270 565 253 564 c 0,118,119
 236 564 236 564 224 582.5 c 128,-1,120
 212 601 212 601 211 626 c 1,121,122
 209 600 209 600 197 583 c 128,-1,123
 185 566 185 566 168 564 c 0,124,125
 151 564 151 564 139 582.5 c 128,-1,126
 127 601 127 601 125 626 c 1,127,128
 123 600 123 600 112 583 c 0,129,130
 101 568 101 568 87 564 c 1,131,132
 102 563 102 563 113 546 c 0,133,134
 125 526 125 526 125 496 c 0,135,136
 125 469 125 469 114.5 449.5 c 128,-1,137
 104 430 104 430 87 427 c 1,138,139
 104 424 104 424 114 404 c 128,-1,140
 124 384 124 384 125 358 c 256,141,142
 125 331 125 331 114.5 312 c 128,-1,143
 104 293 104 293 87 290 c 1,144,145
 104 287 104 287 114.5 267.5 c 128,-1,146
 125 248 125 248 125 220 c 0,147,148
 125 190 125 190 113.5 170.5 c 128,-1,149
 102 151 102 151 83 151 c 256,150,151
 65 151 65 151 53 171.5 c 128,-1,152
 41 192 41 192 41 220 c 0,153,154
 41 247 41 247 52 267 c 0,155,156
 62 286 62 286 79 290 c 1,157,158
 62 294 62 294 52 311 c 0,159,160
 41 330 41 330 41 358 c 0,161,162
 41 385 41 385 52 406 c 0,163,164
 62 425 62 425 79 427 c 1,165,166
 62 431 62 431 52 449 c 0,167,168
 41 468 41 468 41 496 c 0,169,170
 41 523 41 523 52 543 c 0,171,172
 62 562 62 562 79 564 c 1,173,174
 62 568 62 568 51.5 587 c 128,-1,175
 41 606 41 606 41 634 c 0,176,177
 41 664 41 664 53.5 683.5 c 128,-1,178
 66 703 66 703 83 703 c 128,-1,179
 100 703 100 703 112 684 c 0,180,181
 123 668 123 668 125 641 c 1,182,183
 127 668 127 668 140 684 c 0,184,185
 152 702 152 702 168 703 c 0,186,187
 185 703 185 703 197 684 c 0,188,189
 208 668 208 668 211 641 c 1,190,191
 213 668 213 668 224 684 c 0,192,193
 236 702 236 702 253 703 c 0,194,195
 270 703 270 703 282 684 c 0,196,197
 293 668 293 668 295 641 c 1,198,199
 297 668 297 668 309 684 c 0,200,201
 321 702 321 702 337 703 c 0,202,203
 354 703 354 703 366 684 c 0,204,205
 377 668 377 668 380 641 c 1,206,207
 382 668 382 668 393 684 c 0,208,209
 405 702 405 702 422 703 c 0,210,211
 439 703 439 703 451 684 c 0,212,213
 462 668 462 668 464 641 c 1,214,215
 466 668 466 668 478 684 c 0,216,217
 490 702 490 702 507 703 c 0,218,219
 524 703 524 703 535 684 c 0,220,221
 546 668 546 668 549 641 c 1,222,223
 551 668 551 668 563 684 c 0,224,225
 575 703 575 703 592 703 c 0,0,1
507 151 m 0,226,227
 525 151 525 151 537 131.5 c 128,-1,228
 549 112 549 112 549 83 c 256,229,230
 549 53 549 53 537 33.5 c 128,-1,231
 525 14 525 14 507 14 c 0,232,233
 490 14 490 14 478 31.5 c 128,-1,234
 466 49 466 49 464 76 c 1,235,236
 462 50 462 50 451 31 c 0,237,238
 440 14 440 14 424 14 c 0,239,240
 423 14 423 14 422 14 c 0,241,242
 404 14 404 14 392 33.5 c 128,-1,243
 380 53 380 53 380 83 c 256,244,245
 380 113 380 113 392 132 c 128,-1,246
 404 151 404 151 422 151 c 0,247,248
 439 151 439 151 451 134 c 0,249,250
 462 118 462 118 464 89 c 1,251,252
 466 116 466 116 478 134 c 0,253,254
 490 151 490 151 507 151 c 0,226,227
168 151 m 0,255,256
 185 151 185 151 197 134 c 0,257,258
 208 118 208 118 211 89 c 1,259,260
 213 116 213 116 224 133.5 c 128,-1,261
 235 151 235 151 253 151 c 128,-1,262
 271 151 271 151 283 131.5 c 128,-1,263
 295 112 295 112 295 83 c 256,264,265
 295 53 295 53 283 33.5 c 128,-1,266
 271 14 271 14 253 14 c 0,267,268
 236 14 236 14 224 31.5 c 128,-1,269
 212 49 212 49 211 76 c 1,270,271
 209 50 209 50 197 31 c 0,272,273
 186 14 186 14 170 14 c 0,274,275
 169 14 169 14 168 14 c 0,276,277
 150 14 150 14 137.5 33.5 c 128,-1,278
 125 53 125 53 125 83 c 256,279,280
 125 113 125 113 137.5 132 c 128,-1,281
 150 151 150 151 168 151 c 0,255,256
EndSplineSet
Validated: 1
EndChar

StartChar: C
Encoding: 67 67 35
Width: 675
VWidth: 1222
Flags: W
LayerCount: 2
Fore
SplineSet
253 703 m 256,0,1
 270 703 270 703 282 684 c 0,2,3
 293 668 293 668 295 641 c 1,4,5
 297 668 297 668 309 684 c 0,6,7
 321 702 321 702 337 703 c 0,8,9
 354 703 354 703 366 684 c 0,10,11
 377 668 377 668 380 641 c 1,12,13
 382 668 382 668 393 684 c 0,14,15
 405 702 405 702 422 703 c 0,16,17
 439 703 439 703 451 684 c 0,18,19
 462 668 462 668 464 641 c 1,20,21
 466 668 466 668 478 684 c 0,22,23
 490 702 490 702 507 703 c 0,24,25
 525 703 525 703 537 683 c 128,-1,26
 549 663 549 663 549 634 c 0,27,28
 549 604 549 604 537 584 c 128,-1,29
 525 564 525 564 507 564 c 0,30,31
 490 564 490 564 478 582.5 c 128,-1,32
 466 601 466 601 464 626 c 1,33,34
 462 600 462 600 451 583 c 0,35,36
 439 565 439 565 422 564 c 0,37,38
 405 564 405 564 393.5 582.5 c 128,-1,39
 382 601 382 601 380 626 c 1,40,41
 378 600 378 600 366 583 c 128,-1,42
 354 566 354 566 337 564 c 0,43,44
 320 564 320 564 308.5 582.5 c 128,-1,45
 297 601 297 601 295 626 c 1,46,47
 293 600 293 600 282 583 c 0,48,49
 270 565 270 565 253 564 c 0,50,51
 236 564 236 564 224 582.5 c 128,-1,52
 212 601 212 601 211 626 c 1,53,54
 209 600 209 600 197 583 c 128,-1,55
 185 566 185 566 168 564 c 0,56,57
 150 564 150 564 137.5 584.5 c 128,-1,58
 125 605 125 605 125 634 c 256,59,60
 125 664 125 664 137.5 683.5 c 128,-1,61
 150 703 150 703 168 703 c 0,62,63
 185 703 185 703 197 684 c 0,64,65
 208 668 208 668 211 641 c 1,66,67
 213 668 213 668 224 684 c 0,68,69
 236 703 236 703 253 703 c 256,0,1
83 564 m 256,70,71
 101 564 101 564 113 544.5 c 128,-1,72
 125 525 125 525 125 496 c 0,73,74
 125 469 125 469 114.5 449.5 c 128,-1,75
 104 430 104 430 87 427 c 1,76,77
 104 424 104 424 114 404 c 0,78,79
 124 384 124 384 125 358 c 256,80,81
 125 331 125 331 114.5 312 c 128,-1,82
 104 293 104 293 87 290 c 1,83,84
 104 287 104 287 114.5 267.5 c 128,-1,85
 125 248 125 248 125 220 c 0,86,87
 125 190 125 190 113.5 170.5 c 128,-1,88
 102 151 102 151 83 151 c 256,89,90
 65 151 65 151 53 171.5 c 128,-1,91
 41 192 41 192 41 220 c 0,92,93
 41 247 41 247 52 267 c 0,94,95
 62 286 62 286 79 290 c 1,96,97
 62 294 62 294 52 311 c 0,98,99
 41 330 41 330 41 358 c 0,100,101
 41 385 41 385 52 406 c 0,102,103
 62 425 62 425 79 427 c 1,104,105
 62 431 62 431 52 449 c 0,106,107
 41 468 41 468 41 496 c 0,108,109
 41 526 41 526 53 545 c 128,-1,110
 65 564 65 564 83 564 c 256,70,71
592 564 m 256,111,112
 610 564 610 564 622 544.5 c 128,-1,113
 634 525 634 525 634 496 c 0,114,115
 634 469 634 469 622 449 c 0,116,117
 611 431 611 431 596 427 c 1,118,119
 612 424 612 424 623 404 c 0,120,121
 634 384 634 384 634 358 c 256,122,123
 634 331 634 331 622 311 c 0,124,125
 611 293 611 293 596 290 c 1,126,127
 612 287 612 287 623 267.5 c 128,-1,128
 634 248 634 248 634 220 c 0,129,130
 634 190 634 190 621.5 170.5 c 128,-1,131
 609 151 609 151 592 151 c 0,132,133
 574 151 574 151 561.5 171.5 c 128,-1,134
 549 192 549 192 549 220 c 0,135,136
 549 247 549 247 560 267 c 0,137,138
 570 286 570 286 587 290 c 1,139,140
 570 294 570 294 560 311 c 0,141,142
 549 330 549 330 549 358 c 0,143,144
 549 385 549 385 560 406 c 0,145,146
 570 425 570 425 587 427 c 1,147,148
 570 431 570 431 560 449 c 0,149,150
 549 468 549 468 549 496 c 0,151,152
 549 526 549 526 561.5 545 c 128,-1,153
 574 564 574 564 592 564 c 256,111,112
168 151 m 256,154,155
 186 151 186 151 198.5 131.5 c 128,-1,156
 211 112 211 112 211 83 c 256,157,158
 211 53 211 53 198.5 33.5 c 128,-1,159
 186 14 186 14 168 14 c 128,-1,160
 150 14 150 14 137.5 33.5 c 128,-1,161
 125 53 125 53 125 83 c 256,162,163
 125 113 125 113 137.5 132 c 128,-1,164
 150 151 150 151 168 151 c 256,154,155
507 151 m 256,165,166
 525 151 525 151 537 131.5 c 128,-1,167
 549 112 549 112 549 83 c 256,168,169
 549 53 549 53 537 33.5 c 128,-1,170
 525 14 525 14 507 14 c 256,171,172
 489 14 489 14 476.5 33.5 c 128,-1,173
 464 53 464 53 464 83 c 256,174,175
 464 113 464 113 476.5 132 c 128,-1,176
 489 151 489 151 507 151 c 256,165,166
EndSplineSet
Validated: 1
EndChar

StartChar: D
Encoding: 68 68 36
Width: 675
VWidth: 1222
Flags: W
LayerCount: 2
Fore
SplineSet
592 703 m 0,0,1
 610 703 610 703 622 683 c 128,-1,2
 634 663 634 663 634 634 c 0,3,4
 634 607 634 607 622.5 587 c 128,-1,5
 611 567 611 567 595 564 c 1,6,7
 612 561 612 561 623 542.5 c 128,-1,8
 634 524 634 524 634 496 c 0,9,10
 634 466 634 466 621.5 446.5 c 128,-1,11
 609 427 609 427 592 427 c 1,12,13
 610 427 610 427 622 407 c 0,14,15
 634 386 634 386 634 358 c 0,16,17
 634 328 634 328 621 310 c 0,18,19
 610 292 610 292 595 290 c 1,20,21
 610 289 610 289 621 270 c 0,22,23
 633 250 633 250 634 220 c 0,24,25
 634 190 634 190 621.5 170.5 c 128,-1,26
 609 151 609 151 592 151 c 0,27,28
 574 151 574 151 561.5 171.5 c 128,-1,29
 549 192 549 192 549 220 c 0,30,31
 549 247 549 247 560 267 c 0,32,33
 570 286 570 286 587 290 c 1,34,35
 570 294 570 294 560 311 c 0,36,37
 549 330 549 330 549 358 c 0,38,39
 549 385 549 385 560 406 c 0,40,41
 570 425 570 425 587 427 c 1,42,43
 570 431 570 431 560 449 c 0,44,45
 549 468 549 468 549 496 c 0,46,47
 549 523 549 523 560 543 c 0,48,49
 570 562 570 562 587 564 c 1,50,51
 571 568 571 568 560.5 585.5 c 128,-1,52
 550 603 550 603 549 626 c 1,53,54
 547 600 547 600 535 583 c 0,55,56
 523 565 523 565 507 564 c 0,57,58
 490 564 490 564 478 582.5 c 128,-1,59
 466 601 466 601 464 626 c 1,60,61
 462 600 462 600 451 583 c 0,62,63
 439 565 439 565 422 564 c 0,64,65
 405 564 405 564 393.5 582.5 c 128,-1,66
 382 601 382 601 380 626 c 1,67,68
 378 600 378 600 366 583 c 128,-1,69
 354 566 354 566 337 564 c 0,70,71
 320 564 320 564 308.5 582.5 c 128,-1,72
 297 601 297 601 295 626 c 1,73,74
 293 600 293 600 282 583 c 0,75,76
 270 565 270 565 253 564 c 0,77,78
 236 564 236 564 224 582.5 c 128,-1,79
 212 601 212 601 211 626 c 1,80,81
 209 600 209 600 197 583 c 128,-1,82
 185 566 185 566 168 564 c 0,83,84
 151 564 151 564 139 582.5 c 128,-1,85
 127 601 127 601 125 626 c 1,86,87
 123 600 123 600 112 583 c 0,88,89
 101 568 101 568 87 564 c 1,90,91
 102 563 102 563 113 546 c 0,92,93
 125 526 125 526 125 496 c 256,94,95
 125 466 125 466 113.5 446.5 c 128,-1,96
 102 427 102 427 83 427 c 1,97,98
 101 427 101 427 113 407 c 0,99,100
 125 386 125 386 125 358 c 0,101,102
 125 328 125 328 113 310 c 0,103,104
 102 292 102 292 87 290 c 1,105,106
 102 289 102 289 113 270 c 0,107,108
 125 250 125 250 125 220 c 256,109,110
 125 190 125 190 113.5 170.5 c 128,-1,111
 102 151 102 151 83 151 c 256,112,113
 65 151 65 151 53 171.5 c 128,-1,114
 41 192 41 192 41 220 c 0,115,116
 41 247 41 247 52 267 c 0,117,118
 62 286 62 286 79 290 c 1,119,120
 62 294 62 294 52 311 c 0,121,122
 41 330 41 330 41 358 c 0,123,124
 41 385 41 385 52 406 c 0,125,126
 62 425 62 425 79 427 c 1,127,128
 62 431 62 431 52 449 c 0,129,130
 41 468 41 468 41 496 c 0,131,132
 41 523 41 523 52 543 c 0,133,134
 62 562 62 562 79 564 c 1,135,136
 62 568 62 568 51.5 587 c 128,-1,137
 41 606 41 606 41 634 c 0,138,139
 41 664 41 664 53.5 683.5 c 128,-1,140
 66 703 66 703 83 703 c 128,-1,141
 100 703 100 703 112 684 c 0,142,143
 123 668 123 668 125 641 c 1,144,145
 127 668 127 668 140 684 c 0,146,147
 152 702 152 702 168 703 c 0,148,149
 185 703 185 703 197 684 c 0,150,151
 208 668 208 668 211 641 c 1,152,153
 213 668 213 668 224 684 c 0,154,155
 236 702 236 702 253 703 c 0,156,157
 270 703 270 703 282 684 c 0,158,159
 293 668 293 668 295 641 c 1,160,161
 297 668 297 668 309 684 c 0,162,163
 321 702 321 702 337 703 c 0,164,165
 354 703 354 703 366 684 c 0,166,167
 377 668 377 668 380 641 c 1,168,169
 382 668 382 668 393 684 c 0,170,171
 405 702 405 702 422 703 c 0,172,173
 439 703 439 703 451 684 c 0,174,175
 462 668 462 668 464 641 c 1,176,177
 466 668 466 668 478 684 c 0,178,179
 490 702 490 702 507 703 c 0,180,181
 524 703 524 703 535 684 c 0,182,183
 546 668 546 668 549 641 c 1,184,185
 551 668 551 668 563 684 c 0,186,187
 575 703 575 703 592 703 c 0,0,1
253 151 m 256,188,189
 270 151 270 151 282 134 c 0,190,191
 293 118 293 118 295 89 c 1,192,193
 297 116 297 116 309 134 c 0,194,195
 320 151 320 151 335 151 c 0,196,197
 336 151 336 151 337 151 c 256,198,199
 354 151 354 151 366 134 c 0,200,201
 377 118 377 118 380 89 c 1,202,203
 382 116 382 116 393.5 133.5 c 128,-1,204
 405 151 405 151 422 151 c 128,-1,205
 439 151 439 151 451 134 c 0,206,207
 462 118 462 118 464 89 c 1,208,209
 466 116 466 116 477.5 133.5 c 128,-1,210
 489 151 489 151 507 151 c 128,-1,211
 525 151 525 151 537 131.5 c 128,-1,212
 549 112 549 112 549 83 c 256,213,214
 549 53 549 53 537 33.5 c 128,-1,215
 525 14 525 14 507 14 c 0,216,217
 490 14 490 14 478 31.5 c 128,-1,218
 466 49 466 49 464 76 c 1,219,220
 462 50 462 50 451 31 c 0,221,222
 440 14 440 14 424 14 c 0,223,224
 423 14 423 14 422 14 c 0,225,226
 405 14 405 14 393.5 31.5 c 128,-1,227
 382 49 382 49 380 76 c 1,228,229
 378 50 378 50 366 31 c 0,230,231
 355 14 355 14 339 14 c 0,232,233
 338 14 338 14 337 14 c 0,234,235
 320 14 320 14 308.5 31.5 c 128,-1,236
 297 49 297 49 295 76 c 1,237,238
 293 50 293 50 282 31 c 0,239,240
 271 14 271 14 255 14 c 0,241,242
 254 14 254 14 253 14 c 0,243,244
 236 14 236 14 224 31.5 c 128,-1,245
 212 49 212 49 211 76 c 1,246,247
 209 50 209 50 197 31 c 0,248,249
 186 14 186 14 170 14 c 0,250,251
 169 14 169 14 168 14 c 0,252,253
 150 14 150 14 137.5 33.5 c 128,-1,254
 125 53 125 53 125 83 c 256,255,256
 125 113 125 113 137.5 132 c 128,-1,257
 150 151 150 151 168 151 c 0,258,259
 185 151 185 151 197 134 c 0,260,261
 208 118 208 118 211 89 c 1,262,263
 213 116 213 116 224 134 c 0,264,265
 236 151 236 151 253 151 c 256,188,189
EndSplineSet
Validated: 1
EndChar

StartChar: E
Encoding: 69 69 37
Width: 675
VWidth: 1222
Flags: W
LayerCount: 2
Fore
SplineSet
592 703 m 0,0,1
 610 703 610 703 622 683 c 128,-1,2
 634 663 634 663 634 634 c 0,3,4
 634 607 634 607 622.5 587 c 128,-1,5
 611 567 611 567 595 564 c 1,6,7
 612 561 612 561 623 542.5 c 128,-1,8
 634 524 634 524 634 496 c 0,9,10
 634 466 634 466 621.5 446.5 c 128,-1,11
 609 427 609 427 592 427 c 1,12,13
 610 427 610 427 622 407 c 0,14,15
 634 386 634 386 634 358 c 0,16,17
 634 328 634 328 621 310 c 0,18,19
 610 292 610 292 595 290 c 1,20,21
 610 289 610 289 621 270 c 0,22,23
 633 250 633 250 634 220 c 0,24,25
 634 193 634 193 622.5 173.5 c 128,-1,26
 611 154 611 154 595 151 c 1,27,28
 612 148 612 148 623 128.5 c 128,-1,29
 634 109 634 109 634 83 c 0,30,31
 634 53 634 53 621.5 33.5 c 128,-1,32
 609 14 609 14 592 14 c 0,33,34
 574 14 574 14 561.5 33.5 c 128,-1,35
 549 53 549 53 549 83 c 0,36,37
 549 110 549 110 560 130 c 0,38,39
 570 149 570 149 587 151 c 1,40,41
 570 155 570 155 560 174 c 0,42,43
 549 193 549 193 549 220 c 128,-1,44
 549 247 549 247 560 267 c 0,45,46
 570 286 570 286 587 290 c 1,47,48
 570 294 570 294 560 311 c 0,49,50
 549 330 549 330 549 358 c 0,51,52
 549 385 549 385 560 406 c 0,53,54
 570 425 570 425 587 427 c 1,55,56
 570 431 570 431 560 449 c 0,57,58
 549 468 549 468 549 496 c 0,59,60
 549 523 549 523 560 543 c 0,61,62
 570 562 570 562 587 564 c 1,63,64
 571 568 571 568 560.5 585.5 c 128,-1,65
 550 603 550 603 549 626 c 1,66,67
 547 600 547 600 535 583 c 0,68,69
 523 565 523 565 507 564 c 0,70,71
 490 564 490 564 478 582.5 c 128,-1,72
 466 601 466 601 464 626 c 1,73,74
 462 600 462 600 451 583 c 0,75,76
 439 565 439 565 422 564 c 0,77,78
 405 564 405 564 393.5 582.5 c 128,-1,79
 382 601 382 601 380 626 c 1,80,81
 378 600 378 600 366 583 c 0,82,83
 355 568 355 568 340 564 c 1,84,85
 355 563 355 563 367 546 c 0,86,87
 379 526 379 526 380 496 c 0,88,89
 380 469 380 469 369 449.5 c 128,-1,90
 358 430 358 430 340 427 c 1,91,92
 356 424 356 424 368 404 c 0,93,94
 380 384 380 384 380 358 c 0,95,96
 380 328 380 328 367.5 309 c 128,-1,97
 355 290 355 290 337 290 c 1,98,99
 355 290 355 290 367.5 269.5 c 128,-1,100
 380 249 380 249 380 220 c 256,101,102
 380 190 380 190 367.5 170.5 c 128,-1,103
 355 151 355 151 337 151 c 256,104,105
 319 151 319 151 307 171.5 c 128,-1,106
 295 192 295 192 295 220 c 0,107,108
 295 247 295 247 307 267 c 0,109,110
 317 286 317 286 333 290 c 1,111,112
 316 294 316 294 307 311 c 0,113,114
 296 330 296 330 295 358 c 0,115,116
 295 385 295 385 307 406 c 0,117,118
 317 425 317 425 333 427 c 1,119,120
 316 431 316 431 307 449 c 0,121,122
 296 468 296 468 295 496 c 0,123,124
 295 523 295 523 307 543 c 0,125,126
 317 562 317 562 333 564 c 1,127,128
 317 568 317 568 307 585.5 c 128,-1,129
 297 603 297 603 295 626 c 1,130,131
 293 600 293 600 282 583 c 0,132,133
 270 565 270 565 253 564 c 0,134,135
 236 564 236 564 224 582.5 c 128,-1,136
 212 601 212 601 211 626 c 1,137,138
 209 600 209 600 197 583 c 128,-1,139
 185 566 185 566 168 564 c 0,140,141
 151 564 151 564 139 582.5 c 128,-1,142
 127 601 127 601 125 626 c 1,143,144
 123 603 123 603 112.5 585.5 c 128,-1,145
 102 568 102 568 87 564 c 1,146,147
 103 561 103 561 114 542.5 c 128,-1,148
 125 524 125 524 125 496 c 0,149,150
 125 469 125 469 115 449 c 0,151,152
 104 431 104 431 87 427 c 1,153,154
 103 424 103 424 114 404 c 0,155,156
 125 384 125 384 125 358 c 256,157,158
 125 331 125 331 114.5 312 c 128,-1,159
 104 293 104 293 87 290 c 1,160,161
 104 287 104 287 114.5 267.5 c 128,-1,162
 125 248 125 248 125 220 c 0,163,164
 125 193 125 193 114.5 173.5 c 128,-1,165
 104 154 104 154 87 151 c 1,166,167
 104 148 104 148 114.5 128.5 c 128,-1,168
 125 109 125 109 125 83 c 0,169,170
 125 53 125 53 113.5 33.5 c 128,-1,171
 102 14 102 14 83 14 c 256,172,173
 65 14 65 14 53 33.5 c 128,-1,174
 41 53 41 53 41 83 c 0,175,176
 41 110 41 110 52 130 c 0,177,178
 62 149 62 149 79 151 c 1,179,180
 62 155 62 155 51.5 174 c 128,-1,181
 41 193 41 193 41 220 c 256,182,183
 41 247 41 247 52 267 c 0,184,185
 62 286 62 286 79 290 c 1,186,187
 62 294 62 294 52 311 c 0,188,189
 41 330 41 330 41 358 c 0,190,191
 41 385 41 385 52 406 c 0,192,193
 62 425 62 425 79 427 c 1,194,195
 62 431 62 431 52 449 c 0,196,197
 41 468 41 468 41 496 c 0,198,199
 41 523 41 523 52 543 c 0,200,201
 62 562 62 562 79 564 c 1,202,203
 62 568 62 568 51.5 587 c 128,-1,204
 41 606 41 606 41 634 c 0,205,206
 41 664 41 664 53.5 683.5 c 128,-1,207
 66 703 66 703 83 703 c 128,-1,208
 100 703 100 703 112 684 c 0,209,210
 123 668 123 668 125 641 c 1,211,212
 127 668 127 668 140 684 c 0,213,214
 152 702 152 702 168 703 c 0,215,216
 185 703 185 703 197 684 c 0,217,218
 208 668 208 668 211 641 c 1,219,220
 213 668 213 668 224 684 c 0,221,222
 236 702 236 702 253 703 c 0,223,224
 270 703 270 703 282 684 c 0,225,226
 293 668 293 668 295 641 c 1,227,228
 297 668 297 668 309 684 c 0,229,230
 321 702 321 702 337 703 c 0,231,232
 354 703 354 703 366 684 c 0,233,234
 377 668 377 668 380 641 c 1,235,236
 382 668 382 668 393 684 c 0,237,238
 405 702 405 702 422 703 c 0,239,240
 439 703 439 703 451 684 c 0,241,242
 462 668 462 668 464 641 c 1,243,244
 466 668 466 668 478 684 c 0,245,246
 490 702 490 702 507 703 c 0,247,248
 524 703 524 703 535 684 c 0,249,250
 546 668 546 668 549 641 c 1,251,252
 551 668 551 668 563 684 c 0,253,254
 575 703 575 703 592 703 c 0,0,1
EndSplineSet
Validated: 1
EndChar

StartChar: F
Encoding: 70 70 38
Width: 675
VWidth: 1222
Flags: W
LayerCount: 2
Fore
SplineSet
592 703 m 0,0,1
 610 703 610 703 622 683 c 128,-1,2
 634 663 634 663 634 634 c 0,3,4
 634 604 634 604 621.5 584 c 128,-1,5
 609 564 609 564 592 564 c 1,6,7
 610 564 610 564 622 544.5 c 128,-1,8
 634 525 634 525 634 496 c 0,9,10
 634 469 634 469 622.5 449.5 c 128,-1,11
 611 430 611 430 595 427 c 1,12,13
 612 424 612 424 623 404 c 0,14,15
 634 384 634 384 634 358 c 256,16,17
 634 331 634 331 622.5 312 c 128,-1,18
 611 293 611 293 595 290 c 1,19,20
 612 287 612 287 623 267.5 c 128,-1,21
 634 248 634 248 634 220 c 0,22,23
 634 193 634 193 622 174 c 0,24,25
 611 156 611 156 596 151 c 1,26,27
 612 148 612 148 623 128.5 c 128,-1,28
 634 109 634 109 634 83 c 0,29,30
 634 53 634 53 621.5 33.5 c 128,-1,31
 609 14 609 14 592 14 c 0,32,33
 574 14 574 14 561.5 33.5 c 128,-1,34
 549 53 549 53 549 83 c 0,35,36
 549 110 549 110 560 130 c 0,37,38
 570 149 570 149 587 151 c 1,39,40
 570 155 570 155 560 174 c 0,41,42
 549 193 549 193 549 220 c 128,-1,43
 549 247 549 247 560 267 c 0,44,45
 570 286 570 286 587 290 c 1,46,47
 570 294 570 294 560 311 c 0,48,49
 549 330 549 330 549 358 c 0,50,51
 549 385 549 385 560 406 c 0,52,53
 570 425 570 425 587 427 c 1,54,55
 570 431 570 431 560 449 c 0,56,57
 549 468 549 468 549 496 c 0,58,59
 549 523 549 523 560 543 c 0,60,61
 570 562 570 562 587 564 c 1,62,63
 571 568 571 568 560.5 585.5 c 128,-1,64
 550 603 550 603 549 626 c 1,65,66
 547 600 547 600 535 583 c 0,67,68
 523 565 523 565 507 564 c 0,69,70
 490 564 490 564 478 582.5 c 128,-1,71
 466 601 466 601 464 626 c 1,72,73
 462 600 462 600 451 583 c 0,74,75
 439 565 439 565 422 564 c 0,76,77
 405 564 405 564 393.5 582.5 c 128,-1,78
 382 601 382 601 380 626 c 1,79,80
 378 600 378 600 366 583 c 128,-1,81
 354 566 354 566 337 564 c 1,82,83
 355 564 355 564 367.5 544.5 c 128,-1,84
 380 525 380 525 380 496 c 0,85,86
 380 469 380 469 368 449 c 0,87,88
 357 431 357 431 342 427 c 1,89,90
 358 424 358 424 369 404 c 0,91,92
 380 384 380 384 380 358 c 256,93,94
 380 331 380 331 368 311 c 0,95,96
 357 293 357 293 342 290 c 1,97,98
 358 287 358 287 369 267.5 c 128,-1,99
 380 248 380 248 380 220 c 0,100,101
 380 190 380 190 367.5 170.5 c 128,-1,102
 355 151 355 151 337 151 c 256,103,104
 319 151 319 151 307 171.5 c 128,-1,105
 295 192 295 192 295 220 c 0,106,107
 295 247 295 247 307 267 c 0,108,109
 317 286 317 286 333 290 c 1,110,111
 316 294 316 294 307 311 c 0,112,113
 296 330 296 330 295 358 c 0,114,115
 295 385 295 385 307 406 c 0,116,117
 317 425 317 425 333 427 c 1,118,119
 316 431 316 431 307 449 c 0,120,121
 296 468 296 468 295 496 c 0,122,123
 295 523 295 523 307 543 c 0,124,125
 317 562 317 562 333 564 c 1,126,127
 317 568 317 568 307 585.5 c 128,-1,128
 297 603 297 603 295 626 c 1,129,130
 293 600 293 600 282 583 c 0,131,132
 270 565 270 565 253 564 c 0,133,134
 236 564 236 564 224 582.5 c 128,-1,135
 212 601 212 601 211 626 c 1,136,137
 209 600 209 600 197 583 c 128,-1,138
 185 566 185 566 168 564 c 0,139,140
 151 564 151 564 139 582.5 c 128,-1,141
 127 601 127 601 125 626 c 1,142,143
 123 600 123 600 112 583 c 0,144,145
 100 565 100 565 83 564 c 0,146,147
 65 564 65 564 53 584.5 c 128,-1,148
 41 605 41 605 41 634 c 256,149,150
 41 664 41 664 53.5 683.5 c 128,-1,151
 66 703 66 703 83 703 c 128,-1,152
 100 703 100 703 112 684 c 0,153,154
 123 668 123 668 125 641 c 1,155,156
 127 668 127 668 140 684 c 0,157,158
 152 702 152 702 168 703 c 0,159,160
 185 703 185 703 197 684 c 0,161,162
 208 668 208 668 211 641 c 1,163,164
 213 668 213 668 224 684 c 0,165,166
 236 702 236 702 253 703 c 0,167,168
 270 703 270 703 282 684 c 0,169,170
 293 668 293 668 295 641 c 1,171,172
 297 668 297 668 309 684 c 0,173,174
 321 702 321 702 337 703 c 0,175,176
 354 703 354 703 366 684 c 0,177,178
 377 668 377 668 380 641 c 1,179,180
 382 668 382 668 393 684 c 0,181,182
 405 702 405 702 422 703 c 0,183,184
 439 703 439 703 451 684 c 0,185,186
 462 668 462 668 464 641 c 1,187,188
 466 668 466 668 478 684 c 0,189,190
 490 702 490 702 507 703 c 0,191,192
 524 703 524 703 535 684 c 0,193,194
 546 668 546 668 549 641 c 1,195,196
 551 668 551 668 563 684 c 0,197,198
 575 703 575 703 592 703 c 0,0,1
EndSplineSet
Validated: 1
EndChar

StartChar: G
Encoding: 71 71 39
Width: 675
VWidth: 1222
Flags: W
LayerCount: 2
Fore
SplineSet
253 151 m 256,0,1
 270 151 270 151 282 134 c 0,2,3
 293 118 293 118 295 89 c 1,4,5
 297 115 297 115 307 132 c 128,-1,6
 317 149 317 149 333 151 c 1,7,8
 316 155 316 155 307 174 c 0,9,10
 296 193 296 193 295 220 c 0,11,12
 295 247 295 247 307 267 c 0,13,14
 317 286 317 286 333 290 c 1,15,16
 316 294 316 294 307 311 c 0,17,18
 296 330 296 330 295 358 c 0,19,20
 295 388 295 388 307.5 407.5 c 128,-1,21
 320 427 320 427 337 427 c 0,22,23
 356 427 356 427 368 407 c 0,24,25
 380 386 380 386 380 358 c 0,26,27
 380 328 380 328 367 310 c 0,28,29
 356 292 356 292 340 290 c 1,30,31
 355 289 355 289 367 270 c 0,32,33
 379 250 379 250 380 220 c 0,34,35
 380 190 380 190 367.5 170.5 c 128,-1,36
 355 151 355 151 337 151 c 1,37,38
 355 151 355 151 367.5 131.5 c 128,-1,39
 380 112 380 112 380 83 c 256,40,41
 380 53 380 53 367.5 33.5 c 128,-1,42
 355 14 355 14 337 14 c 0,43,44
 320 14 320 14 308.5 31.5 c 128,-1,45
 297 49 297 49 295 76 c 1,46,47
 293 50 293 50 282 31 c 0,48,49
 271 14 271 14 255 14 c 0,50,51
 254 14 254 14 253 14 c 0,52,53
 236 14 236 14 224 31.5 c 128,-1,54
 212 49 212 49 211 76 c 1,55,56
 209 50 209 50 197 31 c 0,57,58
 186 14 186 14 170 14 c 0,59,60
 169 14 169 14 168 14 c 256,61,62
 151 14 151 14 139 31.5 c 128,-1,63
 127 49 127 49 125 76 c 1,64,65
 123 50 123 50 112 31 c 0,66,67
 101 14 101 14 85 14 c 0,68,69
 84 14 84 14 83 14 c 0,70,71
 65 14 65 14 53 33.5 c 128,-1,72
 41 53 41 53 41 83 c 0,73,74
 41 110 41 110 52 130 c 0,75,76
 62 149 62 149 79 151 c 1,77,78
 62 155 62 155 51.5 174 c 128,-1,79
 41 193 41 193 41 220 c 256,80,81
 41 247 41 247 52 267 c 0,82,83
 62 286 62 286 79 290 c 1,84,85
 62 294 62 294 52 311 c 0,86,87
 41 330 41 330 41 358 c 0,88,89
 41 385 41 385 52 406 c 0,90,91
 62 425 62 425 79 427 c 1,92,93
 62 431 62 431 52 449 c 0,94,95
 41 468 41 468 41 496 c 0,96,97
 41 526 41 526 53.5 545 c 128,-1,98
 66 564 66 564 83 564 c 0,99,100
 101 564 101 564 113 544.5 c 128,-1,101
 125 525 125 525 125 496 c 256,102,103
 125 466 125 466 113 447 c 0,104,105
 102 429 102 429 87 427 c 1,106,107
 102 426 102 426 113 408 c 0,108,109
 125 388 125 388 125 358 c 0,110,111
 125 331 125 331 115 311 c 0,112,113
 104 293 104 293 87 290 c 1,114,115
 103 287 103 287 114 267.5 c 128,-1,116
 125 248 125 248 125 220 c 0,117,118
 125 190 125 190 113.5 170.5 c 128,-1,119
 102 151 102 151 83 151 c 1,120,121
 100 151 100 151 112 134 c 0,122,123
 123 118 123 118 125 89 c 1,124,125
 127 116 127 116 140 134 c 0,126,127
 151 151 151 151 166 151 c 0,128,129
 167 151 167 151 168 151 c 0,130,131
 185 151 185 151 197 134 c 0,132,133
 208 118 208 118 211 89 c 1,134,135
 213 116 213 116 224 134 c 0,136,137
 236 151 236 151 253 151 c 256,0,1
253 703 m 256,138,139
 270 703 270 703 282 684 c 0,140,141
 293 668 293 668 295 641 c 1,142,143
 297 668 297 668 309 684 c 0,144,145
 321 702 321 702 337 703 c 0,146,147
 354 703 354 703 366 684 c 0,148,149
 377 668 377 668 380 641 c 1,150,151
 382 668 382 668 393 684 c 0,152,153
 405 702 405 702 422 703 c 0,154,155
 439 703 439 703 451 684 c 0,156,157
 462 668 462 668 464 641 c 1,158,159
 466 668 466 668 478 684 c 0,160,161
 490 702 490 702 507 703 c 0,162,163
 525 703 525 703 537 683 c 128,-1,164
 549 663 549 663 549 634 c 0,165,166
 549 604 549 604 537 584 c 128,-1,167
 525 564 525 564 507 564 c 0,168,169
 490 564 490 564 478 582.5 c 128,-1,170
 466 601 466 601 464 626 c 1,171,172
 462 600 462 600 451 583 c 0,173,174
 439 565 439 565 422 564 c 0,175,176
 405 564 405 564 393.5 582.5 c 128,-1,177
 382 601 382 601 380 626 c 1,178,179
 378 600 378 600 366 583 c 128,-1,180
 354 566 354 566 337 564 c 0,181,182
 320 564 320 564 308.5 582.5 c 128,-1,183
 297 601 297 601 295 626 c 1,184,185
 293 600 293 600 282 583 c 0,186,187
 270 565 270 565 253 564 c 0,188,189
 236 564 236 564 224 582.5 c 128,-1,190
 212 601 212 601 211 626 c 1,191,192
 209 600 209 600 197 583 c 128,-1,193
 185 566 185 566 168 564 c 0,194,195
 150 564 150 564 137.5 584.5 c 128,-1,196
 125 605 125 605 125 634 c 256,197,198
 125 664 125 664 137.5 683.5 c 128,-1,199
 150 703 150 703 168 703 c 0,200,201
 185 703 185 703 197 684 c 0,202,203
 208 668 208 668 211 641 c 1,204,205
 213 668 213 668 224 684 c 0,206,207
 236 703 236 703 253 703 c 256,138,139
592 564 m 256,208,209
 610 564 610 564 622 544.5 c 128,-1,210
 634 525 634 525 634 496 c 0,211,212
 634 469 634 469 622.5 449.5 c 128,-1,213
 611 430 611 430 595 427 c 1,214,215
 612 424 612 424 623 404 c 128,-1,216
 634 384 634 384 634 358 c 256,217,218
 634 331 634 331 622 311 c 0,219,220
 611 293 611 293 596 290 c 1,221,222
 612 287 612 287 623 267.5 c 128,-1,223
 634 248 634 248 634 220 c 0,224,225
 634 190 634 190 621.5 170.5 c 128,-1,226
 609 151 609 151 592 151 c 0,227,228
 574 151 574 151 561.5 171.5 c 128,-1,229
 549 192 549 192 549 220 c 0,230,231
 549 247 549 247 560 267 c 0,232,233
 570 286 570 286 587 290 c 1,234,235
 570 294 570 294 560 311 c 0,236,237
 549 330 549 330 549 358 c 0,238,239
 549 385 549 385 560 406 c 0,240,241
 570 425 570 425 587 427 c 1,242,243
 570 431 570 431 560 449 c 0,244,245
 549 468 549 468 549 496 c 0,246,247
 549 526 549 526 561.5 545 c 128,-1,248
 574 564 574 564 592 564 c 256,208,209
507 151 m 256,249,250
 525 151 525 151 537 131.5 c 128,-1,251
 549 112 549 112 549 83 c 256,252,253
 549 53 549 53 537 33.5 c 128,-1,254
 525 14 525 14 507 14 c 256,255,256
 489 14 489 14 476.5 33.5 c 128,-1,257
 464 53 464 53 464 83 c 256,258,259
 464 113 464 113 476.5 132 c 128,-1,260
 489 151 489 151 507 151 c 256,249,250
EndSplineSet
Validated: 1
EndChar

StartChar: H
Encoding: 72 72 40
Width: 675
VWidth: 1222
Flags: W
LayerCount: 2
Fore
SplineSet
253 151 m 256,0,1
 270 151 270 151 282 134 c 0,2,3
 293 118 293 118 295 89 c 1,4,5
 297 115 297 115 307 132 c 128,-1,6
 317 149 317 149 333 151 c 1,7,8
 316 155 316 155 307 174 c 0,9,10
 296 193 296 193 295 220 c 0,11,12
 295 247 295 247 307 267 c 0,13,14
 317 286 317 286 333 290 c 1,15,16
 316 294 316 294 307 311 c 0,17,18
 296 330 296 330 295 358 c 0,19,20
 295 385 295 385 307 406 c 0,21,22
 317 425 317 425 333 427 c 1,23,24
 316 431 316 431 307 449 c 0,25,26
 296 468 296 468 295 496 c 0,27,28
 295 523 295 523 307 543 c 0,29,30
 317 562 317 562 333 564 c 1,31,32
 317 568 317 568 307 585.5 c 128,-1,33
 297 603 297 603 295 626 c 1,34,35
 293 600 293 600 282 583 c 0,36,37
 270 565 270 565 253 564 c 0,38,39
 236 564 236 564 224 582.5 c 128,-1,40
 212 601 212 601 211 626 c 1,41,42
 209 600 209 600 197 583 c 128,-1,43
 185 566 185 566 168 564 c 0,44,45
 151 564 151 564 139 582.5 c 128,-1,46
 127 601 127 601 125 626 c 1,47,48
 123 600 123 600 112 583 c 0,49,50
 100 565 100 565 83 564 c 0,51,52
 65 564 65 564 53 584.5 c 128,-1,53
 41 605 41 605 41 634 c 256,54,55
 41 664 41 664 53.5 683.5 c 128,-1,56
 66 703 66 703 83 703 c 128,-1,57
 100 703 100 703 112 684 c 0,58,59
 123 668 123 668 125 641 c 1,60,61
 127 668 127 668 140 684 c 0,62,63
 152 702 152 702 168 703 c 0,64,65
 185 703 185 703 197 684 c 0,66,67
 208 668 208 668 211 641 c 1,68,69
 213 668 213 668 224 684 c 0,70,71
 236 702 236 702 253 703 c 0,72,73
 270 703 270 703 282 684 c 0,74,75
 293 668 293 668 295 641 c 1,76,77
 297 668 297 668 309 684 c 0,78,79
 321 702 321 702 337 703 c 0,80,81
 354 703 354 703 366 684 c 0,82,83
 377 668 377 668 380 641 c 1,84,85
 382 668 382 668 393 684 c 0,86,87
 405 702 405 702 422 703 c 0,88,89
 439 703 439 703 451 684 c 0,90,91
 462 668 462 668 464 641 c 1,92,93
 466 668 466 668 478 684 c 0,94,95
 490 702 490 702 507 703 c 0,96,97
 524 703 524 703 535 684 c 0,98,99
 546 668 546 668 549 641 c 1,100,101
 551 668 551 668 563 684 c 0,102,103
 575 702 575 702 592 703 c 0,104,105
 610 703 610 703 622 683 c 128,-1,106
 634 663 634 663 634 634 c 0,107,108
 634 604 634 604 621.5 584 c 128,-1,109
 609 564 609 564 592 564 c 128,-1,110
 575 564 575 564 562.5 582.5 c 128,-1,111
 550 601 550 601 549 626 c 1,112,113
 547 600 547 600 535 583 c 0,114,115
 523 565 523 565 507 564 c 0,116,117
 490 564 490 564 478 582.5 c 128,-1,118
 466 601 466 601 464 626 c 1,119,120
 462 600 462 600 451 583 c 0,121,122
 439 565 439 565 422 564 c 0,123,124
 405 564 405 564 393.5 582.5 c 128,-1,125
 382 601 382 601 380 626 c 1,126,127
 378 600 378 600 366 583 c 128,-1,128
 354 566 354 566 337 564 c 1,129,130
 355 564 355 564 367.5 544.5 c 128,-1,131
 380 525 380 525 380 496 c 0,132,133
 380 469 380 469 369 449.5 c 128,-1,134
 358 430 358 430 340 427 c 1,135,136
 356 424 356 424 368 404 c 128,-1,137
 380 384 380 384 380 358 c 0,138,139
 380 328 380 328 367.5 309 c 128,-1,140
 355 290 355 290 337 290 c 1,141,142
 355 290 355 290 367.5 269.5 c 128,-1,143
 380 249 380 249 380 220 c 256,144,145
 380 190 380 190 367.5 170.5 c 128,-1,146
 355 151 355 151 337 151 c 1,147,148
 354 151 354 151 366 134 c 0,149,150
 377 118 377 118 380 89 c 1,151,152
 382 116 382 116 393.5 133.5 c 128,-1,153
 405 151 405 151 422 151 c 128,-1,154
 439 151 439 151 451 134 c 0,155,156
 462 118 462 118 464 89 c 1,157,158
 466 116 466 116 477.5 133.5 c 128,-1,159
 489 151 489 151 507 151 c 0,160,161
 524 151 524 151 535 134 c 0,162,163
 546 118 546 118 549 89 c 1,164,165
 551 116 551 116 563 134 c 0,166,167
 574 151 574 151 590 151 c 0,168,169
 591 151 591 151 592 151 c 0,170,171
 610 151 610 151 622 131.5 c 128,-1,172
 634 112 634 112 634 83 c 256,173,174
 634 53 634 53 621.5 33.5 c 128,-1,175
 609 14 609 14 592 14 c 128,-1,176
 575 14 575 14 562.5 31.5 c 128,-1,177
 550 49 550 49 549 76 c 1,178,179
 547 50 547 50 535 31 c 0,180,181
 524 14 524 14 509 14 c 0,182,183
 508 14 508 14 507 14 c 0,184,185
 490 14 490 14 478 31.5 c 128,-1,186
 466 49 466 49 464 76 c 1,187,188
 462 50 462 50 451 31 c 0,189,190
 440 14 440 14 424 14 c 0,191,192
 423 14 423 14 422 14 c 0,193,194
 405 14 405 14 393.5 31.5 c 128,-1,195
 382 49 382 49 380 76 c 1,196,197
 378 50 378 50 366 31 c 0,198,199
 355 14 355 14 339 14 c 0,200,201
 338 14 338 14 337 14 c 0,202,203
 320 14 320 14 308.5 31.5 c 128,-1,204
 297 49 297 49 295 76 c 1,205,206
 293 50 293 50 282 31 c 0,207,208
 271 14 271 14 255 14 c 0,209,210
 254 14 254 14 253 14 c 0,211,212
 236 14 236 14 224 31.5 c 128,-1,213
 212 49 212 49 211 76 c 1,214,215
 209 50 209 50 197 31 c 0,216,217
 186 14 186 14 170 14 c 0,218,219
 169 14 169 14 168 14 c 256,220,221
 151 14 151 14 139 31.5 c 128,-1,222
 127 49 127 49 125 76 c 1,223,224
 123 50 123 50 112 31 c 0,225,226
 101 14 101 14 85 14 c 0,227,228
 84 14 84 14 83 14 c 0,229,230
 65 14 65 14 53 33.5 c 128,-1,231
 41 53 41 53 41 83 c 256,232,233
 41 113 41 113 53.5 132 c 128,-1,234
 66 151 66 151 83 151 c 128,-1,235
 100 151 100 151 112 134 c 0,236,237
 123 118 123 118 125 89 c 1,238,239
 127 116 127 116 140 134 c 0,240,241
 151 151 151 151 166 151 c 0,242,243
 167 151 167 151 168 151 c 0,244,245
 185 151 185 151 197 134 c 0,246,247
 208 118 208 118 211 89 c 1,248,249
 213 116 213 116 224 134 c 0,250,251
 236 151 236 151 253 151 c 256,0,1
EndSplineSet
Validated: 1
EndChar

StartChar: I
Encoding: 73 73 41
Width: 675
VWidth: 1222
Flags: W
LayerCount: 2
Fore
SplineSet
507 427 m 256,0,1
 524 427 524 427 535 411 c 0,2,3
 546 395 546 395 549 365 c 1,4,5
 551 391 551 391 561 407.5 c 128,-1,6
 571 424 571 424 587 427 c 1,7,8
 570 430 570 430 560 449 c 0,9,10
 549 468 549 468 549 497 c 0,11,12
 549 527 549 527 561 545.5 c 128,-1,13
 573 564 573 564 592 564 c 256,14,15
 610 564 610 564 622 545.5 c 128,-1,16
 634 527 634 527 634 497 c 256,17,18
 634 467 634 467 621.5 447 c 128,-1,19
 609 427 609 427 592 427 c 1,20,21
 610 427 610 427 622 407 c 128,-1,22
 634 387 634 387 634 360 c 128,-1,23
 634 333 634 333 622 311 c 0,24,25
 611 292 611 292 596 290 c 1,26,27
 612 287 612 287 623 268 c 128,-1,28
 634 249 634 249 634 219.5 c 128,-1,29
 634 190 634 190 621.5 171.5 c 128,-1,30
 609 153 609 153 592 153 c 0,31,32
 574 153 574 153 561.5 173 c 128,-1,33
 549 193 549 193 549 220 c 128,-1,34
 549 247 549 247 560 268 c 0,35,36
 570 287 570 287 587 290 c 1,37,38
 571 294 571 294 560.5 311 c 128,-1,39
 550 328 550 328 549 352 c 1,40,41
 547 328 547 328 535 309 c 0,42,43
 523 290 523 290 507 290 c 0,44,45
 490 290 490 290 478 307.5 c 128,-1,46
 466 325 466 325 464 352 c 1,47,48
 462 328 462 328 451 309 c 0,49,50
 439 290 439 290 422 290 c 0,51,52
 405 290 405 290 393.5 307.5 c 128,-1,53
 382 325 382 325 380 352 c 1,54,55
 378 328 378 328 366 309 c 128,-1,56
 354 290 354 290 337 290 c 0,57,58
 320 290 320 290 308.5 307.5 c 128,-1,59
 297 325 297 325 295 352 c 1,60,61
 293 328 293 328 282 309 c 0,62,63
 270 290 270 290 253 290 c 0,64,65
 236 290 236 290 224 307.5 c 128,-1,66
 212 325 212 325 211 352 c 1,67,68
 209 328 209 328 197 309 c 128,-1,69
 185 290 185 290 168 290 c 256,70,71
 151 290 151 290 139 307.5 c 128,-1,72
 127 325 127 325 125 352 c 1,73,74
 123 330 123 330 113 311 c 0,75,76
 102 292 102 292 87 290 c 1,77,78
 104 287 104 287 114.5 268 c 128,-1,79
 125 249 125 249 125 219.5 c 128,-1,80
 125 190 125 190 113.5 171.5 c 128,-1,81
 102 153 102 153 83 153 c 256,82,83
 65 153 65 153 53 173 c 128,-1,84
 41 193 41 193 41 220 c 128,-1,85
 41 247 41 247 52 268 c 0,86,87
 62 287 62 287 79 290 c 1,88,89
 62 293 62 293 51.5 311.5 c 128,-1,90
 41 330 41 330 41 360 c 0,91,92
 41 387 41 387 52 406 c 0,93,94
 62 425 62 425 79 427 c 1,95,96
 62 430 62 430 51.5 449 c 128,-1,97
 41 468 41 468 41 497.5 c 128,-1,98
 41 527 41 527 53.5 545.5 c 128,-1,99
 66 564 66 564 83 564 c 0,100,101
 101 564 101 564 113 545.5 c 128,-1,102
 125 527 125 527 125 497 c 0,103,104
 125 470 125 470 114.5 450 c 128,-1,105
 104 430 104 430 87 427 c 1,106,107
 102 424 102 424 113 408 c 0,108,109
 123 392 123 392 125 365 c 1,110,111
 127 392 127 392 140 411 c 0,112,113
 152 427 152 427 168 427 c 0,114,115
 185 427 185 427 197 411 c 0,116,117
 208 395 208 395 211 365 c 1,118,119
 213 392 213 392 224 409.5 c 128,-1,120
 235 427 235 427 253 427 c 0,121,122
 270 427 270 427 282 411 c 0,123,124
 293 395 293 395 295 365 c 1,125,126
 297 392 297 392 309 411 c 0,127,128
 321 427 321 427 337 427 c 256,129,130
 354 427 354 427 366 411 c 0,131,132
 377 395 377 395 380 365 c 1,133,134
 382 392 382 392 393.5 409.5 c 128,-1,135
 405 427 405 427 422 427 c 0,136,137
 439 427 439 427 451 411 c 0,138,139
 462 395 462 395 464 365 c 1,140,141
 466 392 466 392 478 411 c 0,142,143
 490 427 490 427 507 427 c 256,0,1
EndSplineSet
Validated: 1
EndChar

StartChar: J
Encoding: 74 74 42
Width: 675
VWidth: 1222
Flags: W
LayerCount: 2
Fore
SplineSet
507 290 m 256,0,1
 524 290 524 290 535 271 c 0,2,3
 546 255 546 255 549 228 c 1,4,5
 551 254 551 254 561 270.5 c 128,-1,6
 571 287 571 287 587 290 c 1,7,8
 570 294 570 294 560 311 c 0,9,10
 549 330 549 330 549 358 c 0,11,12
 549 388 549 388 561 407.5 c 128,-1,13
 573 427 573 427 592 427 c 256,14,15
 610 427 610 427 622 407 c 0,16,17
 634 386 634 386 634 358 c 0,18,19
 634 331 634 331 622 311 c 0,20,21
 611 293 611 293 596 290 c 1,22,23
 612 287 612 287 623 267.5 c 128,-1,24
 634 248 634 248 634 220 c 0,25,26
 634 190 634 190 621.5 170.5 c 128,-1,27
 609 151 609 151 592 151 c 1,28,29
 610 151 610 151 622 131.5 c 128,-1,30
 634 112 634 112 634 83 c 256,31,32
 634 53 634 53 621.5 33.5 c 128,-1,33
 609 14 609 14 592 14 c 0,34,35
 574 14 574 14 561.5 33.5 c 128,-1,36
 549 53 549 53 549 83 c 0,37,38
 549 110 549 110 560 130 c 0,39,40
 570 149 570 149 587 151 c 1,41,42
 571 155 571 155 560.5 172.5 c 128,-1,43
 550 190 550 190 549 213 c 1,44,45
 547 187 547 187 535 170 c 0,46,47
 523 152 523 152 507 151 c 0,48,49
 490 151 490 151 478 169.5 c 128,-1,50
 466 188 466 188 464 213 c 1,51,52
 462 187 462 187 451 170 c 0,53,54
 439 152 439 152 422 151 c 0,55,56
 405 151 405 151 393.5 169.5 c 128,-1,57
 382 188 382 188 380 213 c 1,58,59
 378 187 378 187 366 170 c 128,-1,60
 354 153 354 153 337 151 c 0,61,62
 320 151 320 151 308.5 169.5 c 128,-1,63
 297 188 297 188 295 213 c 1,64,65
 293 187 293 187 282 170 c 0,66,67
 270 152 270 152 253 151 c 0,68,69
 236 151 236 151 224 169.5 c 128,-1,70
 212 188 212 188 211 213 c 1,71,72
 209 187 209 187 197 170 c 128,-1,73
 185 153 185 153 168 151 c 0,74,75
 150 151 150 151 137.5 171.5 c 128,-1,76
 125 192 125 192 125 220 c 0,77,78
 125 250 125 250 137.5 270 c 128,-1,79
 150 290 150 290 168 290 c 0,80,81
 185 290 185 290 197 271 c 0,82,83
 208 255 208 255 211 228 c 1,84,85
 213 255 213 255 224 271 c 0,86,87
 236 289 236 289 253 290 c 0,88,89
 270 290 270 290 282 271 c 0,90,91
 293 255 293 255 295 228 c 1,92,93
 297 255 297 255 309 271 c 0,94,95
 321 289 321 289 337 290 c 0,96,97
 354 290 354 290 366 271 c 0,98,99
 377 255 377 255 380 228 c 1,100,101
 382 255 382 255 393 271 c 0,102,103
 405 289 405 289 422 290 c 0,104,105
 439 290 439 290 451 271 c 0,106,107
 462 255 462 255 464 228 c 1,108,109
 466 255 466 255 478 271 c 0,110,111
 490 290 490 290 507 290 c 256,0,1
83 564 m 256,112,113
 101 564 101 564 113 544.5 c 128,-1,114
 125 525 125 525 125 496 c 256,115,116
 125 466 125 466 113 447 c 0,117,118
 102 429 102 429 87 427 c 1,119,120
 102 426 102 426 113 408 c 0,121,122
 125 388 125 388 125 358 c 256,123,124
 125 328 125 328 113.5 309 c 128,-1,125
 102 290 102 290 83 290 c 256,126,127
 65 290 65 290 53 310 c 0,128,129
 41 328 41 328 41 358 c 0,130,131
 41 385 41 385 52 406 c 0,132,133
 62 425 62 425 79 427 c 1,134,135
 62 431 62 431 52 449 c 0,136,137
 41 468 41 468 41 496 c 0,138,139
 41 526 41 526 53 545 c 128,-1,140
 65 564 65 564 83 564 c 256,112,113
168 703 m 256,141,142
 186 703 186 703 198.5 683 c 128,-1,143
 211 663 211 663 211 634 c 0,144,145
 211 604 211 604 198.5 584 c 128,-1,146
 186 564 186 564 168 564 c 128,-1,147
 150 564 150 564 137.5 584.5 c 128,-1,148
 125 605 125 605 125 634 c 256,149,150
 125 664 125 664 137.5 683.5 c 128,-1,151
 150 703 150 703 168 703 c 256,141,142
EndSplineSet
Validated: 1
EndChar

StartChar: K
Encoding: 75 75 43
Width: 675
VWidth: 1222
Flags: W
LayerCount: 2
Fore
SplineSet
507 703 m 256,0,1
 524 703 524 703 535 684 c 0,2,3
 546 668 546 668 549 641 c 1,4,5
 551 668 551 668 563 684 c 0,6,7
 575 702 575 702 592 703 c 0,8,9
 610 703 610 703 622 683 c 128,-1,10
 634 663 634 663 634 634 c 0,11,12
 634 604 634 604 621.5 584 c 128,-1,13
 609 564 609 564 592 564 c 128,-1,14
 575 564 575 564 562.5 582.5 c 128,-1,15
 550 601 550 601 549 626 c 1,16,17
 547 600 547 600 535 583 c 0,18,19
 523 565 523 565 507 564 c 0,20,21
 490 564 490 564 478 582.5 c 128,-1,22
 466 601 466 601 464 626 c 1,23,24
 462 600 462 600 451 583 c 0,25,26
 439 565 439 565 422 564 c 0,27,28
 405 564 405 564 393.5 582.5 c 128,-1,29
 382 601 382 601 380 626 c 1,30,31
 378 603 378 603 367 585.5 c 128,-1,32
 356 568 356 568 342 564 c 1,33,34
 358 561 358 561 369 542.5 c 128,-1,35
 380 524 380 524 380 496 c 0,36,37
 380 466 380 466 367.5 446.5 c 128,-1,38
 355 427 355 427 337 427 c 256,39,40
 319 427 319 427 307 447.5 c 128,-1,41
 295 468 295 468 295 496 c 0,42,43
 295 523 295 523 307 543 c 0,44,45
 317 562 317 562 333 564 c 1,46,47
 317 568 317 568 307 585.5 c 128,-1,48
 297 603 297 603 295 626 c 1,49,50
 293 600 293 600 282 583 c 0,51,52
 270 565 270 565 253 564 c 0,53,54
 236 564 236 564 224 582.5 c 128,-1,55
 212 601 212 601 211 626 c 1,56,57
 209 600 209 600 197 583 c 128,-1,58
 185 566 185 566 168 564 c 0,59,60
 151 564 151 564 139 582.5 c 128,-1,61
 127 601 127 601 125 626 c 1,62,63
 123 600 123 600 112 583 c 0,64,65
 100 565 100 565 83 564 c 0,66,67
 65 564 65 564 53 584.5 c 128,-1,68
 41 605 41 605 41 634 c 256,69,70
 41 664 41 664 53.5 683.5 c 128,-1,71
 66 703 66 703 83 703 c 128,-1,72
 100 703 100 703 112 684 c 0,73,74
 123 668 123 668 125 641 c 1,75,76
 127 668 127 668 140 684 c 0,77,78
 152 702 152 702 168 703 c 0,79,80
 185 703 185 703 197 684 c 0,81,82
 208 668 208 668 211 641 c 1,83,84
 213 668 213 668 224 684 c 0,85,86
 236 702 236 702 253 703 c 0,87,88
 270 703 270 703 282 684 c 0,89,90
 293 668 293 668 295 641 c 1,91,92
 297 668 297 668 309 684 c 0,93,94
 321 702 321 702 337 703 c 0,95,96
 354 703 354 703 366 684 c 0,97,98
 377 668 377 668 380 641 c 1,99,100
 382 668 382 668 393 684 c 0,101,102
 405 702 405 702 422 703 c 0,103,104
 439 703 439 703 451 684 c 0,105,106
 462 668 462 668 464 641 c 1,107,108
 466 668 466 668 478 684 c 0,109,110
 490 703 490 703 507 703 c 256,0,1
83 151 m 256,111,112
 101 151 101 151 113 131.5 c 128,-1,113
 125 112 125 112 125 83 c 256,114,115
 125 53 125 53 113.5 33.5 c 128,-1,116
 102 14 102 14 83 14 c 256,117,118
 65 14 65 14 53 33.5 c 128,-1,119
 41 53 41 53 41 83 c 256,120,121
 41 113 41 113 53 132 c 128,-1,122
 65 151 65 151 83 151 c 256,111,112
422 427 m 256,123,124
 440 427 440 427 452 407 c 0,125,126
 464 386 464 386 464 358 c 0,127,128
 464 328 464 328 452 309 c 128,-1,129
 440 290 440 290 422 290 c 128,-1,130
 404 290 404 290 392 310 c 0,131,132
 380 328 380 328 380 358 c 256,133,134
 380 388 380 388 392 407.5 c 128,-1,135
 404 427 404 427 422 427 c 256,123,124
168 290 m 256,136,137
 186 290 186 290 198.5 269.5 c 128,-1,138
 211 249 211 249 211 220 c 256,139,140
 211 190 211 190 198.5 170.5 c 128,-1,141
 186 151 186 151 168 151 c 128,-1,142
 150 151 150 151 137.5 171.5 c 128,-1,143
 125 192 125 192 125 220 c 0,144,145
 125 250 125 250 137.5 270 c 128,-1,146
 150 290 150 290 168 290 c 256,136,137
507 290 m 256,147,148
 525 290 525 290 537 269.5 c 128,-1,149
 549 249 549 249 549 220 c 256,150,151
 549 190 549 190 537 170.5 c 128,-1,152
 525 151 525 151 507 151 c 256,153,154
 489 151 489 151 476.5 171.5 c 128,-1,155
 464 192 464 192 464 220 c 0,156,157
 464 250 464 250 476.5 270 c 128,-1,158
 489 290 489 290 507 290 c 256,147,148
592 151 m 256,159,160
 610 151 610 151 622 131.5 c 128,-1,161
 634 112 634 112 634 83 c 256,162,163
 634 53 634 53 621.5 33.5 c 128,-1,164
 609 14 609 14 592 14 c 0,165,166
 574 14 574 14 561.5 33.5 c 128,-1,167
 549 53 549 53 549 83 c 256,168,169
 549 113 549 113 561.5 132 c 128,-1,170
 574 151 574 151 592 151 c 256,159,160
253 427 m 256,171,172
 271 427 271 427 283 407 c 0,173,174
 295 386 295 386 295 358 c 0,175,176
 295 324 295 324 281.5 307.5 c 128,-1,177
 268 291 268 291 252.5 291 c 128,-1,178
 237 291 237 291 224 308 c 0,179,180
 211 324 211 324 211 358 c 0,181,182
 211 388 211 388 223 407.5 c 128,-1,183
 235 427 235 427 253 427 c 256,171,172
EndSplineSet
Validated: 1
EndChar

StartChar: L
Encoding: 76 76 44
Width: 675
VWidth: 1222
Flags: W
LayerCount: 2
Fore
SplineSet
592 703 m 0,0,1
 610 703 610 703 622 683 c 128,-1,2
 634 663 634 663 634 634 c 0,3,4
 634 604 634 604 621.5 584 c 128,-1,5
 609 564 609 564 592 564 c 128,-1,6
 575 564 575 564 562.5 582.5 c 128,-1,7
 550 601 550 601 549 626 c 1,8,9
 547 600 547 600 535 583 c 0,10,11
 523 565 523 565 507 564 c 0,12,13
 490 564 490 564 478 582.5 c 128,-1,14
 466 601 466 601 464 626 c 1,15,16
 462 600 462 600 451 583 c 0,17,18
 439 565 439 565 422 564 c 0,19,20
 405 564 405 564 393.5 582.5 c 128,-1,21
 382 601 382 601 380 626 c 1,22,23
 378 600 378 600 366 583 c 128,-1,24
 354 566 354 566 337 564 c 0,25,26
 320 564 320 564 308.5 582.5 c 128,-1,27
 297 601 297 601 295 626 c 1,28,29
 293 600 293 600 282 583 c 0,30,31
 270 565 270 565 253 564 c 0,32,33
 236 564 236 564 224 582.5 c 128,-1,34
 212 601 212 601 211 626 c 1,35,36
 209 600 209 600 197 583 c 128,-1,37
 185 566 185 566 168 564 c 0,38,39
 151 564 151 564 139 582.5 c 128,-1,40
 127 601 127 601 125 626 c 1,41,42
 123 600 123 600 112 583 c 0,43,44
 100 565 100 565 83 564 c 1,45,46
 101 564 101 564 113 544.5 c 128,-1,47
 125 525 125 525 125 496 c 0,48,49
 125 469 125 469 114.5 449.5 c 128,-1,50
 104 430 104 430 87 427 c 1,51,52
 104 424 104 424 114 404 c 0,53,54
 124 384 124 384 125 358 c 0,55,56
 125 328 125 328 113.5 309 c 128,-1,57
 102 290 102 290 83 290 c 1,58,59
 101 290 101 290 113 269.5 c 128,-1,60
 125 249 125 249 125 220 c 256,61,62
 125 190 125 190 113.5 170.5 c 128,-1,63
 102 151 102 151 83 151 c 1,64,65
 101 151 101 151 113 131.5 c 128,-1,66
 125 112 125 112 125 83 c 256,67,68
 125 53 125 53 113.5 33.5 c 128,-1,69
 102 14 102 14 83 14 c 256,70,71
 65 14 65 14 53 33.5 c 128,-1,72
 41 53 41 53 41 83 c 0,73,74
 41 110 41 110 52 130 c 0,75,76
 62 149 62 149 79 151 c 1,77,78
 62 155 62 155 51.5 174 c 128,-1,79
 41 193 41 193 41 220 c 256,80,81
 41 247 41 247 52 267 c 0,82,83
 62 286 62 286 79 290 c 1,84,85
 62 294 62 294 52 311 c 0,86,87
 41 330 41 330 41 358 c 0,88,89
 41 385 41 385 52 406 c 0,90,91
 62 425 62 425 79 427 c 1,92,93
 62 431 62 431 52 449 c 0,94,95
 41 468 41 468 41 496 c 0,96,97
 41 523 41 523 52 543 c 0,98,99
 62 562 62 562 79 564 c 1,100,101
 62 568 62 568 51.5 587 c 128,-1,102
 41 606 41 606 41 634 c 0,103,104
 41 664 41 664 53.5 683.5 c 128,-1,105
 66 703 66 703 83 703 c 128,-1,106
 100 703 100 703 112 684 c 0,107,108
 123 668 123 668 125 641 c 1,109,110
 127 668 127 668 140 684 c 0,111,112
 152 702 152 702 168 703 c 0,113,114
 185 703 185 703 197 684 c 0,115,116
 208 668 208 668 211 641 c 1,117,118
 213 668 213 668 224 684 c 0,119,120
 236 702 236 702 253 703 c 0,121,122
 270 703 270 703 282 684 c 0,123,124
 293 668 293 668 295 641 c 1,125,126
 297 668 297 668 309 684 c 0,127,128
 321 702 321 702 337 703 c 0,129,130
 354 703 354 703 366 684 c 0,131,132
 377 668 377 668 380 641 c 1,133,134
 382 668 382 668 393 684 c 0,135,136
 405 702 405 702 422 703 c 0,137,138
 439 703 439 703 451 684 c 0,139,140
 462 668 462 668 464 641 c 1,141,142
 466 668 466 668 478 684 c 0,143,144
 490 702 490 702 507 703 c 0,145,146
 524 703 524 703 535 684 c 0,147,148
 546 668 546 668 549 641 c 1,149,150
 551 668 551 668 563 684 c 0,151,152
 575 703 575 703 592 703 c 0,0,1
EndSplineSet
Validated: 1
EndChar

StartChar: M
Encoding: 77 77 45
Width: 675
VWidth: 1222
Flags: W
LayerCount: 2
Fore
SplineSet
422 151 m 256,0,1
 439 151 439 151 451 134 c 0,2,3
 462 118 462 118 464 89 c 1,4,5
 466 115 466 115 476.5 132 c 128,-1,6
 487 149 487 149 502 151 c 1,7,8
 485 155 485 155 474.5 174 c 128,-1,9
 464 193 464 193 464 220 c 0,10,11
 464 250 464 250 476.5 270 c 128,-1,12
 489 290 489 290 507 290 c 128,-1,13
 525 290 525 290 537 269.5 c 128,-1,14
 549 249 549 249 549 220 c 256,15,16
 549 190 549 190 536 173 c 0,17,18
 525 155 525 155 510 151 c 1,19,20
 524 150 524 150 535 134 c 128,-1,21
 546 118 546 118 549 89 c 1,22,23
 551 116 551 116 563 134 c 0,24,25
 574 151 574 151 590 151 c 0,26,27
 591 151 591 151 592 151 c 0,28,29
 610 151 610 151 622 131.5 c 128,-1,30
 634 112 634 112 634 83 c 256,31,32
 634 53 634 53 621.5 33.5 c 128,-1,33
 609 14 609 14 592 14 c 128,-1,34
 575 14 575 14 562.5 31.5 c 128,-1,35
 550 49 550 49 549 76 c 1,36,37
 547 50 547 50 535 31 c 0,38,39
 524 14 524 14 509 14 c 0,40,41
 508 14 508 14 507 14 c 0,42,43
 490 14 490 14 478 31.5 c 128,-1,44
 466 49 466 49 464 76 c 1,45,46
 462 50 462 50 451 31 c 0,47,48
 440 14 440 14 424 14 c 0,49,50
 423 14 423 14 422 14 c 0,51,52
 405 14 405 14 393.5 31.5 c 128,-1,53
 382 49 382 49 380 76 c 1,54,55
 378 50 378 50 366 31 c 0,56,57
 355 14 355 14 339 14 c 0,58,59
 338 14 338 14 337 14 c 0,60,61
 320 14 320 14 308.5 31.5 c 128,-1,62
 297 49 297 49 295 76 c 1,63,64
 293 50 293 50 282 31 c 0,65,66
 271 14 271 14 255 14 c 0,67,68
 254 14 254 14 253 14 c 0,69,70
 236 14 236 14 224 31.5 c 128,-1,71
 212 49 212 49 211 76 c 1,72,73
 209 50 209 50 197 31 c 0,74,75
 186 14 186 14 170 14 c 0,76,77
 169 14 169 14 168 14 c 256,78,79
 151 14 151 14 139 31.5 c 128,-1,80
 127 49 127 49 125 76 c 1,81,82
 123 50 123 50 112 31 c 0,83,84
 101 14 101 14 85 14 c 0,85,86
 84 14 84 14 83 14 c 0,87,88
 65 14 65 14 53 33.5 c 128,-1,89
 41 53 41 53 41 83 c 256,90,91
 41 113 41 113 53.5 132 c 128,-1,92
 66 151 66 151 83 151 c 128,-1,93
 100 151 100 151 112 134 c 0,94,95
 123 118 123 118 125 89 c 1,96,97
 127 116 127 116 140 134 c 0,98,99
 151 151 151 151 166 151 c 0,100,101
 167 151 167 151 168 151 c 0,102,103
 185 151 185 151 197 134 c 0,104,105
 208 118 208 118 211 89 c 1,106,107
 213 116 213 116 224 133.5 c 128,-1,108
 235 151 235 151 253 151 c 0,109,110
 270 151 270 151 282 134 c 0,111,112
 293 118 293 118 295 89 c 1,113,114
 297 116 297 116 309 134 c 0,115,116
 320 151 320 151 335 151 c 0,117,118
 336 151 336 151 337 151 c 256,119,120
 354 151 354 151 366 134 c 0,121,122
 377 118 377 118 380 89 c 1,123,124
 382 116 382 116 393 134 c 0,125,126
 405 151 405 151 422 151 c 256,0,1
507 703 m 256,127,128
 524 703 524 703 535 684 c 0,129,130
 546 668 546 668 549 641 c 1,131,132
 551 668 551 668 563 684 c 0,133,134
 575 702 575 702 592 703 c 0,135,136
 610 703 610 703 622 683 c 128,-1,137
 634 663 634 663 634 634 c 0,138,139
 634 604 634 604 621.5 584 c 128,-1,140
 609 564 609 564 592 564 c 128,-1,141
 575 564 575 564 562.5 582.5 c 128,-1,142
 550 601 550 601 549 626 c 1,143,144
 547 600 547 600 535 583 c 0,145,146
 524 568 524 568 510 564 c 1,147,148
 525 563 525 563 536 546 c 0,149,150
 548 526 548 526 549 496 c 256,151,152
 549 466 549 466 537 446.5 c 128,-1,153
 525 427 525 427 507 427 c 256,154,155
 489 427 489 427 476.5 447.5 c 128,-1,156
 464 468 464 468 464 496 c 0,157,158
 464 523 464 523 475 543 c 0,159,160
 485 562 485 562 502 564 c 1,161,162
 486 568 486 568 476 585.5 c 128,-1,163
 466 603 466 603 464 626 c 1,164,165
 462 600 462 600 451 583 c 0,166,167
 439 565 439 565 422 564 c 0,168,169
 405 564 405 564 393.5 582.5 c 128,-1,170
 382 601 382 601 380 626 c 1,171,172
 378 600 378 600 366 583 c 128,-1,173
 354 566 354 566 337 564 c 0,174,175
 320 564 320 564 308.5 582.5 c 128,-1,176
 297 601 297 601 295 626 c 1,177,178
 293 600 293 600 282 583 c 0,179,180
 270 565 270 565 253 564 c 0,181,182
 236 564 236 564 224 582.5 c 128,-1,183
 212 601 212 601 211 626 c 1,184,185
 209 600 209 600 197 583 c 128,-1,186
 185 566 185 566 168 564 c 0,187,188
 151 564 151 564 139 582.5 c 128,-1,189
 127 601 127 601 125 626 c 1,190,191
 123 600 123 600 112 583 c 0,192,193
 100 565 100 565 83 564 c 0,194,195
 65 564 65 564 53 584.5 c 128,-1,196
 41 605 41 605 41 634 c 256,197,198
 41 664 41 664 53.5 683.5 c 128,-1,199
 66 703 66 703 83 703 c 128,-1,200
 100 703 100 703 112 684 c 0,201,202
 123 668 123 668 125 641 c 1,203,204
 127 668 127 668 140 684 c 0,205,206
 152 702 152 702 168 703 c 0,207,208
 185 703 185 703 197 684 c 0,209,210
 208 668 208 668 211 641 c 1,211,212
 213 668 213 668 224 684 c 0,213,214
 236 702 236 702 253 703 c 0,215,216
 270 703 270 703 282 684 c 0,217,218
 293 668 293 668 295 641 c 1,219,220
 297 668 297 668 309 684 c 0,221,222
 321 702 321 702 337 703 c 0,223,224
 354 703 354 703 366 684 c 0,225,226
 377 668 377 668 380 641 c 1,227,228
 382 668 382 668 393 684 c 0,229,230
 405 702 405 702 422 703 c 0,231,232
 439 703 439 703 451 684 c 0,233,234
 462 668 462 668 464 641 c 1,235,236
 466 668 466 668 478 684 c 0,237,238
 490 703 490 703 507 703 c 256,127,128
422 427 m 256,239,240
 440 427 440 427 452 407 c 0,241,242
 464 386 464 386 464 358 c 0,243,244
 464 328 464 328 452 309 c 128,-1,245
 440 290 440 290 422 290 c 128,-1,246
 404 290 404 290 392 310 c 0,247,248
 380 328 380 328 380 358 c 256,249,250
 380 388 380 388 392 407.5 c 128,-1,251
 404 427 404 427 422 427 c 256,239,240
EndSplineSet
Validated: 1
EndChar

StartChar: N
Encoding: 78 78 46
Width: 675
VWidth: 1222
Flags: W
LayerCount: 2
Fore
SplineSet
83 151 m 0,0,1
 100 151 100 151 112 134 c 0,2,3
 123 118 123 118 125 89 c 1,4,5
 127 115 127 115 137.5 132 c 128,-1,6
 148 149 148 149 164 151 c 1,7,8
 147 155 147 155 137 174 c 0,9,10
 126 193 126 193 125 220 c 0,11,12
 125 250 125 250 137.5 270 c 128,-1,13
 150 290 150 290 168 290 c 256,14,15
 186 290 186 290 198.5 269.5 c 128,-1,16
 211 249 211 249 211 220 c 256,17,18
 211 190 211 190 198.5 170.5 c 128,-1,19
 186 151 186 151 168 151 c 1,20,21
 185 151 185 151 197 134 c 0,22,23
 208 118 208 118 211 89 c 1,24,25
 213 116 213 116 224 133.5 c 128,-1,26
 235 151 235 151 253 151 c 0,27,28
 270 151 270 151 282 134 c 0,29,30
 293 118 293 118 295 89 c 1,31,32
 297 116 297 116 309 134 c 0,33,34
 320 151 320 151 335 151 c 0,35,36
 336 151 336 151 337 151 c 256,37,38
 354 151 354 151 366 134 c 0,39,40
 377 118 377 118 380 89 c 1,41,42
 382 116 382 116 393.5 133.5 c 128,-1,43
 405 151 405 151 422 151 c 128,-1,44
 439 151 439 151 451 134 c 0,45,46
 462 118 462 118 464 89 c 1,47,48
 466 116 466 116 477.5 133.5 c 128,-1,49
 489 151 489 151 507 151 c 0,50,51
 524 151 524 151 535 134 c 0,52,53
 546 118 546 118 549 89 c 1,54,55
 551 116 551 116 563 134 c 0,56,57
 574 151 574 151 590 151 c 0,58,59
 591 151 591 151 592 151 c 0,60,61
 610 151 610 151 622 131.5 c 128,-1,62
 634 112 634 112 634 83 c 256,63,64
 634 53 634 53 621.5 33.5 c 128,-1,65
 609 14 609 14 592 14 c 128,-1,66
 575 14 575 14 562.5 31.5 c 128,-1,67
 550 49 550 49 549 76 c 1,68,69
 547 50 547 50 535 31 c 0,70,71
 524 14 524 14 509 14 c 0,72,73
 508 14 508 14 507 14 c 0,74,75
 490 14 490 14 478 31.5 c 128,-1,76
 466 49 466 49 464 76 c 1,77,78
 462 50 462 50 451 31 c 0,79,80
 440 14 440 14 424 14 c 0,81,82
 423 14 423 14 422 14 c 0,83,84
 405 14 405 14 393.5 31.5 c 128,-1,85
 382 49 382 49 380 76 c 1,86,87
 378 50 378 50 366 31 c 0,88,89
 355 14 355 14 339 14 c 0,90,91
 338 14 338 14 337 14 c 0,92,93
 320 14 320 14 308.5 31.5 c 128,-1,94
 297 49 297 49 295 76 c 1,95,96
 293 50 293 50 282 31 c 0,97,98
 271 14 271 14 255 14 c 0,99,100
 254 14 254 14 253 14 c 0,101,102
 236 14 236 14 224 31.5 c 128,-1,103
 212 49 212 49 211 76 c 1,104,105
 209 50 209 50 197 31 c 0,106,107
 186 14 186 14 170 14 c 0,108,109
 169 14 169 14 168 14 c 256,110,111
 151 14 151 14 139 31.5 c 128,-1,112
 127 49 127 49 125 76 c 1,113,114
 123 50 123 50 112 31 c 0,115,116
 101 14 101 14 85 14 c 0,117,118
 84 14 84 14 83 14 c 0,119,120
 65 14 65 14 53 33.5 c 128,-1,121
 41 53 41 53 41 83 c 256,122,123
 41 113 41 113 53 132 c 128,-1,124
 65 151 65 151 83 151 c 0,0,1
507 703 m 256,125,126
 524 703 524 703 535 684 c 0,127,128
 546 668 546 668 549 641 c 1,129,130
 551 668 551 668 563 684 c 0,131,132
 575 702 575 702 592 703 c 0,133,134
 610 703 610 703 622 683 c 128,-1,135
 634 663 634 663 634 634 c 0,136,137
 634 604 634 604 621.5 584 c 128,-1,138
 609 564 609 564 592 564 c 128,-1,139
 575 564 575 564 562.5 582.5 c 128,-1,140
 550 601 550 601 549 626 c 1,141,142
 547 603 547 603 536.5 585.5 c 128,-1,143
 526 568 526 568 511 564 c 1,144,145
 527 561 527 561 538 542.5 c 128,-1,146
 549 524 549 524 549 496 c 0,147,148
 549 466 549 466 537 446.5 c 128,-1,149
 525 427 525 427 507 427 c 256,150,151
 489 427 489 427 476.5 447.5 c 128,-1,152
 464 468 464 468 464 496 c 0,153,154
 464 523 464 523 475 543 c 0,155,156
 485 562 485 562 502 564 c 1,157,158
 486 568 486 568 476 585.5 c 128,-1,159
 466 603 466 603 464 626 c 1,160,161
 462 600 462 600 451 583 c 0,162,163
 439 565 439 565 422 564 c 0,164,165
 405 564 405 564 393.5 582.5 c 128,-1,166
 382 601 382 601 380 626 c 1,167,168
 378 600 378 600 366 583 c 128,-1,169
 354 566 354 566 337 564 c 0,170,171
 320 564 320 564 308.5 582.5 c 128,-1,172
 297 601 297 601 295 626 c 1,173,174
 293 600 293 600 282 583 c 0,175,176
 270 565 270 565 253 564 c 0,177,178
 236 564 236 564 224 582.5 c 128,-1,179
 212 601 212 601 211 626 c 1,180,181
 209 600 209 600 197 583 c 128,-1,182
 185 566 185 566 168 564 c 0,183,184
 151 564 151 564 139 582.5 c 128,-1,185
 127 601 127 601 125 626 c 1,186,187
 123 600 123 600 112 583 c 0,188,189
 100 565 100 565 83 564 c 0,190,191
 65 564 65 564 53 584.5 c 128,-1,192
 41 605 41 605 41 634 c 256,193,194
 41 664 41 664 53.5 683.5 c 128,-1,195
 66 703 66 703 83 703 c 128,-1,196
 100 703 100 703 112 684 c 0,197,198
 123 668 123 668 125 641 c 1,199,200
 127 668 127 668 140 684 c 0,201,202
 152 702 152 702 168 703 c 0,203,204
 185 703 185 703 197 684 c 0,205,206
 208 668 208 668 211 641 c 1,207,208
 213 668 213 668 224 684 c 0,209,210
 236 702 236 702 253 703 c 0,211,212
 270 703 270 703 282 684 c 0,213,214
 293 668 293 668 295 641 c 1,215,216
 297 668 297 668 309 684 c 0,217,218
 321 702 321 702 337 703 c 0,219,220
 354 703 354 703 366 684 c 0,221,222
 377 668 377 668 380 641 c 1,223,224
 382 668 382 668 393 684 c 0,225,226
 405 702 405 702 422 703 c 0,227,228
 439 703 439 703 451 684 c 0,229,230
 462 668 462 668 464 641 c 1,231,232
 466 668 466 668 478 684 c 0,233,234
 490 703 490 703 507 703 c 256,125,126
253 427 m 0,235,236
 270 427 270 427 282 410 c 0,237,238
 293 394 293 394 295 365 c 1,239,240
 297 392 297 392 309 410 c 0,241,242
 320 427 320 427 335 427 c 0,243,244
 336 427 336 427 337 427 c 256,245,246
 354 427 354 427 366 410 c 0,247,248
 377 394 377 394 380 365 c 1,249,250
 382 392 382 392 393.5 409.5 c 128,-1,251
 405 427 405 427 422 427 c 0,252,253
 440 427 440 427 452 407 c 0,254,255
 464 386 464 386 464 358 c 0,256,257
 464 328 464 328 452 309 c 128,-1,258
 440 290 440 290 422 290 c 0,259,260
 405 290 405 290 393.5 307.5 c 128,-1,261
 382 325 382 325 380 352 c 1,262,263
 378 326 378 326 366 307 c 0,264,265
 355 290 355 290 339 290 c 0,266,267
 338 290 338 290 337 290 c 0,268,269
 320 290 320 290 308.5 307.5 c 128,-1,270
 297 325 297 325 295 352 c 1,271,272
 293 326 293 326 282 307 c 0,273,274
 271 290 271 290 255 290 c 0,275,276
 254 290 254 290 253 290 c 0,277,278
 235 290 235 290 223 310 c 0,279,280
 211 328 211 328 211 358 c 256,281,282
 211 388 211 388 223 407.5 c 128,-1,283
 235 427 235 427 253 427 c 0,235,236
EndSplineSet
Validated: 1
EndChar

StartChar: O
Encoding: 79 79 47
Width: 675
VWidth: 1222
Flags: W
LayerCount: 2
Fore
SplineSet
253 703 m 256,0,1
 270 703 270 703 282 684 c 0,2,3
 293 668 293 668 295 641 c 1,4,5
 297 668 297 668 309 684 c 0,6,7
 321 702 321 702 337 703 c 0,8,9
 354 703 354 703 366 684 c 0,10,11
 377 668 377 668 380 641 c 1,12,13
 382 668 382 668 393 684 c 0,14,15
 405 702 405 702 422 703 c 0,16,17
 439 703 439 703 451 684 c 0,18,19
 462 668 462 668 464 641 c 1,20,21
 466 668 466 668 478 684 c 0,22,23
 490 702 490 702 507 703 c 0,24,25
 525 703 525 703 537 683 c 128,-1,26
 549 663 549 663 549 634 c 0,27,28
 549 604 549 604 537 584 c 128,-1,29
 525 564 525 564 507 564 c 0,30,31
 490 564 490 564 478 582.5 c 128,-1,32
 466 601 466 601 464 626 c 1,33,34
 462 600 462 600 451 583 c 0,35,36
 439 565 439 565 422 564 c 0,37,38
 405 564 405 564 393.5 582.5 c 128,-1,39
 382 601 382 601 380 626 c 1,40,41
 378 600 378 600 366 583 c 128,-1,42
 354 566 354 566 337 564 c 0,43,44
 320 564 320 564 308.5 582.5 c 128,-1,45
 297 601 297 601 295 626 c 1,46,47
 293 600 293 600 282 583 c 0,48,49
 270 565 270 565 253 564 c 0,50,51
 236 564 236 564 224 582.5 c 128,-1,52
 212 601 212 601 211 626 c 1,53,54
 209 600 209 600 197 583 c 128,-1,55
 185 566 185 566 168 564 c 0,56,57
 150 564 150 564 137.5 584.5 c 128,-1,58
 125 605 125 605 125 634 c 256,59,60
 125 664 125 664 137.5 683.5 c 128,-1,61
 150 703 150 703 168 703 c 0,62,63
 185 703 185 703 197 684 c 0,64,65
 208 668 208 668 211 641 c 1,66,67
 213 668 213 668 224 684 c 0,68,69
 236 703 236 703 253 703 c 256,0,1
253 151 m 256,70,71
 270 151 270 151 282 134 c 0,72,73
 293 118 293 118 295 89 c 1,74,75
 297 116 297 116 309 134 c 0,76,77
 320 151 320 151 335 151 c 0,78,79
 336 151 336 151 337 151 c 256,80,81
 354 151 354 151 366 134 c 0,82,83
 377 118 377 118 380 89 c 1,84,85
 382 116 382 116 393.5 133.5 c 128,-1,86
 405 151 405 151 422 151 c 128,-1,87
 439 151 439 151 451 134 c 0,88,89
 462 118 462 118 464 89 c 1,90,91
 466 116 466 116 477.5 133.5 c 128,-1,92
 489 151 489 151 507 151 c 128,-1,93
 525 151 525 151 537 131.5 c 128,-1,94
 549 112 549 112 549 83 c 256,95,96
 549 53 549 53 537 33.5 c 128,-1,97
 525 14 525 14 507 14 c 0,98,99
 490 14 490 14 478 31.5 c 128,-1,100
 466 49 466 49 464 76 c 1,101,102
 462 50 462 50 451 31 c 0,103,104
 440 14 440 14 424 14 c 0,105,106
 423 14 423 14 422 14 c 0,107,108
 405 14 405 14 393.5 31.5 c 128,-1,109
 382 49 382 49 380 76 c 1,110,111
 378 50 378 50 366 31 c 0,112,113
 355 14 355 14 339 14 c 0,114,115
 338 14 338 14 337 14 c 0,116,117
 320 14 320 14 308.5 31.5 c 128,-1,118
 297 49 297 49 295 76 c 1,119,120
 293 50 293 50 282 31 c 0,121,122
 271 14 271 14 255 14 c 0,123,124
 254 14 254 14 253 14 c 0,125,126
 236 14 236 14 224 31.5 c 128,-1,127
 212 49 212 49 211 76 c 1,128,129
 209 50 209 50 197 31 c 0,130,131
 186 14 186 14 170 14 c 0,132,133
 169 14 169 14 168 14 c 0,134,135
 150 14 150 14 137.5 33.5 c 128,-1,136
 125 53 125 53 125 83 c 256,137,138
 125 113 125 113 137.5 132 c 128,-1,139
 150 151 150 151 168 151 c 0,140,141
 185 151 185 151 197 134 c 0,142,143
 208 118 208 118 211 89 c 1,144,145
 213 116 213 116 224 134 c 0,146,147
 236 151 236 151 253 151 c 256,70,71
592 564 m 256,148,149
 610 564 610 564 622 544.5 c 128,-1,150
 634 525 634 525 634 496 c 0,151,152
 634 469 634 469 622 449 c 0,153,154
 611 431 611 431 596 427 c 1,155,156
 612 424 612 424 623 404 c 128,-1,157
 634 384 634 384 634 358 c 0,158,159
 634 328 634 328 621.5 309 c 128,-1,160
 609 290 609 290 592 290 c 1,161,162
 610 290 610 290 622 269.5 c 128,-1,163
 634 249 634 249 634 220 c 256,164,165
 634 190 634 190 621.5 170.5 c 128,-1,166
 609 151 609 151 592 151 c 0,167,168
 574 151 574 151 561.5 171.5 c 128,-1,169
 549 192 549 192 549 220 c 0,170,171
 549 247 549 247 560 267 c 0,172,173
 570 286 570 286 587 290 c 1,174,175
 570 294 570 294 560 311 c 0,176,177
 549 330 549 330 549 358 c 0,178,179
 549 385 549 385 560 406 c 0,180,181
 570 425 570 425 587 427 c 1,182,183
 570 431 570 431 560 449 c 0,184,185
 549 468 549 468 549 496 c 0,186,187
 549 526 549 526 561.5 545 c 128,-1,188
 574 564 574 564 592 564 c 256,148,149
83 564 m 256,189,190
 101 564 101 564 113 544.5 c 128,-1,191
 125 525 125 525 125 496 c 0,192,193
 125 469 125 469 114.5 449.5 c 128,-1,194
 104 430 104 430 87 427 c 1,195,196
 104 424 104 424 114 404 c 128,-1,197
 124 384 124 384 125 358 c 256,198,199
 125 331 125 331 115 311 c 0,200,201
 104 293 104 293 87 290 c 1,202,203
 103 287 103 287 114 267.5 c 128,-1,204
 125 248 125 248 125 220 c 0,205,206
 125 190 125 190 113.5 170.5 c 128,-1,207
 102 151 102 151 83 151 c 256,208,209
 65 151 65 151 53 171.5 c 128,-1,210
 41 192 41 192 41 220 c 0,211,212
 41 247 41 247 52 267 c 0,213,214
 62 286 62 286 79 290 c 1,215,216
 62 294 62 294 52 311 c 0,217,218
 41 330 41 330 41 358 c 0,219,220
 41 385 41 385 52 406 c 0,221,222
 62 425 62 425 79 427 c 1,223,224
 62 431 62 431 52 449 c 0,225,226
 41 468 41 468 41 496 c 0,227,228
 41 526 41 526 53 545 c 128,-1,229
 65 564 65 564 83 564 c 256,189,190
EndSplineSet
Validated: 1
EndChar

StartChar: P
Encoding: 80 80 48
Width: 675
VWidth: 1222
Flags: W
LayerCount: 2
Fore
SplineSet
592 703 m 0,0,1
 610 703 610 703 622 683 c 128,-1,2
 634 663 634 663 634 634 c 0,3,4
 634 604 634 604 621.5 584 c 128,-1,5
 609 564 609 564 592 564 c 1,6,7
 610 564 610 564 622 544.5 c 128,-1,8
 634 525 634 525 634 496 c 256,9,10
 634 466 634 466 621 447 c 0,11,12
 610 429 610 429 595 427 c 1,13,14
 610 426 610 426 621 408 c 0,15,16
 633 388 633 388 634 358 c 0,17,18
 634 328 634 328 621 310 c 0,19,20
 610 292 610 292 595 290 c 1,21,22
 610 289 610 289 621 270 c 0,23,24
 633 250 633 250 634 220 c 0,25,26
 634 190 634 190 621.5 170.5 c 128,-1,27
 609 151 609 151 592 151 c 0,28,29
 574 151 574 151 561.5 171.5 c 128,-1,30
 549 192 549 192 549 220 c 0,31,32
 549 247 549 247 560 267 c 0,33,34
 570 286 570 286 587 290 c 1,35,36
 570 294 570 294 560 311 c 0,37,38
 549 330 549 330 549 358 c 0,39,40
 549 385 549 385 560 406 c 0,41,42
 570 425 570 425 587 427 c 1,43,44
 570 431 570 431 560 449 c 0,45,46
 549 468 549 468 549 496 c 0,47,48
 549 523 549 523 560 543 c 0,49,50
 570 562 570 562 587 564 c 1,51,52
 571 568 571 568 560.5 585.5 c 128,-1,53
 550 603 550 603 549 626 c 1,54,55
 547 600 547 600 535 583 c 0,56,57
 523 565 523 565 507 564 c 0,58,59
 490 564 490 564 478 582.5 c 128,-1,60
 466 601 466 601 464 626 c 1,61,62
 462 600 462 600 451 583 c 0,63,64
 439 565 439 565 422 564 c 0,65,66
 405 564 405 564 393.5 582.5 c 128,-1,67
 382 601 382 601 380 626 c 1,68,69
 378 600 378 600 366 583 c 128,-1,70
 354 566 354 566 337 564 c 0,71,72
 320 564 320 564 308.5 582.5 c 128,-1,73
 297 601 297 601 295 626 c 1,74,75
 293 603 293 603 283 586 c 0,76,77
 272 568 272 568 256 564 c 1,78,79
 273 561 273 561 284 542.5 c 128,-1,80
 295 524 295 524 295 496 c 0,81,82
 295 469 295 469 284 449.5 c 128,-1,83
 273 430 273 430 256 427 c 1,84,85
 273 424 273 424 284 404 c 128,-1,86
 295 384 295 384 295 358 c 0,87,88
 295 328 295 328 283 310 c 0,89,90
 272 292 272 292 256 290 c 1,91,92
 271 289 271 289 283 270 c 0,93,94
 295 250 295 250 295 220 c 256,95,96
 295 190 295 190 283 170.5 c 128,-1,97
 271 151 271 151 253 151 c 256,98,99
 235 151 235 151 223 171.5 c 128,-1,100
 211 192 211 192 211 220 c 0,101,102
 211 247 211 247 221 267 c 0,103,104
 231 286 231 286 249 290 c 1,105,106
 232 294 232 294 221 311 c 0,107,108
 211 328 211 328 211 353 c 0,109,110
 211 384 211 384 221 406 c 0,111,112
 231 425 231 425 249 427 c 1,113,114
 232 431 232 431 221 449 c 0,115,116
 211 466 211 466 211 491 c 0,117,118
 211 522 211 522 221 543 c 0,119,120
 231 562 231 562 249 564 c 1,121,122
 233 568 233 568 222.5 585.5 c 128,-1,123
 212 603 212 603 211 626 c 1,124,125
 209 600 209 600 197 583 c 128,-1,126
 185 566 185 566 168 564 c 0,127,128
 151 564 151 564 139 582.5 c 128,-1,129
 127 601 127 601 125 626 c 1,130,131
 123 600 123 600 112 583 c 0,132,133
 100 565 100 565 83 564 c 0,134,135
 65 564 65 564 53 584.5 c 128,-1,136
 41 605 41 605 41 634 c 256,137,138
 41 664 41 664 53.5 683.5 c 128,-1,139
 66 703 66 703 83 703 c 128,-1,140
 100 703 100 703 112 684 c 0,141,142
 123 668 123 668 125 641 c 1,143,144
 127 668 127 668 140 684 c 0,145,146
 152 702 152 702 168 703 c 0,147,148
 185 703 185 703 197 684 c 0,149,150
 208 668 208 668 211 641 c 1,151,152
 213 668 213 668 224 684 c 0,153,154
 236 702 236 702 253 703 c 0,155,156
 270 703 270 703 282 684 c 0,157,158
 293 668 293 668 295 641 c 1,159,160
 297 668 297 668 309 684 c 0,161,162
 321 702 321 702 337 703 c 0,163,164
 354 703 354 703 366 684 c 0,165,166
 377 668 377 668 380 641 c 1,167,168
 382 668 382 668 393 684 c 0,169,170
 405 702 405 702 422 703 c 0,171,172
 439 703 439 703 451 684 c 0,173,174
 462 668 462 668 464 641 c 1,175,176
 466 668 466 668 478 684 c 0,177,178
 490 702 490 702 507 703 c 0,179,180
 524 703 524 703 535 684 c 0,181,182
 546 668 546 668 549 641 c 1,183,184
 551 668 551 668 563 684 c 0,185,186
 575 703 575 703 592 703 c 0,0,1
507 151 m 0,187,188
 525 151 525 151 537 131.5 c 128,-1,189
 549 112 549 112 549 83 c 256,190,191
 549 53 549 53 537 33.5 c 128,-1,192
 525 14 525 14 507 14 c 0,193,194
 490 14 490 14 478 31.5 c 128,-1,195
 466 49 466 49 464 76 c 1,196,197
 462 50 462 50 451 31 c 0,198,199
 440 14 440 14 424 14 c 0,200,201
 423 14 423 14 422 14 c 0,202,203
 405 14 405 14 393.5 31.5 c 128,-1,204
 382 49 382 49 380 76 c 1,205,206
 378 50 378 50 366 31 c 0,207,208
 355 14 355 14 339 14 c 0,209,210
 338 14 338 14 337 14 c 0,211,212
 319 14 319 14 307 33.5 c 128,-1,213
 295 53 295 53 295 83 c 256,214,215
 295 113 295 113 307.5 132 c 128,-1,216
 320 151 320 151 337 151 c 128,-1,217
 354 151 354 151 366 134 c 0,218,219
 377 118 377 118 380 89 c 1,220,221
 382 116 382 116 393.5 133.5 c 128,-1,222
 405 151 405 151 422 151 c 128,-1,223
 439 151 439 151 451 134 c 0,224,225
 462 118 462 118 464 89 c 1,226,227
 466 116 466 116 478 134 c 0,228,229
 490 151 490 151 507 151 c 0,187,188
EndSplineSet
Validated: 1
EndChar

StartChar: Q
Encoding: 81 81 49
Width: 675
VWidth: 1222
Flags: W
LayerCount: 2
Fore
SplineSet
507 151 m 0,0,1
 525 151 525 151 537 131.5 c 128,-1,2
 549 112 549 112 549 83 c 256,3,4
 549 53 549 53 537 33.5 c 128,-1,5
 525 14 525 14 507 14 c 0,6,7
 490 14 490 14 478 31.5 c 128,-1,8
 466 49 466 49 464 76 c 1,9,10
 462 50 462 50 451 31 c 0,11,12
 440 14 440 14 424 14 c 0,13,14
 423 14 423 14 422 14 c 0,15,16
 405 14 405 14 393.5 31.5 c 128,-1,17
 382 49 382 49 380 76 c 1,18,19
 378 50 378 50 366 31 c 0,20,21
 355 14 355 14 339 14 c 0,22,23
 338 14 338 14 337 14 c 0,24,25
 320 14 320 14 308.5 31.5 c 128,-1,26
 297 49 297 49 295 76 c 1,27,28
 293 50 293 50 282 31 c 0,29,30
 271 14 271 14 255 14 c 0,31,32
 254 14 254 14 253 14 c 0,33,34
 236 14 236 14 224 31.5 c 128,-1,35
 212 49 212 49 211 76 c 1,36,37
 209 50 209 50 197 31 c 0,38,39
 186 14 186 14 170 14 c 0,40,41
 169 14 169 14 168 14 c 256,42,43
 151 14 151 14 139 31.5 c 128,-1,44
 127 49 127 49 125 76 c 1,45,46
 123 50 123 50 112 31 c 0,47,48
 101 14 101 14 85 14 c 0,49,50
 84 14 84 14 83 14 c 0,51,52
 65 14 65 14 53 33.5 c 128,-1,53
 41 53 41 53 41 83 c 0,54,55
 41 110 41 110 52 130 c 0,56,57
 62 149 62 149 79 151 c 1,58,59
 62 155 62 155 51.5 174 c 128,-1,60
 41 193 41 193 41 220 c 256,61,62
 41 247 41 247 52 267 c 0,63,64
 62 286 62 286 79 290 c 1,65,66
 62 294 62 294 52 311 c 0,67,68
 41 330 41 330 41 358 c 0,69,70
 41 385 41 385 52 406 c 0,71,72
 62 425 62 425 79 427 c 1,73,74
 62 431 62 431 52 449 c 0,75,76
 41 468 41 468 41 496 c 0,77,78
 41 526 41 526 53.5 545 c 128,-1,79
 66 564 66 564 83 564 c 0,80,81
 101 564 101 564 113 544.5 c 128,-1,82
 125 525 125 525 125 496 c 0,83,84
 125 469 125 469 115 449 c 0,85,86
 104 431 104 431 87 427 c 1,87,88
 103 424 103 424 114 404 c 128,-1,89
 125 384 125 384 125 358 c 256,90,91
 125 331 125 331 114.5 312 c 128,-1,92
 104 293 104 293 87 290 c 1,93,94
 102 287 102 287 113 270 c 0,95,96
 123 254 123 254 125 228 c 1,97,98
 127 255 127 255 140 271 c 0,99,100
 152 289 152 289 168 290 c 0,101,102
 186 290 186 290 198.5 269.5 c 128,-1,103
 211 249 211 249 211 220 c 256,104,105
 211 190 211 190 198.5 170.5 c 128,-1,106
 186 151 186 151 168 151 c 1,107,108
 185 151 185 151 197 134 c 0,109,110
 208 118 208 118 211 89 c 1,111,112
 213 116 213 116 224 133.5 c 128,-1,113
 235 151 235 151 253 151 c 0,114,115
 270 151 270 151 282 134 c 0,116,117
 293 118 293 118 295 89 c 1,118,119
 297 116 297 116 309 134 c 0,120,121
 320 151 320 151 335 151 c 0,122,123
 336 151 336 151 337 151 c 256,124,125
 354 151 354 151 366 134 c 0,126,127
 377 118 377 118 380 89 c 1,128,129
 382 116 382 116 393.5 133.5 c 128,-1,130
 405 151 405 151 422 151 c 128,-1,131
 439 151 439 151 451 134 c 0,132,133
 462 118 462 118 464 89 c 1,134,135
 466 116 466 116 478 134 c 0,136,137
 490 151 490 151 507 151 c 0,0,1
253 703 m 256,138,139
 270 703 270 703 282 684 c 0,140,141
 293 668 293 668 295 641 c 1,142,143
 297 668 297 668 309 684 c 0,144,145
 321 702 321 702 337 703 c 0,146,147
 354 703 354 703 366 684 c 0,148,149
 377 668 377 668 380 641 c 1,150,151
 382 668 382 668 393 684 c 0,152,153
 405 702 405 702 422 703 c 0,154,155
 439 703 439 703 451 684 c 0,156,157
 462 668 462 668 464 641 c 1,158,159
 466 668 466 668 478 684 c 0,160,161
 490 702 490 702 507 703 c 0,162,163
 525 703 525 703 537 683 c 128,-1,164
 549 663 549 663 549 634 c 0,165,166
 549 604 549 604 537 584 c 128,-1,167
 525 564 525 564 507 564 c 0,168,169
 490 564 490 564 478 582.5 c 128,-1,170
 466 601 466 601 464 626 c 1,171,172
 462 600 462 600 451 583 c 0,173,174
 439 565 439 565 422 564 c 0,175,176
 405 564 405 564 393.5 582.5 c 128,-1,177
 382 601 382 601 380 626 c 1,178,179
 378 600 378 600 366 583 c 128,-1,180
 354 566 354 566 337 564 c 0,181,182
 320 564 320 564 308.5 582.5 c 128,-1,183
 297 601 297 601 295 626 c 1,184,185
 293 600 293 600 282 583 c 0,186,187
 270 565 270 565 253 564 c 0,188,189
 236 564 236 564 224 582.5 c 128,-1,190
 212 601 212 601 211 626 c 1,191,192
 209 600 209 600 197 583 c 128,-1,193
 185 566 185 566 168 564 c 0,194,195
 150 564 150 564 137.5 584.5 c 128,-1,196
 125 605 125 605 125 634 c 256,197,198
 125 664 125 664 137.5 683.5 c 128,-1,199
 150 703 150 703 168 703 c 0,200,201
 185 703 185 703 197 684 c 0,202,203
 208 668 208 668 211 641 c 1,204,205
 213 668 213 668 224 684 c 0,206,207
 236 703 236 703 253 703 c 256,138,139
592 564 m 256,208,209
 610 564 610 564 622 544.5 c 128,-1,210
 634 525 634 525 634 496 c 256,211,212
 634 466 634 466 621 447 c 0,213,214
 610 429 610 429 595 427 c 1,215,216
 610 426 610 426 621 408 c 0,217,218
 633 388 633 388 634 358 c 0,219,220
 634 331 634 331 622.5 312 c 128,-1,221
 611 293 611 293 595 290 c 1,222,223
 612 287 612 287 623 267.5 c 128,-1,224
 634 248 634 248 634 220 c 0,225,226
 634 190 634 190 621.5 170.5 c 128,-1,227
 609 151 609 151 592 151 c 0,228,229
 574 151 574 151 561.5 171.5 c 128,-1,230
 549 192 549 192 549 220 c 0,231,232
 549 247 549 247 560 267 c 0,233,234
 570 286 570 286 587 290 c 1,235,236
 570 294 570 294 560 311 c 0,237,238
 549 330 549 330 549 358 c 0,239,240
 549 385 549 385 560 406 c 0,241,242
 570 425 570 425 587 427 c 1,243,244
 570 431 570 431 560 449 c 0,245,246
 549 468 549 468 549 496 c 0,247,248
 549 526 549 526 561.5 545 c 128,-1,249
 574 564 574 564 592 564 c 256,208,209
253 427 m 256,250,251
 271 427 271 427 283 407 c 0,252,253
 295 386 295 386 295 358 c 0,254,255
 295 328 295 328 283 309 c 128,-1,256
 271 290 271 290 253 290 c 256,257,258
 235 290 235 290 223 310 c 0,259,260
 211 328 211 328 211 358 c 256,261,262
 211 388 211 388 223 407.5 c 128,-1,263
 235 427 235 427 253 427 c 256,250,251
83 151 m 1,264,265
 100 151 100 151 112 134 c 0,266,267
 123 118 123 118 125 89 c 1,268,269
 127 115 127 115 137.5 132 c 128,-1,270
 148 149 148 149 164 151 c 1,271,272
 148 155 148 155 137.5 172.5 c 128,-1,273
 127 190 127 190 125 213 c 1,274,275
 123 187 123 187 112 170 c 0,276,277
 100 151 100 151 83 151 c 1,264,265
EndSplineSet
Validated: 1
EndChar

StartChar: R
Encoding: 82 82 50
Width: 675
VWidth: 1222
Flags: W
LayerCount: 2
Fore
SplineSet
592 703 m 0,0,1
 610 703 610 703 622 683 c 128,-1,2
 634 663 634 663 634 634 c 0,3,4
 634 604 634 604 621.5 584 c 128,-1,5
 609 564 609 564 592 564 c 1,6,7
 610 564 610 564 622 544.5 c 128,-1,8
 634 525 634 525 634 496 c 256,9,10
 634 466 634 466 621 447 c 0,11,12
 610 429 610 429 595 427 c 1,13,14
 610 426 610 426 621 408 c 0,15,16
 633 388 633 388 634 358 c 0,17,18
 634 331 634 331 622 311 c 0,19,20
 611 293 611 293 596 290 c 1,21,22
 612 287 612 287 623 267.5 c 128,-1,23
 634 248 634 248 634 220 c 0,24,25
 634 190 634 190 621.5 170.5 c 128,-1,26
 609 151 609 151 592 151 c 0,27,28
 574 151 574 151 561.5 171.5 c 128,-1,29
 549 192 549 192 549 220 c 0,30,31
 549 247 549 247 560 267 c 0,32,33
 570 286 570 286 587 290 c 1,34,35
 570 294 570 294 560 311 c 0,36,37
 549 330 549 330 549 358 c 0,38,39
 549 385 549 385 560 406 c 0,40,41
 570 425 570 425 587 427 c 1,42,43
 570 431 570 431 560 449 c 0,44,45
 549 468 549 468 549 496 c 0,46,47
 549 523 549 523 560 543 c 0,48,49
 570 562 570 562 587 564 c 1,50,51
 571 568 571 568 560.5 585.5 c 128,-1,52
 550 603 550 603 549 626 c 1,53,54
 547 600 547 600 535 583 c 0,55,56
 523 565 523 565 507 564 c 0,57,58
 490 564 490 564 478 582.5 c 128,-1,59
 466 601 466 601 464 626 c 1,60,61
 462 600 462 600 451 583 c 0,62,63
 439 565 439 565 422 564 c 0,64,65
 405 564 405 564 393.5 582.5 c 128,-1,66
 382 601 382 601 380 626 c 1,67,68
 378 603 378 603 367 585.5 c 128,-1,69
 356 568 356 568 342 564 c 1,70,71
 358 561 358 561 369 542.5 c 128,-1,72
 380 524 380 524 380 496 c 0,73,74
 380 466 380 466 367 447 c 0,75,76
 356 429 356 429 340 427 c 1,77,78
 355 426 355 426 367 408 c 0,79,80
 379 388 379 388 380 358 c 0,81,82
 380 328 380 328 367.5 309 c 128,-1,83
 355 290 355 290 337 290 c 1,84,85
 355 290 355 290 367.5 269.5 c 128,-1,86
 380 249 380 249 380 220 c 256,87,88
 380 190 380 190 367.5 170.5 c 128,-1,89
 355 151 355 151 337 151 c 256,90,91
 319 151 319 151 307 171.5 c 128,-1,92
 295 192 295 192 295 220 c 0,93,94
 295 247 295 247 307 267 c 0,95,96
 317 286 317 286 333 290 c 1,97,98
 317 294 317 294 307 311 c 128,-1,99
 297 328 297 328 295 352 c 1,100,101
 293 326 293 326 282 307 c 0,102,103
 271 290 271 290 255 290 c 0,104,105
 254 290 254 290 253 290 c 0,106,107
 235 290 235 290 223 310 c 0,108,109
 211 328 211 328 211 358 c 256,110,111
 211 388 211 388 223 407.5 c 128,-1,112
 235 427 235 427 253 427 c 0,113,114
 270 427 270 427 282 410 c 0,115,116
 293 394 293 394 295 365 c 1,117,118
 297 391 297 391 307 407.5 c 128,-1,119
 317 424 317 424 333 427 c 1,120,121
 316 431 316 431 307 449 c 0,122,123
 296 468 296 468 295 496 c 0,124,125
 295 523 295 523 307 543 c 0,126,127
 317 562 317 562 333 564 c 1,128,129
 317 568 317 568 307 585.5 c 128,-1,130
 297 603 297 603 295 626 c 1,131,132
 293 600 293 600 282 583 c 0,133,134
 270 565 270 565 253 564 c 0,135,136
 236 564 236 564 224 582.5 c 128,-1,137
 212 601 212 601 211 626 c 1,138,139
 209 600 209 600 197 583 c 128,-1,140
 185 566 185 566 168 564 c 0,141,142
 151 564 151 564 139 582.5 c 128,-1,143
 127 601 127 601 125 626 c 1,144,145
 123 600 123 600 112 583 c 0,146,147
 100 565 100 565 83 564 c 0,148,149
 65 564 65 564 53 584.5 c 128,-1,150
 41 605 41 605 41 634 c 256,151,152
 41 664 41 664 53.5 683.5 c 128,-1,153
 66 703 66 703 83 703 c 128,-1,154
 100 703 100 703 112 684 c 0,155,156
 123 668 123 668 125 641 c 1,157,158
 127 668 127 668 140 684 c 0,159,160
 152 702 152 702 168 703 c 0,161,162
 185 703 185 703 197 684 c 0,163,164
 208 668 208 668 211 641 c 1,165,166
 213 668 213 668 224 684 c 0,167,168
 236 702 236 702 253 703 c 0,169,170
 270 703 270 703 282 684 c 0,171,172
 293 668 293 668 295 641 c 1,173,174
 297 668 297 668 309 684 c 0,175,176
 321 702 321 702 337 703 c 0,177,178
 354 703 354 703 366 684 c 0,179,180
 377 668 377 668 380 641 c 1,181,182
 382 668 382 668 393 684 c 0,183,184
 405 702 405 702 422 703 c 0,185,186
 439 703 439 703 451 684 c 0,187,188
 462 668 462 668 464 641 c 1,189,190
 466 668 466 668 478 684 c 0,191,192
 490 702 490 702 507 703 c 0,193,194
 524 703 524 703 535 684 c 0,195,196
 546 668 546 668 549 641 c 1,197,198
 551 668 551 668 563 684 c 0,199,200
 575 703 575 703 592 703 c 0,0,1
507 151 m 0,201,202
 525 151 525 151 537 131.5 c 128,-1,203
 549 112 549 112 549 83 c 256,204,205
 549 53 549 53 537 33.5 c 128,-1,206
 525 14 525 14 507 14 c 0,207,208
 490 14 490 14 478 31.5 c 128,-1,209
 466 49 466 49 464 76 c 1,210,211
 462 50 462 50 451 31 c 0,212,213
 440 14 440 14 424 14 c 0,214,215
 423 14 423 14 422 14 c 0,216,217
 404 14 404 14 392 33.5 c 128,-1,218
 380 53 380 53 380 83 c 256,219,220
 380 113 380 113 392 132 c 128,-1,221
 404 151 404 151 422 151 c 0,222,223
 439 151 439 151 451 134 c 0,224,225
 462 118 462 118 464 89 c 1,226,227
 466 116 466 116 478 134 c 0,228,229
 490 151 490 151 507 151 c 0,201,202
83 151 m 256,230,231
 101 151 101 151 113 131.5 c 128,-1,232
 125 112 125 112 125 83 c 256,233,234
 125 53 125 53 113.5 33.5 c 128,-1,235
 102 14 102 14 83 14 c 256,236,237
 65 14 65 14 53 33.5 c 128,-1,238
 41 53 41 53 41 83 c 256,239,240
 41 113 41 113 53 132 c 128,-1,241
 65 151 65 151 83 151 c 256,230,231
168 290 m 256,242,243
 186 290 186 290 198.5 269.5 c 128,-1,244
 211 249 211 249 211 220 c 256,245,246
 211 190 211 190 198.5 170.5 c 128,-1,247
 186 151 186 151 168 151 c 128,-1,248
 150 151 150 151 137.5 171.5 c 128,-1,249
 125 192 125 192 125 220 c 0,250,251
 125 250 125 250 137.5 270 c 128,-1,252
 150 290 150 290 168 290 c 256,242,243
EndSplineSet
Validated: 1
EndChar

StartChar: S
Encoding: 83 83 51
Width: 675
VWidth: 1222
Flags: W
LayerCount: 2
Fore
SplineSet
592 564 m 256,0,1
 610 564 610 564 622 544.5 c 128,-1,2
 634 525 634 525 634 496 c 256,3,4
 634 466 634 466 621.5 446.5 c 128,-1,5
 609 427 609 427 592 427 c 1,6,7
 610 427 610 427 622 407 c 0,8,9
 634 386 634 386 634 358 c 0,10,11
 634 328 634 328 621 310 c 0,12,13
 610 292 610 292 595 290 c 1,14,15
 610 289 610 289 621 270 c 0,16,17
 633 250 633 250 634 220 c 0,18,19
 634 190 634 190 621.5 170.5 c 128,-1,20
 609 151 609 151 592 151 c 0,21,22
 574 151 574 151 561.5 171.5 c 128,-1,23
 549 192 549 192 549 220 c 0,24,25
 549 247 549 247 560 267 c 0,26,27
 570 286 570 286 587 290 c 1,28,29
 570 294 570 294 560 311 c 0,30,31
 549 330 549 330 549 358 c 0,32,33
 549 385 549 385 560 406 c 0,34,35
 570 425 570 425 587 427 c 1,36,37
 570 431 570 431 560 449 c 0,38,39
 549 468 549 468 549 496 c 0,40,41
 549 526 549 526 561.5 545 c 128,-1,42
 574 564 574 564 592 564 c 256,0,1
337 564 m 256,43,44
 355 564 355 564 367.5 544.5 c 128,-1,45
 380 525 380 525 380 496 c 256,46,47
 380 466 380 466 367 447 c 0,48,49
 356 429 356 429 340 427 c 1,50,51
 355 426 355 426 367 408 c 0,52,53
 379 388 379 388 380 358 c 0,54,55
 380 328 380 328 367 310 c 0,56,57
 356 292 356 292 340 290 c 1,58,59
 355 289 355 289 367 270 c 0,60,61
 379 250 379 250 380 220 c 0,62,63
 380 190 380 190 367.5 170.5 c 128,-1,64
 355 151 355 151 337 151 c 256,65,66
 319 151 319 151 307 171.5 c 128,-1,67
 295 192 295 192 295 220 c 0,68,69
 295 247 295 247 307 267 c 0,70,71
 317 286 317 286 333 290 c 1,72,73
 316 294 316 294 307 311 c 0,74,75
 296 330 296 330 295 358 c 0,76,77
 295 385 295 385 307 406 c 0,78,79
 317 425 317 425 333 427 c 1,80,81
 316 431 316 431 307 449 c 0,82,83
 296 468 296 468 295 496 c 0,84,85
 295 526 295 526 307 545 c 128,-1,86
 319 564 319 564 337 564 c 256,43,44
83 564 m 256,87,88
 101 564 101 564 113 544.5 c 128,-1,89
 125 525 125 525 125 496 c 256,90,91
 125 466 125 466 113 447 c 0,92,93
 102 429 102 429 87 427 c 1,94,95
 102 426 102 426 113 408 c 0,96,97
 125 388 125 388 125 358 c 256,98,99
 125 328 125 328 113.5 309 c 128,-1,100
 102 290 102 290 83 290 c 1,101,102
 101 290 101 290 113 269.5 c 128,-1,103
 125 249 125 249 125 220 c 256,104,105
 125 190 125 190 113.5 170.5 c 128,-1,106
 102 151 102 151 83 151 c 256,107,108
 65 151 65 151 53 171.5 c 128,-1,109
 41 192 41 192 41 220 c 0,110,111
 41 247 41 247 52 267 c 0,112,113
 62 286 62 286 79 290 c 1,114,115
 62 294 62 294 52 311 c 0,116,117
 41 330 41 330 41 358 c 0,118,119
 41 385 41 385 52 406 c 0,120,121
 62 425 62 425 79 427 c 1,122,123
 62 431 62 431 52 449 c 0,124,125
 41 468 41 468 41 496 c 0,126,127
 41 526 41 526 53 545 c 128,-1,128
 65 564 65 564 83 564 c 256,87,88
168 151 m 0,129,130
 185 151 185 151 197 134 c 0,131,132
 208 118 208 118 211 89 c 1,133,134
 213 116 213 116 224 133.5 c 128,-1,135
 235 151 235 151 253 151 c 128,-1,136
 271 151 271 151 283 131.5 c 128,-1,137
 295 112 295 112 295 83 c 256,138,139
 295 53 295 53 283 33.5 c 128,-1,140
 271 14 271 14 253 14 c 0,141,142
 236 14 236 14 224 31.5 c 128,-1,143
 212 49 212 49 211 76 c 1,144,145
 209 50 209 50 197 31 c 0,146,147
 186 14 186 14 170 14 c 0,148,149
 169 14 169 14 168 14 c 0,150,151
 150 14 150 14 137.5 33.5 c 128,-1,152
 125 53 125 53 125 83 c 256,153,154
 125 113 125 113 137.5 132 c 128,-1,155
 150 151 150 151 168 151 c 0,129,130
507 703 m 0,156,157
 525 703 525 703 537 683 c 128,-1,158
 549 663 549 663 549 634 c 0,159,160
 549 604 549 604 537 584 c 128,-1,161
 525 564 525 564 507 564 c 0,162,163
 490 564 490 564 478 582.5 c 128,-1,164
 466 601 466 601 464 626 c 1,165,166
 462 600 462 600 451 583 c 0,167,168
 439 565 439 565 422 564 c 0,169,170
 404 564 404 564 392 584.5 c 128,-1,171
 380 605 380 605 380 634 c 256,172,173
 380 664 380 664 392 683.5 c 128,-1,174
 404 703 404 703 422 703 c 0,175,176
 439 703 439 703 451 684 c 0,177,178
 462 668 462 668 464 641 c 1,179,180
 466 668 466 668 478 684 c 0,181,182
 490 703 490 703 507 703 c 0,156,157
507 151 m 256,183,184
 525 151 525 151 537 131.5 c 128,-1,185
 549 112 549 112 549 83 c 256,186,187
 549 53 549 53 537 33.5 c 128,-1,188
 525 14 525 14 507 14 c 256,189,190
 489 14 489 14 476.5 33.5 c 128,-1,191
 464 53 464 53 464 83 c 256,192,193
 464 113 464 113 476.5 132 c 128,-1,194
 489 151 489 151 507 151 c 256,183,184
168 703 m 256,195,196
 186 703 186 703 198.5 683 c 128,-1,197
 211 663 211 663 211 634 c 0,198,199
 211 604 211 604 198.5 584 c 128,-1,200
 186 564 186 564 168 564 c 128,-1,201
 150 564 150 564 137.5 584.5 c 128,-1,202
 125 605 125 605 125 634 c 256,203,204
 125 664 125 664 137.5 683.5 c 128,-1,205
 150 703 150 703 168 703 c 256,195,196
EndSplineSet
Validated: 1
EndChar

StartChar: T
Encoding: 84 84 52
Width: 675
VWidth: 1222
Flags: W
LayerCount: 2
Fore
SplineSet
507 427 m 256,0,1
 524 427 524 427 535 410 c 0,2,3
 546 394 546 394 549 365 c 1,4,5
 551 391 551 391 561 407.5 c 128,-1,6
 571 424 571 424 587 427 c 1,7,8
 570 431 570 431 560 449 c 0,9,10
 549 468 549 468 549 496 c 0,11,12
 549 523 549 523 560 543 c 0,13,14
 570 562 570 562 587 564 c 1,15,16
 570 568 570 568 560 587 c 0,17,18
 549 606 549 606 549 634 c 0,19,20
 549 664 549 664 561 683.5 c 128,-1,21
 573 703 573 703 592 703 c 256,22,23
 610 703 610 703 622 683 c 128,-1,24
 634 663 634 663 634 634 c 0,25,26
 634 607 634 607 622.5 587 c 128,-1,27
 611 567 611 567 595 564 c 1,28,29
 612 561 612 561 623 542.5 c 128,-1,30
 634 524 634 524 634 496 c 0,31,32
 634 466 634 466 621.5 446.5 c 128,-1,33
 609 427 609 427 592 427 c 1,34,35
 610 427 610 427 622 407 c 0,36,37
 634 386 634 386 634 358 c 0,38,39
 634 328 634 328 621 310 c 0,40,41
 610 292 610 292 595 290 c 1,42,43
 610 289 610 289 621 270 c 0,44,45
 633 250 633 250 634 220 c 0,46,47
 634 193 634 193 622.5 173.5 c 128,-1,48
 611 154 611 154 595 151 c 1,49,50
 612 148 612 148 623 128.5 c 128,-1,51
 634 109 634 109 634 83 c 0,52,53
 634 53 634 53 621.5 33.5 c 128,-1,54
 609 14 609 14 592 14 c 0,55,56
 574 14 574 14 561.5 33.5 c 128,-1,57
 549 53 549 53 549 83 c 0,58,59
 549 110 549 110 560 130 c 0,60,61
 570 149 570 149 587 151 c 1,62,63
 570 155 570 155 560 174 c 0,64,65
 549 193 549 193 549 220 c 128,-1,66
 549 247 549 247 560 267 c 0,67,68
 570 286 570 286 587 290 c 1,69,70
 571 294 571 294 560.5 311 c 128,-1,71
 550 328 550 328 549 352 c 1,72,73
 547 326 547 326 535 307 c 0,74,75
 524 290 524 290 509 290 c 0,76,77
 508 290 508 290 507 290 c 0,78,79
 490 290 490 290 478 307.5 c 128,-1,80
 466 325 466 325 464 352 c 1,81,82
 462 326 462 326 451 307 c 0,83,84
 440 290 440 290 424 290 c 0,85,86
 423 290 423 290 422 290 c 0,87,88
 405 290 405 290 393.5 307.5 c 128,-1,89
 382 325 382 325 380 352 c 1,90,91
 378 326 378 326 366 307 c 0,92,93
 355 290 355 290 339 290 c 0,94,95
 338 290 338 290 337 290 c 0,96,97
 320 290 320 290 308.5 307.5 c 128,-1,98
 297 325 297 325 295 352 c 1,99,100
 293 326 293 326 282 307 c 0,101,102
 271 290 271 290 255 290 c 0,103,104
 254 290 254 290 253 290 c 0,105,106
 236 290 236 290 224 307.5 c 128,-1,107
 212 325 212 325 211 352 c 1,108,109
 209 326 209 326 197 307 c 0,110,111
 186 290 186 290 170 290 c 0,112,113
 169 290 169 290 168 290 c 256,114,115
 151 290 151 290 139 307.5 c 128,-1,116
 127 325 127 325 125 352 c 1,117,118
 123 326 123 326 112 307 c 0,119,120
 101 290 101 290 85 290 c 0,121,122
 84 290 84 290 83 290 c 0,123,124
 65 290 65 290 53 310 c 0,125,126
 41 328 41 328 41 358 c 256,127,128
 41 388 41 388 53.5 407.5 c 128,-1,129
 66 427 66 427 83 427 c 128,-1,130
 100 427 100 427 112 410 c 0,131,132
 123 394 123 394 125 365 c 1,133,134
 127 392 127 392 140 410 c 0,135,136
 151 427 151 427 166 427 c 0,137,138
 167 427 167 427 168 427 c 0,139,140
 185 427 185 427 197 410 c 0,141,142
 208 394 208 394 211 365 c 1,143,144
 213 392 213 392 224 409.5 c 128,-1,145
 235 427 235 427 253 427 c 0,146,147
 270 427 270 427 282 410 c 0,148,149
 293 394 293 394 295 365 c 1,150,151
 297 392 297 392 309 410 c 0,152,153
 320 427 320 427 335 427 c 0,154,155
 336 427 336 427 337 427 c 256,156,157
 354 427 354 427 366 410 c 0,158,159
 377 394 377 394 380 365 c 1,160,161
 382 392 382 392 393.5 409.5 c 128,-1,162
 405 427 405 427 422 427 c 128,-1,163
 439 427 439 427 451 410 c 0,164,165
 462 394 462 394 464 365 c 1,166,167
 466 392 466 392 478 410 c 0,168,169
 490 427 490 427 507 427 c 256,0,1
EndSplineSet
Validated: 1
EndChar

StartChar: U
Encoding: 85 85 53
Width: 675
VWidth: 1222
Flags: W
LayerCount: 2
Fore
SplineSet
507 703 m 256,0,1
 524 703 524 703 535 684 c 0,2,3
 546 668 546 668 549 641 c 1,4,5
 551 668 551 668 563 684 c 0,6,7
 575 702 575 702 592 703 c 0,8,9
 610 703 610 703 622 683 c 128,-1,10
 634 663 634 663 634 634 c 0,11,12
 634 604 634 604 621.5 584 c 128,-1,13
 609 564 609 564 592 564 c 128,-1,14
 575 564 575 564 562.5 582.5 c 128,-1,15
 550 601 550 601 549 626 c 1,16,17
 547 600 547 600 535 583 c 0,18,19
 523 565 523 565 507 564 c 0,20,21
 490 564 490 564 478 582.5 c 128,-1,22
 466 601 466 601 464 626 c 1,23,24
 462 600 462 600 451 583 c 0,25,26
 439 565 439 565 422 564 c 0,27,28
 405 564 405 564 393.5 582.5 c 128,-1,29
 382 601 382 601 380 626 c 1,30,31
 378 600 378 600 366 583 c 128,-1,32
 354 566 354 566 337 564 c 0,33,34
 320 564 320 564 308.5 582.5 c 128,-1,35
 297 601 297 601 295 626 c 1,36,37
 293 600 293 600 282 583 c 0,38,39
 270 565 270 565 253 564 c 0,40,41
 236 564 236 564 224 582.5 c 128,-1,42
 212 601 212 601 211 626 c 1,43,44
 209 600 209 600 197 583 c 128,-1,45
 185 566 185 566 168 564 c 0,46,47
 150 564 150 564 137.5 584.5 c 128,-1,48
 125 605 125 605 125 634 c 256,49,50
 125 664 125 664 137.5 683.5 c 128,-1,51
 150 703 150 703 168 703 c 0,52,53
 185 703 185 703 197 684 c 0,54,55
 208 668 208 668 211 641 c 1,56,57
 213 668 213 668 224 684 c 0,58,59
 236 702 236 702 253 703 c 0,60,61
 270 703 270 703 282 684 c 0,62,63
 293 668 293 668 295 641 c 1,64,65
 297 668 297 668 309 684 c 0,66,67
 321 702 321 702 337 703 c 0,68,69
 354 703 354 703 366 684 c 0,70,71
 377 668 377 668 380 641 c 1,72,73
 382 668 382 668 393 684 c 0,74,75
 405 702 405 702 422 703 c 0,76,77
 439 703 439 703 451 684 c 0,78,79
 462 668 462 668 464 641 c 1,80,81
 466 668 466 668 478 684 c 0,82,83
 490 703 490 703 507 703 c 256,0,1
507 151 m 256,84,85
 524 151 524 151 535 134 c 0,86,87
 546 118 546 118 549 89 c 1,88,89
 551 116 551 116 563 134 c 0,90,91
 574 151 574 151 590 151 c 0,92,93
 591 151 591 151 592 151 c 0,94,95
 610 151 610 151 622 131.5 c 128,-1,96
 634 112 634 112 634 83 c 256,97,98
 634 53 634 53 621.5 33.5 c 128,-1,99
 609 14 609 14 592 14 c 128,-1,100
 575 14 575 14 562.5 31.5 c 128,-1,101
 550 49 550 49 549 76 c 1,102,103
 547 50 547 50 535 31 c 0,104,105
 524 14 524 14 509 14 c 0,106,107
 508 14 508 14 507 14 c 0,108,109
 490 14 490 14 478 31.5 c 128,-1,110
 466 49 466 49 464 76 c 1,111,112
 462 50 462 50 451 31 c 0,113,114
 440 14 440 14 424 14 c 0,115,116
 423 14 423 14 422 14 c 0,117,118
 405 14 405 14 393.5 31.5 c 128,-1,119
 382 49 382 49 380 76 c 1,120,121
 378 50 378 50 366 31 c 0,122,123
 355 14 355 14 339 14 c 0,124,125
 338 14 338 14 337 14 c 0,126,127
 320 14 320 14 308.5 31.5 c 128,-1,128
 297 49 297 49 295 76 c 1,129,130
 293 50 293 50 282 31 c 0,131,132
 271 14 271 14 255 14 c 0,133,134
 254 14 254 14 253 14 c 0,135,136
 236 14 236 14 224 31.5 c 128,-1,137
 212 49 212 49 211 76 c 1,138,139
 209 50 209 50 197 31 c 0,140,141
 186 14 186 14 170 14 c 0,142,143
 169 14 169 14 168 14 c 0,144,145
 150 14 150 14 137.5 33.5 c 128,-1,146
 125 53 125 53 125 83 c 256,147,148
 125 113 125 113 137.5 132 c 128,-1,149
 150 151 150 151 168 151 c 0,150,151
 185 151 185 151 197 134 c 0,152,153
 208 118 208 118 211 89 c 1,154,155
 213 116 213 116 224 133.5 c 128,-1,156
 235 151 235 151 253 151 c 0,157,158
 270 151 270 151 282 134 c 0,159,160
 293 118 293 118 295 89 c 1,161,162
 297 116 297 116 309 134 c 0,163,164
 320 151 320 151 335 151 c 0,165,166
 336 151 336 151 337 151 c 256,167,168
 354 151 354 151 366 134 c 0,169,170
 377 118 377 118 380 89 c 1,171,172
 382 116 382 116 393.5 133.5 c 128,-1,173
 405 151 405 151 422 151 c 128,-1,174
 439 151 439 151 451 134 c 0,175,176
 462 118 462 118 464 89 c 1,177,178
 466 116 466 116 478 134 c 0,179,180
 490 151 490 151 507 151 c 256,84,85
83 564 m 256,181,182
 101 564 101 564 113 544.5 c 128,-1,183
 125 525 125 525 125 496 c 256,184,185
 125 466 125 466 113 447 c 0,186,187
 102 429 102 429 87 427 c 1,188,189
 102 426 102 426 113 408 c 0,190,191
 125 388 125 388 125 358 c 256,192,193
 125 328 125 328 113.5 309 c 128,-1,194
 102 290 102 290 83 290 c 1,195,196
 101 290 101 290 113 269.5 c 128,-1,197
 125 249 125 249 125 220 c 256,198,199
 125 190 125 190 113.5 170.5 c 128,-1,200
 102 151 102 151 83 151 c 256,201,202
 65 151 65 151 53 171.5 c 128,-1,203
 41 192 41 192 41 220 c 0,204,205
 41 247 41 247 52 267 c 0,206,207
 62 286 62 286 79 290 c 1,208,209
 62 294 62 294 52 311 c 0,210,211
 41 330 41 330 41 358 c 0,212,213
 41 385 41 385 52 406 c 0,214,215
 62 425 62 425 79 427 c 1,216,217
 62 431 62 431 52 449 c 0,218,219
 41 468 41 468 41 496 c 0,220,221
 41 526 41 526 53 545 c 128,-1,222
 65 564 65 564 83 564 c 256,181,182
EndSplineSet
Validated: 1
EndChar

StartChar: V
Encoding: 86 86 54
Width: 675
VWidth: 1222
Flags: W
LayerCount: 2
Fore
SplineSet
507 703 m 256,0,1
 524 703 524 703 535 684 c 0,2,3
 546 668 546 668 549 641 c 1,4,5
 551 668 551 668 563 684 c 0,6,7
 575 702 575 702 592 703 c 0,8,9
 610 703 610 703 622 683 c 128,-1,10
 634 663 634 663 634 634 c 0,11,12
 634 604 634 604 621.5 584 c 128,-1,13
 609 564 609 564 592 564 c 128,-1,14
 575 564 575 564 562.5 582.5 c 128,-1,15
 550 601 550 601 549 626 c 1,16,17
 547 600 547 600 535 583 c 0,18,19
 523 565 523 565 507 564 c 0,20,21
 490 564 490 564 478 582.5 c 128,-1,22
 466 601 466 601 464 626 c 1,23,24
 462 600 462 600 451 583 c 0,25,26
 439 565 439 565 422 564 c 0,27,28
 405 564 405 564 393.5 582.5 c 128,-1,29
 382 601 382 601 380 626 c 1,30,31
 378 600 378 600 366 583 c 128,-1,32
 354 566 354 566 337 564 c 0,33,34
 320 564 320 564 308.5 582.5 c 128,-1,35
 297 601 297 601 295 626 c 1,36,37
 293 600 293 600 282 583 c 0,38,39
 270 565 270 565 253 564 c 0,40,41
 235 564 235 564 223 584.5 c 128,-1,42
 211 605 211 605 211 634 c 256,43,44
 211 664 211 664 223 683.5 c 128,-1,45
 235 703 235 703 253 703 c 0,46,47
 270 703 270 703 282 684 c 0,48,49
 293 668 293 668 295 641 c 1,50,51
 297 668 297 668 309 684 c 0,52,53
 321 702 321 702 337 703 c 0,54,55
 354 703 354 703 366 684 c 0,56,57
 377 668 377 668 380 641 c 1,58,59
 382 668 382 668 393 684 c 0,60,61
 405 702 405 702 422 703 c 0,62,63
 439 703 439 703 451 684 c 0,64,65
 462 668 462 668 464 641 c 1,66,67
 466 668 466 668 478 684 c 0,68,69
 490 703 490 703 507 703 c 256,0,1
507 151 m 256,70,71
 524 151 524 151 535 134 c 0,72,73
 546 118 546 118 549 89 c 1,74,75
 551 116 551 116 563 134 c 0,76,77
 574 151 574 151 590 151 c 0,78,79
 591 151 591 151 592 151 c 0,80,81
 610 151 610 151 622 131.5 c 128,-1,82
 634 112 634 112 634 83 c 256,83,84
 634 53 634 53 621.5 33.5 c 128,-1,85
 609 14 609 14 592 14 c 128,-1,86
 575 14 575 14 562.5 31.5 c 128,-1,87
 550 49 550 49 549 76 c 1,88,89
 547 50 547 50 535 31 c 0,90,91
 524 14 524 14 509 14 c 0,92,93
 508 14 508 14 507 14 c 0,94,95
 490 14 490 14 478 31.5 c 128,-1,96
 466 49 466 49 464 76 c 1,97,98
 462 50 462 50 451 31 c 0,99,100
 440 14 440 14 424 14 c 0,101,102
 423 14 423 14 422 14 c 0,103,104
 405 14 405 14 393.5 31.5 c 128,-1,105
 382 49 382 49 380 76 c 1,106,107
 378 50 378 50 366 31 c 0,108,109
 355 14 355 14 339 14 c 0,110,111
 338 14 338 14 337 14 c 0,112,113
 320 14 320 14 308.5 31.5 c 128,-1,114
 297 49 297 49 295 76 c 1,115,116
 293 50 293 50 282 31 c 0,117,118
 271 14 271 14 255 14 c 0,119,120
 254 14 254 14 253 14 c 0,121,122
 235 14 235 14 223 33.5 c 128,-1,123
 211 53 211 53 211 83 c 256,124,125
 211 113 211 113 223 132 c 128,-1,126
 235 151 235 151 253 151 c 0,127,128
 270 151 270 151 282 134 c 0,129,130
 293 118 293 118 295 89 c 1,131,132
 297 116 297 116 309 134 c 0,133,134
 320 151 320 151 335 151 c 0,135,136
 336 151 336 151 337 151 c 256,137,138
 354 151 354 151 366 134 c 0,139,140
 377 118 377 118 380 89 c 1,141,142
 382 116 382 116 393.5 133.5 c 128,-1,143
 405 151 405 151 422 151 c 128,-1,144
 439 151 439 151 451 134 c 0,145,146
 462 118 462 118 464 89 c 1,147,148
 466 116 466 116 478 134 c 0,149,150
 490 151 490 151 507 151 c 256,70,71
168 290 m 256,151,152
 186 290 186 290 198.5 269.5 c 128,-1,153
 211 249 211 249 211 220 c 256,154,155
 211 190 211 190 198.5 170.5 c 128,-1,156
 186 151 186 151 168 151 c 128,-1,157
 150 151 150 151 137.5 171.5 c 128,-1,158
 125 192 125 192 125 220 c 0,159,160
 125 250 125 250 137.5 270 c 128,-1,161
 150 290 150 290 168 290 c 256,151,152
83 427 m 256,162,163
 101 427 101 427 113 407 c 0,164,165
 125 386 125 386 125 358 c 0,166,167
 125 328 125 328 113.5 309 c 128,-1,168
 102 290 102 290 83 290 c 256,169,170
 65 290 65 290 53 310 c 0,171,172
 41 328 41 328 41 358 c 256,173,174
 41 388 41 388 53 407.5 c 128,-1,175
 65 427 65 427 83 427 c 256,162,163
168 564 m 256,176,177
 186 564 186 564 198.5 544.5 c 128,-1,178
 211 525 211 525 211 496 c 256,179,180
 211 466 211 466 198.5 446.5 c 128,-1,181
 186 427 186 427 168 427 c 128,-1,182
 150 427 150 427 137.5 447.5 c 128,-1,183
 125 468 125 468 125 496 c 0,184,185
 125 526 125 526 137.5 545 c 128,-1,186
 150 564 150 564 168 564 c 256,176,177
EndSplineSet
Validated: 1
EndChar

StartChar: W
Encoding: 87 87 55
Width: 675
VWidth: 1222
Flags: W
LayerCount: 2
Fore
SplineSet
507 703 m 256,0,1
 524 703 524 703 535 684 c 0,2,3
 546 668 546 668 549 641 c 1,4,5
 551 668 551 668 563 684 c 0,6,7
 575 702 575 702 592 703 c 0,8,9
 610 703 610 703 622 683 c 128,-1,10
 634 663 634 663 634 634 c 0,11,12
 634 604 634 604 621.5 584 c 128,-1,13
 609 564 609 564 592 564 c 128,-1,14
 575 564 575 564 562.5 582.5 c 128,-1,15
 550 601 550 601 549 626 c 1,16,17
 547 600 547 600 535 583 c 0,18,19
 523 565 523 565 507 564 c 0,20,21
 490 564 490 564 478 582.5 c 128,-1,22
 466 601 466 601 464 626 c 1,23,24
 462 600 462 600 451 583 c 0,25,26
 439 565 439 565 422 564 c 0,27,28
 405 564 405 564 393.5 582.5 c 128,-1,29
 382 601 382 601 380 626 c 1,30,31
 378 600 378 600 366 583 c 128,-1,32
 354 566 354 566 337 564 c 0,33,34
 320 564 320 564 308.5 582.5 c 128,-1,35
 297 601 297 601 295 626 c 1,36,37
 293 600 293 600 282 583 c 0,38,39
 270 565 270 565 253 564 c 0,40,41
 236 564 236 564 224 582.5 c 128,-1,42
 212 601 212 601 211 626 c 1,43,44
 209 600 209 600 197 583 c 128,-1,45
 185 566 185 566 168 564 c 0,46,47
 150 564 150 564 137.5 584.5 c 128,-1,48
 125 605 125 605 125 634 c 256,49,50
 125 664 125 664 137.5 683.5 c 128,-1,51
 150 703 150 703 168 703 c 0,52,53
 185 703 185 703 197 684 c 0,54,55
 208 668 208 668 211 641 c 1,56,57
 213 668 213 668 224 684 c 0,58,59
 236 702 236 702 253 703 c 0,60,61
 270 703 270 703 282 684 c 0,62,63
 293 668 293 668 295 641 c 1,64,65
 297 668 297 668 309 684 c 0,66,67
 321 702 321 702 337 703 c 0,68,69
 354 703 354 703 366 684 c 0,70,71
 377 668 377 668 380 641 c 1,72,73
 382 668 382 668 393 684 c 0,74,75
 405 702 405 702 422 703 c 0,76,77
 439 703 439 703 451 684 c 0,78,79
 462 668 462 668 464 641 c 1,80,81
 466 668 466 668 478 684 c 0,82,83
 490 703 490 703 507 703 c 256,0,1
507 151 m 256,84,85
 524 151 524 151 535 134 c 0,86,87
 546 118 546 118 549 89 c 1,88,89
 551 116 551 116 563 134 c 0,90,91
 574 151 574 151 590 151 c 0,92,93
 591 151 591 151 592 151 c 0,94,95
 610 151 610 151 622 131.5 c 128,-1,96
 634 112 634 112 634 83 c 256,97,98
 634 53 634 53 621.5 33.5 c 128,-1,99
 609 14 609 14 592 14 c 128,-1,100
 575 14 575 14 562.5 31.5 c 128,-1,101
 550 49 550 49 549 76 c 1,102,103
 547 50 547 50 535 31 c 0,104,105
 524 14 524 14 509 14 c 0,106,107
 508 14 508 14 507 14 c 0,108,109
 490 14 490 14 478 31.5 c 128,-1,110
 466 49 466 49 464 76 c 1,111,112
 462 50 462 50 451 31 c 0,113,114
 440 14 440 14 424 14 c 0,115,116
 423 14 423 14 422 14 c 0,117,118
 405 14 405 14 393.5 31.5 c 128,-1,119
 382 49 382 49 380 76 c 1,120,121
 378 50 378 50 366 31 c 0,122,123
 355 14 355 14 339 14 c 0,124,125
 338 14 338 14 337 14 c 0,126,127
 320 14 320 14 308.5 31.5 c 128,-1,128
 297 49 297 49 295 76 c 1,129,130
 293 50 293 50 282 31 c 0,131,132
 271 14 271 14 255 14 c 0,133,134
 254 14 254 14 253 14 c 0,135,136
 236 14 236 14 224 31.5 c 128,-1,137
 212 49 212 49 211 76 c 1,138,139
 209 50 209 50 197 31 c 0,140,141
 186 14 186 14 170 14 c 0,142,143
 169 14 169 14 168 14 c 0,144,145
 150 14 150 14 137.5 33.5 c 128,-1,146
 125 53 125 53 125 83 c 256,147,148
 125 113 125 113 137.5 132 c 128,-1,149
 150 151 150 151 168 151 c 0,150,151
 185 151 185 151 197 134 c 0,152,153
 208 118 208 118 211 89 c 1,154,155
 213 116 213 116 224 133.5 c 128,-1,156
 235 151 235 151 253 151 c 0,157,158
 270 151 270 151 282 134 c 0,159,160
 293 118 293 118 295 89 c 1,161,162
 297 116 297 116 309 134 c 0,163,164
 320 151 320 151 335 151 c 0,165,166
 336 151 336 151 337 151 c 256,167,168
 354 151 354 151 366 134 c 0,169,170
 377 118 377 118 380 89 c 1,171,172
 382 116 382 116 393.5 133.5 c 128,-1,173
 405 151 405 151 422 151 c 128,-1,174
 439 151 439 151 451 134 c 0,175,176
 462 118 462 118 464 89 c 1,177,178
 466 116 466 116 478 134 c 0,179,180
 490 151 490 151 507 151 c 256,84,85
168 427 m 0,181,182
 185 427 185 427 197 410 c 0,183,184
 208 394 208 394 211 365 c 1,185,186
 213 392 213 392 224 409.5 c 128,-1,187
 235 427 235 427 253 427 c 128,-1,188
 271 427 271 427 283 407 c 0,189,190
 295 386 295 386 295 358 c 0,191,192
 295 328 295 328 283 309 c 128,-1,193
 271 290 271 290 253 290 c 0,194,195
 236 290 236 290 224 307.5 c 128,-1,196
 212 325 212 325 211 352 c 1,197,198
 209 326 209 326 197 307 c 0,199,200
 186 290 186 290 170 290 c 0,201,202
 169 290 169 290 168 290 c 0,203,204
 150 290 150 290 138 310 c 0,205,206
 126 328 126 328 125 358 c 256,207,208
 125 388 125 388 137.5 407.5 c 128,-1,209
 150 427 150 427 168 427 c 0,181,182
83 290 m 256,210,211
 101 290 101 290 113 269.5 c 128,-1,212
 125 249 125 249 125 220 c 256,213,214
 125 190 125 190 113.5 170.5 c 128,-1,215
 102 151 102 151 83 151 c 256,216,217
 65 151 65 151 53 171.5 c 128,-1,218
 41 192 41 192 41 220 c 0,219,220
 41 250 41 250 53 270 c 128,-1,221
 65 290 65 290 83 290 c 256,210,211
83 564 m 256,222,223
 101 564 101 564 113 544.5 c 128,-1,224
 125 525 125 525 125 496 c 256,225,226
 125 466 125 466 113.5 446.5 c 128,-1,227
 102 427 102 427 83 427 c 256,228,229
 65 427 65 427 53 447.5 c 128,-1,230
 41 468 41 468 41 496 c 0,231,232
 41 526 41 526 53 545 c 128,-1,233
 65 564 65 564 83 564 c 256,222,223
EndSplineSet
Validated: 1
EndChar

StartChar: X
Encoding: 88 88 56
Width: 675
VWidth: 1222
Flags: W
LayerCount: 2
Fore
SplineSet
507 703 m 0,0,1
 524 703 524 703 535 684 c 0,2,3
 546 668 546 668 549 641 c 1,4,5
 551 668 551 668 563 684 c 0,6,7
 575 702 575 702 592 703 c 0,8,9
 610 703 610 703 622 683 c 128,-1,10
 634 663 634 663 634 634 c 0,11,12
 634 604 634 604 621.5 584 c 128,-1,13
 609 564 609 564 592 564 c 128,-1,14
 575 564 575 564 562.5 582.5 c 128,-1,15
 550 601 550 601 549 626 c 1,16,17
 547 600 547 600 535 583 c 0,18,19
 523 565 523 565 507 564 c 0,20,21
 489 564 489 564 476.5 584.5 c 128,-1,22
 464 605 464 605 464 634 c 256,23,24
 464 664 464 664 476.5 683.5 c 128,-1,25
 489 703 489 703 507 703 c 0,0,1
168 703 m 0,26,27
 186 703 186 703 198.5 683 c 128,-1,28
 211 663 211 663 211 634 c 0,29,30
 211 604 211 604 198.5 584 c 128,-1,31
 186 564 186 564 168 564 c 0,32,33
 151 564 151 564 139 582.5 c 128,-1,34
 127 601 127 601 125 626 c 1,35,36
 123 600 123 600 112 583 c 0,37,38
 100 565 100 565 83 564 c 0,39,40
 65 564 65 564 53 584.5 c 128,-1,41
 41 605 41 605 41 634 c 256,42,43
 41 664 41 664 53.5 683.5 c 128,-1,44
 66 703 66 703 83 703 c 128,-1,45
 100 703 100 703 112 684 c 0,46,47
 123 668 123 668 125 641 c 1,48,49
 127 668 127 668 140 684 c 0,50,51
 151 703 151 703 168 703 c 0,26,27
83 151 m 0,52,53
 100 151 100 151 112 134 c 0,54,55
 123 118 123 118 125 89 c 1,56,57
 127 116 127 116 140 134 c 0,58,59
 151 151 151 151 166 151 c 0,60,61
 167 151 167 151 168 151 c 0,62,63
 186 151 186 151 198.5 131.5 c 128,-1,64
 211 112 211 112 211 83 c 256,65,66
 211 53 211 53 198.5 33.5 c 128,-1,67
 186 14 186 14 168 14 c 0,68,69
 151 14 151 14 139 31.5 c 128,-1,70
 127 49 127 49 125 76 c 1,71,72
 123 50 123 50 112 31 c 0,73,74
 101 14 101 14 85 14 c 0,75,76
 84 14 84 14 83 14 c 0,77,78
 65 14 65 14 53 33.5 c 128,-1,79
 41 53 41 53 41 83 c 256,80,81
 41 113 41 113 53 132 c 128,-1,82
 65 151 65 151 83 151 c 0,52,53
507 151 m 0,83,84
 524 151 524 151 535 134 c 0,85,86
 546 118 546 118 549 89 c 1,87,88
 551 116 551 116 563 134 c 0,89,90
 574 151 574 151 590 151 c 0,91,92
 591 151 591 151 592 151 c 0,93,94
 610 151 610 151 622 131.5 c 128,-1,95
 634 112 634 112 634 83 c 256,96,97
 634 53 634 53 621.5 33.5 c 128,-1,98
 609 14 609 14 592 14 c 128,-1,99
 575 14 575 14 562.5 31.5 c 128,-1,100
 550 49 550 49 549 76 c 1,101,102
 547 50 547 50 535 31 c 0,103,104
 524 14 524 14 509 14 c 0,105,106
 508 14 508 14 507 14 c 0,107,108
 489 14 489 14 476.5 33.5 c 128,-1,109
 464 53 464 53 464 83 c 256,110,111
 464 113 464 113 476.5 132 c 128,-1,112
 489 151 489 151 507 151 c 0,83,84
253 290 m 256,113,114
 271 290 271 290 283 269.5 c 128,-1,115
 295 249 295 249 295 220 c 256,116,117
 295 190 295 190 283 170.5 c 128,-1,118
 271 151 271 151 253 151 c 256,119,120
 235 151 235 151 223 171.5 c 128,-1,121
 211 192 211 192 211 220 c 0,122,123
 211 250 211 250 223 270 c 128,-1,124
 235 290 235 290 253 290 c 256,113,114
253 564 m 256,125,126
 271 564 271 564 283 544.5 c 128,-1,127
 295 525 295 525 295 496 c 256,128,129
 295 466 295 466 283 446.5 c 128,-1,130
 271 427 271 427 253 427 c 256,131,132
 235 427 235 427 223 447.5 c 128,-1,133
 211 468 211 468 211 496 c 0,134,135
 211 526 211 526 223 545 c 128,-1,136
 235 564 235 564 253 564 c 256,125,126
337 427 m 256,137,138
 356 427 356 427 368 407 c 0,139,140
 380 386 380 386 380 358 c 0,141,142
 380 328 380 328 367.5 309 c 128,-1,143
 355 290 355 290 337 290 c 256,144,145
 319 290 319 290 307 310 c 0,146,147
 295 328 295 328 295 358 c 256,148,149
 295 388 295 388 307 407.5 c 128,-1,150
 319 427 319 427 337 427 c 256,137,138
422 290 m 256,151,152
 440 290 440 290 452 269.5 c 128,-1,153
 464 249 464 249 464 220 c 256,154,155
 464 190 464 190 452 170.5 c 128,-1,156
 440 151 440 151 422 151 c 128,-1,157
 404 151 404 151 392 171.5 c 128,-1,158
 380 192 380 192 380 220 c 0,159,160
 380 250 380 250 392 270 c 128,-1,161
 404 290 404 290 422 290 c 256,151,152
422 564 m 256,162,163
 440 564 440 564 452 544.5 c 128,-1,164
 464 525 464 525 464 496 c 256,165,166
 464 466 464 466 452 446.5 c 128,-1,167
 440 427 440 427 422 427 c 128,-1,168
 404 427 404 427 392 447.5 c 128,-1,169
 380 468 380 468 380 496 c 0,170,171
 380 526 380 526 392 545 c 128,-1,172
 404 564 404 564 422 564 c 256,162,163
EndSplineSet
Validated: 1
EndChar

StartChar: Y
Encoding: 89 89 57
Width: 675
VWidth: 1222
Flags: W
LayerCount: 2
Fore
SplineSet
168 427 m 256,0,1
 185 427 185 427 197 410 c 0,2,3
 208 394 208 394 211 365 c 1,4,5
 213 392 213 392 224 409.5 c 128,-1,6
 235 427 235 427 253 427 c 128,-1,7
 271 427 271 427 283 407 c 0,8,9
 295 386 295 386 295 358 c 0,10,11
 295 328 295 328 283 309 c 128,-1,12
 271 290 271 290 253 290 c 0,13,14
 236 290 236 290 224 307.5 c 128,-1,15
 212 325 212 325 211 352 c 1,16,17
 209 326 209 326 197 307 c 0,18,19
 186 290 186 290 170 290 c 0,20,21
 169 290 169 290 168 290 c 256,22,23
 151 290 151 290 139 307.5 c 128,-1,24
 127 325 127 325 125 352 c 1,25,26
 123 326 123 326 112 307 c 0,27,28
 101 290 101 290 85 290 c 0,29,30
 84 290 84 290 83 290 c 0,31,32
 65 290 65 290 53 310 c 0,33,34
 41 328 41 328 41 358 c 256,35,36
 41 388 41 388 53.5 407.5 c 128,-1,37
 66 427 66 427 83 427 c 128,-1,38
 100 427 100 427 112 410 c 0,39,40
 123 394 123 394 125 365 c 1,41,42
 127 392 127 392 139 409.5 c 128,-1,43
 151 427 151 427 168 427 c 256,0,1
507 703 m 256,44,45
 524 703 524 703 535 684 c 0,46,47
 546 668 546 668 549 641 c 1,48,49
 551 668 551 668 563 684 c 0,50,51
 575 702 575 702 592 703 c 0,52,53
 610 703 610 703 622 683 c 128,-1,54
 634 663 634 663 634 634 c 0,55,56
 634 604 634 604 621.5 584 c 128,-1,57
 609 564 609 564 592 564 c 128,-1,58
 575 564 575 564 562.5 582.5 c 128,-1,59
 550 601 550 601 549 626 c 1,60,61
 547 600 547 600 535 583 c 0,62,63
 523 565 523 565 507 564 c 0,64,65
 490 564 490 564 478 582.5 c 128,-1,66
 466 601 466 601 464 626 c 1,67,68
 462 600 462 600 451 583 c 0,69,70
 439 565 439 565 422 564 c 0,71,72
 404 564 404 564 392 584.5 c 128,-1,73
 380 605 380 605 380 634 c 256,74,75
 380 664 380 664 392 683.5 c 128,-1,76
 404 703 404 703 422 703 c 0,77,78
 439 703 439 703 451 684 c 0,79,80
 462 668 462 668 464 641 c 1,81,82
 466 668 466 668 478 684 c 0,83,84
 490 703 490 703 507 703 c 256,44,45
507 151 m 256,85,86
 524 151 524 151 535 134 c 0,87,88
 546 118 546 118 549 89 c 1,89,90
 551 116 551 116 563 134 c 0,91,92
 574 151 574 151 590 151 c 0,93,94
 591 151 591 151 592 151 c 0,95,96
 610 151 610 151 622 131.5 c 128,-1,97
 634 112 634 112 634 83 c 256,98,99
 634 53 634 53 621.5 33.5 c 128,-1,100
 609 14 609 14 592 14 c 128,-1,101
 575 14 575 14 562.5 31.5 c 128,-1,102
 550 49 550 49 549 76 c 1,103,104
 547 50 547 50 535 31 c 0,105,106
 524 14 524 14 509 14 c 0,107,108
 508 14 508 14 507 14 c 0,109,110
 490 14 490 14 478 31.5 c 128,-1,111
 466 49 466 49 464 76 c 1,112,113
 462 50 462 50 451 31 c 0,114,115
 440 14 440 14 424 14 c 0,116,117
 423 14 423 14 422 14 c 0,118,119
 404 14 404 14 392 33.5 c 128,-1,120
 380 53 380 53 380 83 c 256,121,122
 380 113 380 113 392 132 c 128,-1,123
 404 151 404 151 422 151 c 0,124,125
 439 151 439 151 451 134 c 0,126,127
 462 118 462 118 464 89 c 1,128,129
 466 116 466 116 478 134 c 0,130,131
 490 151 490 151 507 151 c 256,85,86
337 290 m 256,132,133
 355 290 355 290 367.5 269.5 c 128,-1,134
 380 249 380 249 380 220 c 256,135,136
 380 190 380 190 367.5 170.5 c 128,-1,137
 355 151 355 151 337 151 c 256,138,139
 319 151 319 151 307 171.5 c 128,-1,140
 295 192 295 192 295 220 c 0,141,142
 295 250 295 250 307 270 c 128,-1,143
 319 290 319 290 337 290 c 256,132,133
337 564 m 256,144,145
 355 564 355 564 367.5 544.5 c 128,-1,146
 380 525 380 525 380 496 c 256,147,148
 380 466 380 466 367.5 446.5 c 128,-1,149
 355 427 355 427 337 427 c 256,150,151
 319 427 319 427 307 447.5 c 128,-1,152
 295 468 295 468 295 496 c 0,153,154
 295 526 295 526 307 545 c 128,-1,155
 319 564 319 564 337 564 c 256,144,145
EndSplineSet
Validated: 1
EndChar

StartChar: Z
Encoding: 90 90 58
Width: 675
VWidth: 1222
Flags: W
LayerCount: 2
Fore
SplineSet
168 703 m 0,0,1
 186 703 186 703 198.5 683 c 128,-1,2
 211 663 211 663 211 634 c 0,3,4
 211 604 211 604 198.5 584 c 128,-1,5
 186 564 186 564 168 564 c 0,6,7
 151 564 151 564 139 582.5 c 128,-1,8
 127 601 127 601 125 626 c 1,9,10
 123 600 123 600 112 583 c 0,11,12
 101 568 101 568 87 564 c 1,13,14
 102 563 102 563 113 546 c 0,15,16
 125 526 125 526 125 496 c 0,17,18
 125 469 125 469 114.5 449.5 c 128,-1,19
 104 430 104 430 87 427 c 1,20,21
 104 424 104 424 114 404 c 128,-1,22
 124 384 124 384 125 358 c 256,23,24
 125 331 125 331 115 311 c 0,25,26
 104 293 104 293 87 290 c 1,27,28
 103 287 103 287 114 267.5 c 128,-1,29
 125 248 125 248 125 220 c 0,30,31
 125 193 125 193 115 174 c 0,32,33
 104 156 104 156 87 151 c 1,34,35
 103 148 103 148 114 128.5 c 128,-1,36
 125 109 125 109 125 83 c 0,37,38
 125 53 125 53 113.5 33.5 c 128,-1,39
 102 14 102 14 83 14 c 256,40,41
 65 14 65 14 53 33.5 c 128,-1,42
 41 53 41 53 41 83 c 0,43,44
 41 110 41 110 52 130 c 0,45,46
 62 149 62 149 79 151 c 1,47,48
 62 155 62 155 51.5 174 c 128,-1,49
 41 193 41 193 41 220 c 256,50,51
 41 247 41 247 52 267 c 0,52,53
 62 286 62 286 79 290 c 1,54,55
 62 294 62 294 52 311 c 0,56,57
 41 330 41 330 41 358 c 0,58,59
 41 385 41 385 52 406 c 0,60,61
 62 425 62 425 79 427 c 1,62,63
 62 431 62 431 52 449 c 0,64,65
 41 468 41 468 41 496 c 0,66,67
 41 523 41 523 52 543 c 0,68,69
 62 562 62 562 79 564 c 1,70,71
 62 568 62 568 51.5 587 c 128,-1,72
 41 606 41 606 41 634 c 0,73,74
 41 664 41 664 53.5 683.5 c 128,-1,75
 66 703 66 703 83 703 c 128,-1,76
 100 703 100 703 112 684 c 0,77,78
 123 668 123 668 125 641 c 1,79,80
 127 668 127 668 140 684 c 0,81,82
 151 703 151 703 168 703 c 0,0,1
507 151 m 0,83,84
 524 151 524 151 535 134 c 0,85,86
 546 118 546 118 549 89 c 1,87,88
 551 115 551 115 561 132 c 128,-1,89
 571 149 571 149 587 151 c 1,90,91
 570 155 570 155 560 174 c 0,92,93
 549 193 549 193 549 220 c 128,-1,94
 549 247 549 247 560 267 c 0,95,96
 570 286 570 286 587 290 c 1,97,98
 570 294 570 294 560 311 c 0,99,100
 549 330 549 330 549 358 c 0,101,102
 549 385 549 385 560 406 c 0,103,104
 570 425 570 425 587 427 c 1,105,106
 570 431 570 431 560 449 c 0,107,108
 549 468 549 468 549 496 c 0,109,110
 549 523 549 523 560 543 c 0,111,112
 570 562 570 562 587 564 c 1,113,114
 570 568 570 568 560 587 c 0,115,116
 549 606 549 606 549 634 c 0,117,118
 549 664 549 664 561 683.5 c 128,-1,119
 573 703 573 703 592 703 c 256,120,121
 610 703 610 703 622 683 c 128,-1,122
 634 663 634 663 634 634 c 0,123,124
 634 607 634 607 622 587 c 0,125,126
 611 569 611 569 596 564 c 1,127,128
 612 561 612 561 623 542.5 c 128,-1,129
 634 524 634 524 634 496 c 0,130,131
 634 466 634 466 621.5 446.5 c 128,-1,132
 609 427 609 427 592 427 c 1,133,134
 610 427 610 427 622 407 c 0,135,136
 634 386 634 386 634 358 c 0,137,138
 634 328 634 328 621 310 c 0,139,140
 610 292 610 292 595 290 c 1,141,142
 610 289 610 289 621 270 c 0,143,144
 633 250 633 250 634 220 c 0,145,146
 634 190 634 190 621 173 c 0,147,148
 610 155 610 155 595 151 c 1,149,150
 610 150 610 150 621 132 c 0,151,152
 633 112 633 112 634 83 c 0,153,154
 634 53 634 53 621.5 33.5 c 128,-1,155
 609 14 609 14 592 14 c 128,-1,156
 575 14 575 14 562.5 31.5 c 128,-1,157
 550 49 550 49 549 76 c 1,158,159
 547 50 547 50 535 31 c 0,160,161
 524 14 524 14 509 14 c 0,162,163
 508 14 508 14 507 14 c 0,164,165
 489 14 489 14 476.5 33.5 c 128,-1,166
 464 53 464 53 464 83 c 256,167,168
 464 113 464 113 476.5 132 c 128,-1,169
 489 151 489 151 507 151 c 0,83,84
253 564 m 256,170,171
 271 564 271 564 283 544.5 c 128,-1,172
 295 525 295 525 295 496 c 256,173,174
 295 466 295 466 283 446.5 c 128,-1,175
 271 427 271 427 253 427 c 256,176,177
 235 427 235 427 223 447.5 c 128,-1,178
 211 468 211 468 211 496 c 0,179,180
 211 526 211 526 223 545 c 128,-1,181
 235 564 235 564 253 564 c 256,170,171
422 290 m 256,182,183
 440 290 440 290 452 269.5 c 128,-1,184
 464 249 464 249 464 220 c 256,185,186
 464 190 464 190 452 170.5 c 128,-1,187
 440 151 440 151 422 151 c 128,-1,188
 404 151 404 151 392 171.5 c 128,-1,189
 380 192 380 192 380 220 c 0,190,191
 380 250 380 250 392 270 c 128,-1,192
 404 290 404 290 422 290 c 256,182,183
337 427 m 256,193,194
 356 427 356 427 368 407 c 0,195,196
 380 386 380 386 380 358 c 0,197,198
 380 328 380 328 367.5 309 c 128,-1,199
 355 290 355 290 337 290 c 256,200,201
 319 290 319 290 307 310 c 0,202,203
 295 328 295 328 295 358 c 256,204,205
 295 388 295 388 307 407.5 c 128,-1,206
 319 427 319 427 337 427 c 256,193,194
EndSplineSet
Validated: 1
EndChar

StartChar: bracketleft
Encoding: 91 91 59
Width: 675
VWidth: 1222
Flags: W
LayerCount: 2
Fore
SplineSet
592 564 m 0,0,1
 610 564 610 564 622 545.5 c 128,-1,2
 634 527 634 527 634 497 c 256,3,4
 634 467 634 467 621.5 447 c 128,-1,5
 609 427 609 427 592 427 c 1,6,7
 610 427 610 427 622 407 c 128,-1,8
 634 387 634 387 634 360 c 0,9,10
 634 330 634 330 621 311 c 0,11,12
 610 292 610 292 595 290 c 1,13,14
 610 290 610 290 621 271 c 0,15,16
 633 249 633 249 634 220 c 0,17,18
 634 190 634 190 621.5 171.5 c 128,-1,19
 609 153 609 153 592 153 c 0,20,21
 574 153 574 153 561.5 173 c 128,-1,22
 549 193 549 193 549 220 c 128,-1,23
 549 247 549 247 560 268 c 0,24,25
 570 287 570 287 587 290 c 1,26,27
 570 293 570 293 560 311 c 0,28,29
 549 330 549 330 549 360 c 0,30,31
 549 387 549 387 560 406 c 0,32,33
 570 425 570 425 587 427 c 1,34,35
 571 431 571 431 560.5 449.5 c 128,-1,36
 550 468 550 468 549 489 c 1,37,38
 547 465 547 465 535 446 c 0,39,40
 523 427 523 427 507 427 c 0,41,42
 490 427 490 427 478 446 c 128,-1,43
 466 465 466 465 464 489 c 1,44,45
 462 465 462 465 451 446 c 0,46,47
 439 427 439 427 422 427 c 0,48,49
 405 427 405 427 393.5 446 c 128,-1,50
 382 465 382 465 380 489 c 1,51,52
 378 465 378 465 366 446 c 128,-1,53
 354 427 354 427 337 427 c 0,54,55
 320 427 320 427 308.5 446 c 128,-1,56
 297 465 297 465 295 489 c 1,57,58
 293 465 293 465 282 446 c 0,59,60
 270 427 270 427 253 427 c 0,61,62
 236 427 236 427 224 446 c 128,-1,63
 212 465 212 465 211 489 c 1,64,65
 209 465 209 465 197 446 c 128,-1,66
 185 427 185 427 168 427 c 256,67,68
 151 427 151 427 139 446 c 128,-1,69
 127 465 127 465 125 489 c 1,70,71
 123 465 123 465 112 446 c 0,72,73
 100 427 100 427 83 427 c 1,74,75
 101 427 101 427 113 407 c 128,-1,76
 125 387 125 387 125 360 c 0,77,78
 125 330 125 330 113 311 c 0,79,80
 102 292 102 292 87 290 c 1,81,82
 102 290 102 290 113 271 c 0,83,84
 125 249 125 249 125 220 c 256,85,86
 125 190 125 190 113.5 171.5 c 128,-1,87
 102 153 102 153 83 153 c 256,88,89
 65 153 65 153 53 173 c 128,-1,90
 41 193 41 193 41 220 c 128,-1,91
 41 247 41 247 52 268 c 0,92,93
 62 287 62 287 79 290 c 1,94,95
 62 293 62 293 51.5 311.5 c 128,-1,96
 41 330 41 330 41 360 c 0,97,98
 41 387 41 387 52 406 c 0,99,100
 62 425 62 425 79 427 c 1,101,102
 62 430 62 430 51.5 449 c 128,-1,103
 41 468 41 468 41 497.5 c 128,-1,104
 41 527 41 527 53.5 545.5 c 128,-1,105
 66 564 66 564 83 564 c 0,106,107
 100 564 100 564 112 548 c 0,108,109
 123 532 123 532 125 503 c 1,110,111
 127 530 127 530 140 548 c 0,112,113
 152 564 152 564 168 564 c 0,114,115
 185 564 185 564 197 548 c 0,116,117
 208 532 208 532 211 503 c 1,118,119
 213 530 213 530 224 547 c 128,-1,120
 235 564 235 564 253 564 c 0,121,122
 270 564 270 564 282 548 c 0,123,124
 293 532 293 532 295 503 c 1,125,126
 297 530 297 530 309 548 c 0,127,128
 321 564 321 564 337 564 c 256,129,130
 354 564 354 564 366 548 c 0,131,132
 377 532 377 532 380 503 c 1,133,134
 382 530 382 530 393.5 547 c 128,-1,135
 405 564 405 564 422 564 c 0,136,137
 439 564 439 564 451 548 c 0,138,139
 462 532 462 532 464 503 c 1,140,141
 466 530 466 530 477.5 547 c 128,-1,142
 489 564 489 564 507 564 c 0,143,144
 524 564 524 564 535 548 c 0,145,146
 546 532 546 532 549 503 c 1,147,148
 551 530 551 530 563 547 c 128,-1,149
 575 564 575 564 592 564 c 0,0,1
EndSplineSet
Validated: 1
EndChar

StartChar: backslash
Encoding: 92 92 60
Width: 675
VWidth: 1222
Flags: W
LayerCount: 2
Fore
SplineSet
507 703 m 0,0,1
 524 703 524 703 535 684 c 0,2,3
 546 668 546 668 549 641 c 1,4,5
 551 668 551 668 563 684 c 0,6,7
 575 702 575 702 592 703 c 0,8,9
 610 703 610 703 622 683 c 128,-1,10
 634 663 634 663 634 634 c 0,11,12
 634 604 634 604 621.5 584 c 128,-1,13
 609 564 609 564 592 564 c 128,-1,14
 575 564 575 564 562.5 582.5 c 128,-1,15
 550 601 550 601 549 626 c 1,16,17
 547 600 547 600 535 583 c 0,18,19
 523 565 523 565 507 564 c 0,20,21
 489 564 489 564 476.5 584.5 c 128,-1,22
 464 605 464 605 464 634 c 256,23,24
 464 664 464 664 476.5 683.5 c 128,-1,25
 489 703 489 703 507 703 c 0,0,1
83 151 m 0,26,27
 100 151 100 151 112 134 c 0,28,29
 123 118 123 118 125 89 c 1,30,31
 127 116 127 116 140 134 c 0,32,33
 151 151 151 151 166 151 c 0,34,35
 167 151 167 151 168 151 c 0,36,37
 186 151 186 151 198.5 131.5 c 128,-1,38
 211 112 211 112 211 83 c 256,39,40
 211 53 211 53 198.5 33.5 c 128,-1,41
 186 14 186 14 168 14 c 0,42,43
 151 14 151 14 139 31.5 c 128,-1,44
 127 49 127 49 125 76 c 1,45,46
 123 50 123 50 112 31 c 0,47,48
 101 14 101 14 85 14 c 0,49,50
 84 14 84 14 83 14 c 0,51,52
 65 14 65 14 53 33.5 c 128,-1,53
 41 53 41 53 41 83 c 256,54,55
 41 113 41 113 53 132 c 128,-1,56
 65 151 65 151 83 151 c 0,26,27
253 290 m 256,57,58
 271 290 271 290 283 269.5 c 128,-1,59
 295 249 295 249 295 220 c 256,60,61
 295 190 295 190 283 170.5 c 128,-1,62
 271 151 271 151 253 151 c 256,63,64
 235 151 235 151 223 171.5 c 128,-1,65
 211 192 211 192 211 220 c 0,66,67
 211 250 211 250 223 270 c 128,-1,68
 235 290 235 290 253 290 c 256,57,58
337 427 m 256,69,70
 356 427 356 427 368 407 c 0,71,72
 380 386 380 386 380 358 c 0,73,74
 380 328 380 328 367.5 309 c 128,-1,75
 355 290 355 290 337 290 c 256,76,77
 319 290 319 290 307 310 c 0,78,79
 295 328 295 328 295 358 c 256,80,81
 295 388 295 388 307 407.5 c 128,-1,82
 319 427 319 427 337 427 c 256,69,70
422 564 m 256,83,84
 440 564 440 564 452 544.5 c 128,-1,85
 464 525 464 525 464 496 c 256,86,87
 464 466 464 466 452 446.5 c 128,-1,88
 440 427 440 427 422 427 c 128,-1,89
 404 427 404 427 392 447.5 c 128,-1,90
 380 468 380 468 380 496 c 0,91,92
 380 526 380 526 392 545 c 128,-1,93
 404 564 404 564 422 564 c 256,83,84
EndSplineSet
Validated: 1
EndChar

